<svg xmlns="http://www.w3.org/2000/svg" xmlns:xlink="http://www.w3.org/1999/xlink" width="1920" zoomAndPan="magnify" viewBox="0 0 1440 809.999993" height="1080" preserveAspectRatio="xMidYMid meet" version="1.0"><defs><g/><clipPath id="a23ff44bb3"><rect x="0" width="447" y="0" height="225"/></clipPath><clipPath id="b4287e6ec2"><path d="M 1288.878906 334.371094 L 1306.878906 334.371094 L 1306.878906 352.371094 L 1288.878906 352.371094 Z M 1288.878906 334.371094 " clip-rule="nonzero"/></clipPath><clipPath id="3c13f31694"><rect x="0" width="263" y="0" height="34"/></clipPath></defs><g fill="#ffffff" fill-opacity="1"><g transform="translate(149.15121, 455.999968)"><g><path d="M 75.203125 -53.296875 L 75.203125 -102.21875 L 78.40625 -102.21875 L 78.40625 0 L 75.203125 0 L 75.203125 -50.234375 L 12.5625 -50.234375 L 12.5625 0 L 9.484375 0 L 9.484375 -102.21875 L 12.5625 -102.21875 L 12.5625 -53.296875 Z M 75.203125 -53.296875 "/></g></g></g><g fill="#ffffff" fill-opacity="1"><g transform="translate(237.198672, 455.999968)"><g><path d="M 5.6875 -51.109375 C 5.6875 -58.304688 7.097656 -65.09375 9.921875 -71.46875 C 12.742188 -77.84375 16.492188 -83.414062 21.171875 -88.1875 C 25.847656 -93.0625 31.347656 -96.859375 37.671875 -99.578125 C 43.992188 -102.304688 50.710938 -103.671875 57.828125 -103.671875 C 65.117188 -103.671875 71.925781 -102.304688 78.25 -99.578125 C 84.582031 -96.859375 90.085938 -93.0625 94.765625 -88.1875 C 99.429688 -83.414062 103.148438 -77.84375 105.921875 -71.46875 C 108.703125 -65.09375 110.09375 -58.304688 110.09375 -51.109375 C 110.09375 -43.898438 108.703125 -37.128906 105.921875 -30.796875 C 103.148438 -24.472656 99.429688 -18.878906 94.765625 -14.015625 C 90.085938 -9.242188 84.582031 -5.472656 78.25 -2.703125 C 71.925781 0.0664062 65.117188 1.453125 57.828125 1.453125 C 50.710938 1.453125 43.992188 0.0664062 37.671875 -2.703125 C 31.347656 -5.472656 25.847656 -9.242188 21.171875 -14.015625 C 16.492188 -18.878906 12.742188 -24.472656 9.921875 -30.796875 C 7.097656 -37.128906 5.6875 -43.898438 5.6875 -51.109375 Z M 106.890625 -51.109375 C 106.890625 -57.921875 105.597656 -64.296875 103.015625 -70.234375 C 100.429688 -76.171875 96.953125 -81.378906 92.578125 -85.859375 C 88.191406 -90.335938 83.003906 -93.890625 77.015625 -96.515625 C 71.035156 -99.140625 64.640625 -100.453125 57.828125 -100.453125 C 51.109375 -100.453125 44.78125 -99.140625 38.84375 -96.515625 C 32.90625 -93.890625 27.695312 -90.335938 23.21875 -85.859375 C 18.9375 -81.378906 15.476562 -76.171875 12.84375 -70.234375 C 10.21875 -64.296875 8.90625 -57.921875 8.90625 -51.109375 C 8.90625 -44.296875 10.21875 -37.921875 12.84375 -31.984375 C 15.476562 -26.046875 18.9375 -20.835938 23.21875 -16.359375 C 27.695312 -11.878906 32.90625 -8.320312 38.84375 -5.6875 C 44.78125 -3.0625 51.109375 -1.75 57.828125 -1.75 C 64.640625 -1.75 71.035156 -3.0625 77.015625 -5.6875 C 83.003906 -8.320312 88.191406 -11.878906 92.578125 -16.359375 C 96.953125 -20.835938 100.429688 -26.046875 103.015625 -31.984375 C 105.597656 -37.921875 106.890625 -44.296875 106.890625 -51.109375 Z M 106.890625 -51.109375 "/></g></g></g><g fill="#ffffff" fill-opacity="1"><g transform="translate(353.719193, 455.999968)"><g><path d="M 45.84375 1.171875 C 41.65625 1.171875 37.441406 0.5625 33.203125 -0.65625 C 28.972656 -1.875 25.109375 -3.695312 21.609375 -6.125 C 18.109375 -8.5625 15.285156 -11.601562 13.140625 -15.25 C 10.992188 -18.90625 9.921875 -23.117188 9.921875 -27.890625 L 9.921875 -102.21875 L 13.140625 -102.21875 L 13.140625 -27.75 C 13.140625 -23.457031 14.113281 -19.707031 16.0625 -16.5 C 18.007812 -13.289062 20.5625 -10.613281 23.71875 -8.46875 C 26.882812 -6.320312 30.414062 -4.710938 34.3125 -3.640625 C 38.207031 -2.578125 42.050781 -2.046875 45.84375 -2.046875 C 49.644531 -2.046875 53.488281 -2.578125 57.375 -3.640625 C 61.269531 -4.710938 64.800781 -6.320312 67.96875 -8.46875 C 71.132812 -10.613281 73.691406 -13.289062 75.640625 -16.5 C 77.585938 -19.707031 78.5625 -23.503906 78.5625 -27.890625 L 78.5625 -102.21875 L 81.765625 -102.21875 L 81.765625 -27.75 C 81.765625 -22.976562 80.691406 -18.789062 78.546875 -15.1875 C 76.410156 -11.582031 73.585938 -8.5625 70.078125 -6.125 C 66.578125 -3.695312 62.707031 -1.875 58.46875 -0.65625 C 54.238281 0.5625 50.03125 1.171875 45.84375 1.171875 Z M 45.84375 1.171875 "/></g></g></g><g fill="#ffffff" fill-opacity="1"><g transform="translate(444.832973, 455.999968)"><g><path d="M 72.71875 -80.3125 C 72.320312 -82.257812 71.660156 -84.203125 70.734375 -86.140625 C 69.816406 -88.085938 68.675781 -89.796875 67.3125 -91.265625 C 64.394531 -94.273438 60.671875 -96.535156 56.140625 -98.046875 C 51.617188 -99.554688 47.210938 -100.3125 42.921875 -100.3125 C 38.160156 -100.3125 33.269531 -99.410156 28.25 -97.609375 C 23.238281 -95.804688 19.175781 -92.910156 16.0625 -88.921875 C 14.5 -87.078125 13.378906 -85.035156 12.703125 -82.796875 C 12.023438 -80.554688 11.6875 -78.265625 11.6875 -75.921875 C 11.6875 -71.148438 12.632812 -67.328125 14.53125 -64.453125 C 16.425781 -61.585938 18.976562 -59.398438 22.1875 -57.890625 C 25.40625 -56.378906 28.9375 -55.257812 32.78125 -54.53125 C 36.625 -53.800781 40.445312 -53.242188 44.25 -52.859375 C 47.945312 -52.472656 51.617188 -51.984375 55.265625 -51.390625 C 58.921875 -50.804688 62.328125 -49.859375 65.484375 -48.546875 C 68.648438 -47.234375 71.351562 -45.40625 73.59375 -43.0625 C 75.832031 -40.726562 77.390625 -37.617188 78.265625 -33.734375 C 78.753906 -31.492188 79 -29.398438 79 -27.453125 C 79 -22.972656 77.953125 -18.957031 75.859375 -15.40625 C 73.765625 -11.851562 70.960938 -8.859375 67.453125 -6.421875 C 63.953125 -3.992188 60.0625 -2.144531 55.78125 -0.875 C 51.5 0.382812 47.164062 1.015625 42.78125 1.015625 C 39.082031 1.015625 35.285156 0.484375 31.390625 -0.578125 C 27.492188 -1.648438 23.84375 -3.253906 20.4375 -5.390625 C 17.03125 -7.535156 14.207031 -10.164062 11.96875 -13.28125 C 9.726562 -16.394531 8.367188 -20.046875 7.890625 -24.234375 L 7.734375 -25.546875 L 10.953125 -25.84375 L 11.09375 -24.53125 C 11.78125 -19.664062 13.800781 -15.550781 17.15625 -12.1875 C 20.507812 -8.832031 24.523438 -6.300781 29.203125 -4.59375 C 33.878906 -2.894531 38.453125 -2.046875 42.921875 -2.046875 C 48.179688 -2.046875 53.316406 -3.039062 58.328125 -5.03125 C 63.347656 -7.03125 67.488281 -9.925781 70.75 -13.71875 C 74.007812 -17.519531 75.640625 -22.144531 75.640625 -27.59375 C 75.640625 -28.375 75.585938 -29.226562 75.484375 -30.15625 C 75.390625 -31.082031 75.242188 -32.03125 75.046875 -33 C 74.078125 -37.476562 71.960938 -40.8125 68.703125 -43 C 65.441406 -45.1875 61.59375 -46.742188 57.15625 -47.671875 C 52.726562 -48.597656 48.226562 -49.304688 43.65625 -49.796875 C 39.757812 -50.179688 35.835938 -50.710938 31.890625 -51.390625 C 27.953125 -52.078125 24.304688 -53.222656 20.953125 -54.828125 C 17.597656 -56.429688 14.820312 -58.71875 12.625 -61.6875 C 10.4375 -64.65625 9.148438 -68.625 8.765625 -73.59375 C 8.566406 -76.414062 8.878906 -79.382812 9.703125 -82.5 C 10.535156 -85.613281 11.875 -88.390625 13.71875 -90.828125 C 16.9375 -95.003906 21.222656 -98.140625 26.578125 -100.234375 C 31.929688 -102.328125 37.476562 -103.375 43.21875 -103.375 C 48.28125 -103.375 53.125 -102.546875 57.75 -100.890625 C 62.375 -99.242188 66.289062 -96.785156 69.5 -93.515625 C 72.71875 -90.253906 74.8125 -86.09375 75.78125 -81.03125 L 76.078125 -79.28125 L 73.015625 -78.84375 Z M 72.71875 -80.3125 "/></g></g></g><g fill="#ffffff" fill-opacity="1"><g transform="translate(530.836235, 455.999968)"><g><path d="M 66.4375 -3.0625 L 66.4375 0 L 9.484375 0 L 9.484375 -102.21875 L 66.140625 -102.21875 L 66.140625 -99.140625 L 12.5625 -99.140625 L 12.5625 -52.71875 L 64.984375 -52.71875 L 64.984375 -49.5 L 12.5625 -49.5 L 12.5625 -3.0625 Z M 66.4375 -3.0625 "/></g></g></g><g fill="#ffffff" fill-opacity="1"><g transform="translate(643.56035, 455.999968)"><g><path d="M 5.6875 -51.109375 C 5.6875 -58.304688 7.097656 -65.09375 9.921875 -71.46875 C 12.742188 -77.84375 16.492188 -83.414062 21.171875 -88.1875 C 25.847656 -93.0625 31.347656 -96.859375 37.671875 -99.578125 C 43.992188 -102.304688 50.710938 -103.671875 57.828125 -103.671875 C 65.117188 -103.671875 71.925781 -102.304688 78.25 -99.578125 C 84.582031 -96.859375 90.085938 -93.0625 94.765625 -88.1875 C 99.429688 -83.414062 103.148438 -77.84375 105.921875 -71.46875 C 108.703125 -65.09375 110.09375 -58.304688 110.09375 -51.109375 C 110.09375 -43.898438 108.703125 -37.128906 105.921875 -30.796875 C 103.148438 -24.472656 99.429688 -18.878906 94.765625 -14.015625 C 90.085938 -9.242188 84.582031 -5.472656 78.25 -2.703125 C 71.925781 0.0664062 65.117188 1.453125 57.828125 1.453125 C 50.710938 1.453125 43.992188 0.0664062 37.671875 -2.703125 C 31.347656 -5.472656 25.847656 -9.242188 21.171875 -14.015625 C 16.492188 -18.878906 12.742188 -24.472656 9.921875 -30.796875 C 7.097656 -37.128906 5.6875 -43.898438 5.6875 -51.109375 Z M 106.890625 -51.109375 C 106.890625 -57.921875 105.597656 -64.296875 103.015625 -70.234375 C 100.429688 -76.171875 96.953125 -81.378906 92.578125 -85.859375 C 88.191406 -90.335938 83.003906 -93.890625 77.015625 -96.515625 C 71.035156 -99.140625 64.640625 -100.453125 57.828125 -100.453125 C 51.109375 -100.453125 44.78125 -99.140625 38.84375 -96.515625 C 32.90625 -93.890625 27.695312 -90.335938 23.21875 -85.859375 C 18.9375 -81.378906 15.476562 -76.171875 12.84375 -70.234375 C 10.21875 -64.296875 8.90625 -57.921875 8.90625 -51.109375 C 8.90625 -44.296875 10.21875 -37.921875 12.84375 -31.984375 C 15.476562 -26.046875 18.9375 -20.835938 23.21875 -16.359375 C 27.695312 -11.878906 32.90625 -8.320312 38.84375 -5.6875 C 44.78125 -3.0625 51.109375 -1.75 57.828125 -1.75 C 64.640625 -1.75 71.035156 -3.0625 77.015625 -5.6875 C 83.003906 -8.320312 88.191406 -11.878906 92.578125 -16.359375 C 96.953125 -20.835938 100.429688 -26.046875 103.015625 -31.984375 C 105.597656 -37.921875 106.890625 -44.296875 106.890625 -51.109375 Z M 106.890625 -51.109375 "/></g></g></g><g fill="#ffffff" fill-opacity="1"><g transform="translate(760.080883, 455.999968)"><g><path d="M 9.484375 0 L 9.484375 -102.21875 L 64.828125 -102.21875 L 64.828125 -99.140625 L 12.40625 -99.140625 L 12.40625 -52.71875 L 58.84375 -52.71875 L 58.84375 -49.5 L 12.40625 -49.5 L 12.40625 0 Z M 9.484375 0 "/></g></g></g><g transform="matrix(1, 0, 0, 1, 851, 283)"><g clip-path="url(#a23ff44bb3)"><g fill="#ffffff" fill-opacity="1"><g transform="translate(0.809709, 177.580428)"><g><path d="M 118.859375 0 L 100.578125 0 L 100.578125 -13.625 C 98.210938 -10.007812 94.976562 -7.082031 90.875 -4.84375 C 86.769531 -2.613281 82.414062 -1 77.8125 0 C 73.207031 1 68.789062 1.554688 64.5625 1.671875 C 52.863281 1.671875 42.972656 -0.78125 34.890625 -5.6875 C 26.804688 -10.601562 20.679688 -17.070312 16.515625 -25.09375 C 12.347656 -33.113281 10.265625 -41.726562 10.265625 -50.9375 C 10.265625 -60.019531 12.378906 -68.476562 16.609375 -76.3125 C 20.835938 -84.15625 26.992188 -90.5 35.078125 -95.34375 C 43.160156 -100.195312 52.863281 -102.625 64.1875 -102.625 C 68.414062 -102.625 72.769531 -102.21875 77.25 -101.40625 C 81.726562 -100.601562 86.019531 -99.113281 90.125 -96.9375 C 94.226562 -94.757812 97.773438 -91.617188 100.765625 -87.515625 L 100.578125 -100.953125 L 118.859375 -100.953125 Z M 100.578125 -50.5625 C 100.578125 -58.65625 98.738281 -65.34375 95.0625 -70.625 C 91.394531 -75.914062 86.757812 -79.894531 81.15625 -82.5625 C 75.5625 -85.238281 69.90625 -86.578125 64.1875 -86.578125 C 56.84375 -86.578125 50.492188 -84.988281 45.140625 -81.8125 C 39.796875 -78.644531 35.691406 -74.382812 32.828125 -69.03125 C 29.972656 -63.6875 28.546875 -57.65625 28.546875 -50.9375 C 28.546875 -44.59375 29.972656 -38.648438 32.828125 -33.109375 C 35.691406 -27.578125 39.769531 -23.097656 45.0625 -19.671875 C 50.351562 -16.253906 56.726562 -14.546875 64.1875 -14.546875 C 69.78125 -14.546875 75.375 -15.851562 80.96875 -18.46875 C 86.570312 -21.082031 91.238281 -25.0625 94.96875 -30.40625 C 98.707031 -35.757812 100.578125 -42.476562 100.578125 -50.5625 Z M 100.578125 -50.5625 "/></g></g></g><g fill="#ffffff" fill-opacity="1"><g transform="translate(131.797285, 177.580428)"><g><path d="M 14 0 L 14 -130.609375 L 32.28125 -130.609375 L 32.28125 0 Z M 14 0 "/></g></g></g><g fill="#ffffff" fill-opacity="1"><g transform="translate(178.072097, 177.580428)"><g><path d="M 37.875 -100.953125 L 60.078125 -100.953125 L 60.078125 -86.390625 L 37.875 -86.390625 L 37.875 -29.484375 C 37.875 -23.515625 39.242188 -19.5625 41.984375 -17.625 C 44.722656 -15.695312 48.394531 -14.734375 53 -14.734375 C 54.113281 -14.734375 55.320312 -14.765625 56.625 -14.828125 C 57.9375 -14.890625 59.273438 -14.984375 60.640625 -15.109375 L 60.640625 0.1875 C 59.148438 0.3125 57.71875 0.40625 56.34375 0.46875 C 54.976562 0.53125 53.613281 0.5625 52.25 0.5625 C 45.65625 0.5625 39.898438 -0.335938 34.984375 -2.140625 C 30.066406 -3.941406 26.269531 -7.019531 23.59375 -11.375 C 20.925781 -15.726562 19.59375 -21.828125 19.59375 -29.671875 L 19.59375 -86.390625 L 4.484375 -86.390625 L 4.484375 -100.953125 L 19.59375 -100.953125 L 19.59375 -119.796875 L 37.875 -123.34375 Z M 37.875 -100.953125 "/></g></g></g><g fill="#ffffff" fill-opacity="1"><g transform="translate(242.259747, 177.580428)"><g><path d="M 32.09375 -88.453125 C 35.695312 -93.546875 39.957031 -97.242188 44.875 -99.546875 C 49.789062 -101.847656 55.046875 -103 60.640625 -103 C 62.628906 -103 64.617188 -102.875 66.609375 -102.625 C 68.597656 -102.375 70.585938 -102 72.578125 -101.5 L 72.578125 -85.453125 C 69.597656 -86.328125 66.488281 -86.765625 63.25 -86.765625 C 57.65625 -86.765625 52.492188 -85.363281 47.765625 -82.5625 C 43.035156 -79.769531 39.238281 -75.976562 36.375 -71.1875 C 33.519531 -66.394531 32.09375 -60.890625 32.09375 -54.671875 L 32.09375 0 L 14 0 L 14 -100.765625 L 32.09375 -100.765625 Z M 32.09375 -88.453125 "/></g></g></g><g fill="#ffffff" fill-opacity="1"><g transform="translate(314.8439, 177.580428)"><g><path d="M 118.859375 0 L 100.578125 0 L 100.578125 -13.625 C 98.210938 -10.007812 94.976562 -7.082031 90.875 -4.84375 C 86.769531 -2.613281 82.414062 -1 77.8125 0 C 73.207031 1 68.789062 1.554688 64.5625 1.671875 C 52.863281 1.671875 42.972656 -0.78125 34.890625 -5.6875 C 26.804688 -10.601562 20.679688 -17.070312 16.515625 -25.09375 C 12.347656 -33.113281 10.265625 -41.726562 10.265625 -50.9375 C 10.265625 -60.019531 12.378906 -68.476562 16.609375 -76.3125 C 20.835938 -84.15625 26.992188 -90.5 35.078125 -95.34375 C 43.160156 -100.195312 52.863281 -102.625 64.1875 -102.625 C 68.414062 -102.625 72.769531 -102.21875 77.25 -101.40625 C 81.726562 -100.601562 86.019531 -99.113281 90.125 -96.9375 C 94.226562 -94.757812 97.773438 -91.617188 100.765625 -87.515625 L 100.578125 -100.953125 L 118.859375 -100.953125 Z M 100.578125 -50.5625 C 100.578125 -58.65625 98.738281 -65.34375 95.0625 -70.625 C 91.394531 -75.914062 86.757812 -79.894531 81.15625 -82.5625 C 75.5625 -85.238281 69.90625 -86.578125 64.1875 -86.578125 C 56.84375 -86.578125 50.492188 -84.988281 45.140625 -81.8125 C 39.796875 -78.644531 35.691406 -74.382812 32.828125 -69.03125 C 29.972656 -63.6875 28.546875 -57.65625 28.546875 -50.9375 C 28.546875 -44.59375 29.972656 -38.648438 32.828125 -33.109375 C 35.691406 -27.578125 39.769531 -23.097656 45.0625 -19.671875 C 50.351562 -16.253906 56.726562 -14.546875 64.1875 -14.546875 C 69.78125 -14.546875 75.375 -15.851562 80.96875 -18.46875 C 86.570312 -21.082031 91.238281 -25.0625 94.96875 -30.40625 C 98.707031 -35.757812 100.578125 -42.476562 100.578125 -50.5625 Z M 100.578125 -50.5625 "/></g></g></g></g></g><g clip-path="url(#b4287e6ec2)"><path fill="#ffffff" d="M 1297.820312 334.371094 C 1292.894531 334.371094 1288.878906 338.386719 1288.878906 343.3125 C 1288.878906 348.242188 1292.894531 352.253906 1297.820312 352.253906 C 1302.75 352.253906 1306.761719 348.242188 1306.761719 343.3125 C 1306.761719 338.386719 1302.75 334.371094 1297.820312 334.371094 Z M 1297.820312 336.160156 C 1301.78125 336.160156 1304.976562 339.351562 1304.976562 343.3125 C 1304.976562 347.273438 1301.78125 350.464844 1297.820312 350.464844 C 1293.859375 350.464844 1290.667969 347.273438 1290.667969 343.3125 C 1290.667969 339.351562 1293.859375 336.160156 1297.820312 336.160156 Z M 1295.140625 339.738281 L 1295.140625 346.890625 L 1296.613281 346.890625 L 1296.613281 344.269531 L 1297.789062 344.269531 L 1299.128906 346.890625 L 1300.710938 346.890625 L 1300.710938 346.820312 L 1299.164062 343.898438 C 1299.359375 343.808594 1299.535156 343.707031 1299.695312 343.585938 C 1299.851562 343.464844 1299.984375 343.320312 1300.097656 343.15625 C 1300.210938 342.996094 1300.292969 342.8125 1300.351562 342.601562 C 1300.410156 342.394531 1300.441406 342.160156 1300.441406 341.898438 C 1300.441406 341.542969 1300.382812 341.234375 1300.257812 340.964844 C 1300.140625 340.695312 1299.964844 340.472656 1299.738281 340.289062 C 1299.511719 340.109375 1299.234375 339.96875 1298.90625 339.875 C 1298.578125 339.78125 1298.210938 339.738281 1297.796875 339.738281 Z M 1296.613281 340.929688 L 1297.800781 340.929688 C 1298.195312 340.929688 1298.488281 341.027344 1298.679688 341.21875 C 1298.871094 341.414062 1298.96875 341.679688 1298.96875 342.015625 C 1298.96875 342.175781 1298.941406 342.320312 1298.894531 342.449219 C 1298.84375 342.582031 1298.769531 342.691406 1298.675781 342.785156 C 1298.578125 342.878906 1298.457031 342.949219 1298.3125 343 C 1298.164062 343.050781 1297.996094 343.078125 1297.800781 343.078125 L 1296.613281 343.078125 Z M 1296.613281 340.929688 " fill-opacity="1" fill-rule="nonzero"/></g><g transform="matrix(1, 0, 0, 1, 588, 516)"><g clip-path="url(#3c13f31694)"><g fill="#ffffff" fill-opacity="1"><g transform="translate(1.902534, 26.450817)"><g><path d="M 10.984375 0.265625 C 9.335938 0.265625 7.910156 -0.0195312 6.703125 -0.59375 C 5.492188 -1.164062 4.492188 -1.953125 3.703125 -2.953125 C 2.910156 -3.953125 2.320312 -5.09375 1.9375 -6.375 C 1.550781 -7.65625 1.359375 -9.007812 1.359375 -10.4375 C 1.359375 -11.851562 1.550781 -13.195312 1.9375 -14.46875 C 2.320312 -15.75 2.910156 -16.890625 3.703125 -17.890625 C 4.492188 -18.890625 5.492188 -19.675781 6.703125 -20.25 C 7.910156 -20.820312 9.335938 -21.109375 10.984375 -21.109375 C 12.523438 -21.109375 13.882812 -20.851562 15.0625 -20.34375 C 16.238281 -19.832031 17.191406 -19.125 17.921875 -18.21875 C 18.648438 -17.3125 19.113281 -16.265625 19.3125 -15.078125 L 16.578125 -15.078125 C 16.328125 -16.242188 15.695312 -17.164062 14.6875 -17.84375 C 13.6875 -18.53125 12.429688 -18.875 10.921875 -18.875 C 9.378906 -18.875 8.082031 -18.507812 7.03125 -17.78125 C 5.988281 -17.050781 5.203125 -16.046875 4.671875 -14.765625 C 4.140625 -13.492188 3.875 -12.050781 3.875 -10.4375 C 3.875 -8.8125 4.140625 -7.359375 4.671875 -6.078125 C 5.203125 -4.796875 5.988281 -3.789062 7.03125 -3.0625 C 8.082031 -2.332031 9.378906 -1.96875 10.921875 -1.96875 C 12.429688 -1.96875 13.6875 -2.332031 14.6875 -3.0625 C 15.695312 -3.789062 16.328125 -4.875 16.578125 -6.3125 L 19.3125 -6.3125 C 18.976562 -4.289062 18.085938 -2.6875 16.640625 -1.5 C 15.191406 -0.320312 13.304688 0.265625 10.984375 0.265625 Z M 10.984375 0.265625 "/></g></g></g><g fill="#ffffff" fill-opacity="1"><g transform="translate(22.880257, 26.450817)"><g><path d="M 8.6875 0.265625 C 7.25 0.265625 5.972656 -0.0664062 4.859375 -0.734375 C 3.753906 -1.410156 2.882812 -2.34375 2.25 -3.53125 C 1.625 -4.726562 1.3125 -6.09375 1.3125 -7.625 C 1.3125 -9.113281 1.625 -10.441406 2.25 -11.609375 C 2.882812 -12.773438 3.753906 -13.691406 4.859375 -14.359375 C 5.972656 -15.035156 7.25 -15.375 8.6875 -15.375 C 10.125 -15.375 11.398438 -15.035156 12.515625 -14.359375 C 13.640625 -13.691406 14.519531 -12.773438 15.15625 -11.609375 C 15.789062 -10.441406 16.109375 -9.113281 16.109375 -7.625 C 16.109375 -6.113281 15.796875 -4.757812 15.171875 -3.5625 C 14.546875 -2.375 13.671875 -1.4375 12.546875 -0.75 C 11.429688 -0.0703125 10.144531 0.265625 8.6875 0.265625 Z M 8.6875 -1.78125 C 9.65625 -1.78125 10.519531 -2.035156 11.28125 -2.546875 C 12.039062 -3.054688 12.644531 -3.75 13.09375 -4.625 C 13.539062 -5.507812 13.765625 -6.507812 13.765625 -7.625 C 13.765625 -8.695312 13.546875 -9.664062 13.109375 -10.53125 C 12.671875 -11.394531 12.066406 -12.078125 11.296875 -12.578125 C 10.535156 -13.078125 9.664062 -13.328125 8.6875 -13.328125 C 7.71875 -13.328125 6.847656 -13.082031 6.078125 -12.59375 C 5.316406 -12.101562 4.71875 -11.425781 4.28125 -10.5625 C 3.84375 -9.695312 3.625 -8.71875 3.625 -7.625 C 3.625 -6.488281 3.847656 -5.476562 4.296875 -4.59375 C 4.742188 -3.71875 5.347656 -3.03125 6.109375 -2.53125 C 6.878906 -2.03125 7.738281 -1.78125 8.6875 -1.78125 Z M 8.6875 -1.78125 "/></g></g></g><g fill="#ffffff" fill-opacity="1"><g transform="translate(40.880704, 26.450817)"><g><path d="M 4.265625 0 L 1.9375 0 L 1.9375 -15.109375 L 4.265625 -15.109375 L 4.265625 -12.75 C 5.023438 -13.738281 5.753906 -14.421875 6.453125 -14.796875 C 7.160156 -15.179688 7.921875 -15.375 8.734375 -15.375 C 9.921875 -15.375 10.867188 -15.148438 11.578125 -14.703125 C 12.285156 -14.253906 12.820312 -13.6875 13.1875 -13 C 13.550781 -12.320312 13.757812 -11.617188 13.8125 -10.890625 C 13.875 -10.171875 13.90625 -9.570312 13.90625 -9.09375 L 13.90625 0 L 11.578125 0 L 11.578125 -9.09375 C 11.578125 -10.695312 11.285156 -11.828125 10.703125 -12.484375 C 10.191406 -13.046875 9.421875 -13.328125 8.390625 -13.328125 C 7.765625 -13.328125 7.222656 -13.226562 6.765625 -13.03125 C 6.316406 -12.832031 5.9375 -12.554688 5.625 -12.203125 C 5.132812 -11.691406 4.785156 -10.988281 4.578125 -10.09375 C 4.367188 -9.207031 4.265625 -7.992188 4.265625 -6.453125 Z M 4.265625 0 "/></g></g></g><g fill="#ffffff" fill-opacity="1"><g transform="translate(57.160354, 26.450817)"><g><path d="M 4.265625 0 L 1.9375 0 L 1.9375 -15.109375 L 4.265625 -15.109375 L 4.265625 -12.75 C 5.023438 -13.738281 5.753906 -14.421875 6.453125 -14.796875 C 7.160156 -15.179688 7.921875 -15.375 8.734375 -15.375 C 9.921875 -15.375 10.867188 -15.148438 11.578125 -14.703125 C 12.285156 -14.253906 12.820312 -13.6875 13.1875 -13 C 13.550781 -12.320312 13.757812 -11.617188 13.8125 -10.890625 C 13.875 -10.171875 13.90625 -9.570312 13.90625 -9.09375 L 13.90625 0 L 11.578125 0 L 11.578125 -9.09375 C 11.578125 -10.695312 11.285156 -11.828125 10.703125 -12.484375 C 10.191406 -13.046875 9.421875 -13.328125 8.390625 -13.328125 C 7.765625 -13.328125 7.222656 -13.226562 6.765625 -13.03125 C 6.316406 -12.832031 5.9375 -12.554688 5.625 -12.203125 C 5.132812 -11.691406 4.785156 -10.988281 4.578125 -10.09375 C 4.367188 -9.207031 4.265625 -7.992188 4.265625 -6.453125 Z M 4.265625 0 "/></g></g></g><g fill="#ffffff" fill-opacity="1"><g transform="translate(73.440003, 26.450817)"><g><path d="M 8.65625 0.265625 C 7.21875 0.265625 5.941406 -0.0703125 4.828125 -0.75 C 3.722656 -1.4375 2.859375 -2.363281 2.234375 -3.53125 C 1.617188 -4.707031 1.3125 -6.035156 1.3125 -7.515625 C 1.3125 -8.878906 1.59375 -10.160156 2.15625 -11.359375 C 2.71875 -12.566406 3.546875 -13.535156 4.640625 -14.265625 C 5.734375 -15.003906 7.054688 -15.375 8.609375 -15.375 C 9.878906 -15.375 11.0625 -15.09375 12.15625 -14.53125 C 13.257812 -13.96875 14.15625 -13.128906 14.84375 -12.015625 C 15.539062 -10.898438 15.890625 -9.535156 15.890625 -7.921875 L 15.890625 -7.09375 L 3.609375 -7.09375 C 3.640625 -6.570312 3.738281 -6.070312 3.90625 -5.59375 C 4.289062 -4.425781 4.898438 -3.5 5.734375 -2.8125 C 6.566406 -2.125 7.53125 -1.78125 8.625 -1.78125 C 9.769531 -1.78125 10.722656 -2.082031 11.484375 -2.6875 C 12.253906 -3.300781 12.804688 -4.023438 13.140625 -4.859375 L 15.625 -4.859375 C 15.3125 -3.910156 14.84375 -3.050781 14.21875 -2.28125 C 13.601562 -1.507812 12.835938 -0.890625 11.921875 -0.421875 C 11.003906 0.0351562 9.914062 0.265625 8.65625 0.265625 Z M 3.828125 -9.15625 L 13.40625 -9.15625 C 13.394531 -9.40625 13.359375 -9.65625 13.296875 -9.90625 C 13.242188 -10.164062 13.171875 -10.40625 13.078125 -10.625 C 12.679688 -11.5 12.085938 -12.164062 11.296875 -12.625 C 10.503906 -13.09375 9.625 -13.328125 8.65625 -13.328125 C 7.65625 -13.328125 6.773438 -13.085938 6.015625 -12.609375 C 5.265625 -12.140625 4.679688 -11.476562 4.265625 -10.625 C 4.148438 -10.382812 4.054688 -10.132812 3.984375 -9.875 C 3.910156 -9.625 3.859375 -9.382812 3.828125 -9.15625 Z M 3.828125 -9.15625 "/></g></g></g><g fill="#ffffff" fill-opacity="1"><g transform="translate(91.167319, 26.450817)"><g><path d="M 8.625 0.265625 C 7.207031 0.265625 5.945312 -0.0664062 4.84375 -0.734375 C 3.75 -1.410156 2.882812 -2.34375 2.25 -3.53125 C 1.625 -4.726562 1.3125 -6.09375 1.3125 -7.625 C 1.3125 -9.113281 1.617188 -10.441406 2.234375 -11.609375 C 2.859375 -12.773438 3.71875 -13.691406 4.8125 -14.359375 C 5.914062 -15.035156 7.1875 -15.375 8.625 -15.375 C 10.320312 -15.375 11.753906 -14.9375 12.921875 -14.0625 C 14.097656 -13.1875 14.863281 -12.019531 15.21875 -10.5625 L 12.734375 -10.5625 C 12.441406 -11.425781 11.925781 -12.101562 11.1875 -12.59375 C 10.445312 -13.082031 9.59375 -13.328125 8.625 -13.328125 C 7.675781 -13.328125 6.820312 -13.082031 6.0625 -12.59375 C 5.3125 -12.101562 4.71875 -11.425781 4.28125 -10.5625 C 3.84375 -9.707031 3.625 -8.726562 3.625 -7.625 C 3.625 -6.476562 3.84375 -5.46875 4.28125 -4.59375 C 4.71875 -3.71875 5.3125 -3.03125 6.0625 -2.53125 C 6.820312 -2.03125 7.675781 -1.78125 8.625 -1.78125 C 9.6875 -1.78125 10.59375 -2.0625 11.34375 -2.625 C 12.101562 -3.1875 12.601562 -3.929688 12.84375 -4.859375 L 15.328125 -4.859375 C 14.992188 -3.253906 14.21875 -2 13 -1.09375 C 11.78125 -0.1875 10.320312 0.265625 8.625 0.265625 Z M 8.625 0.265625 "/></g></g></g><g fill="#ffffff" fill-opacity="1"><g transform="translate(108.157141, 26.450817)"><g><path d="M 8.84375 0 L 6.75 0 C 6 0 5.351562 -0.101562 4.8125 -0.3125 C 4.28125 -0.519531 3.875 -0.898438 3.59375 -1.453125 C 3.3125 -2.015625 3.171875 -2.796875 3.171875 -3.796875 L 3.171875 -13.0625 L 0.734375 -13.0625 L 0.734375 -15.109375 L 3.171875 -15.109375 L 3.171875 -20.84375 L 5.484375 -20.84375 L 5.484375 -15.109375 L 8.875 -15.109375 L 8.875 -13.0625 L 5.484375 -13.0625 L 5.484375 -4.265625 C 5.484375 -3.828125 5.515625 -3.4375 5.578125 -3.09375 C 5.648438 -2.757812 5.8125 -2.5 6.0625 -2.3125 C 6.320312 -2.132812 6.734375 -2.046875 7.296875 -2.046875 L 8.84375 -2.046875 Z M 8.84375 0 "/></g></g></g><g fill="#ffffff" fill-opacity="1"><g transform="translate(118.564204, 26.450817)"><g><path d="M 3.109375 -17.703125 C 2.617188 -17.703125 2.203125 -17.867188 1.859375 -18.203125 C 1.515625 -18.535156 1.34375 -18.941406 1.34375 -19.421875 C 1.34375 -19.890625 1.515625 -20.285156 1.859375 -20.609375 C 2.203125 -20.941406 2.617188 -21.109375 3.109375 -21.109375 C 3.597656 -21.109375 4.015625 -20.941406 4.359375 -20.609375 C 4.710938 -20.285156 4.890625 -19.890625 4.890625 -19.421875 C 4.890625 -18.941406 4.710938 -18.535156 4.359375 -18.203125 C 4.015625 -17.867188 3.597656 -17.703125 3.109375 -17.703125 Z M 4.265625 0 L 1.9375 0 L 1.9375 -15.109375 L 4.265625 -15.109375 Z M 4.265625 0 "/></g></g></g><g fill="#ffffff" fill-opacity="1"><g transform="translate(125.31114, 26.450817)"><g><path d="M 4.265625 0 L 1.9375 0 L 1.9375 -15.109375 L 4.265625 -15.109375 L 4.265625 -12.75 C 5.023438 -13.738281 5.753906 -14.421875 6.453125 -14.796875 C 7.160156 -15.179688 7.921875 -15.375 8.734375 -15.375 C 9.921875 -15.375 10.867188 -15.148438 11.578125 -14.703125 C 12.285156 -14.253906 12.820312 -13.6875 13.1875 -13 C 13.550781 -12.320312 13.757812 -11.617188 13.8125 -10.890625 C 13.875 -10.171875 13.90625 -9.570312 13.90625 -9.09375 L 13.90625 0 L 11.578125 0 L 11.578125 -9.09375 C 11.578125 -10.695312 11.285156 -11.828125 10.703125 -12.484375 C 10.191406 -13.046875 9.421875 -13.328125 8.390625 -13.328125 C 7.765625 -13.328125 7.222656 -13.226562 6.765625 -13.03125 C 6.316406 -12.832031 5.9375 -12.554688 5.625 -12.203125 C 5.132812 -11.691406 4.785156 -10.988281 4.578125 -10.09375 C 4.367188 -9.207031 4.265625 -7.992188 4.265625 -6.453125 Z M 4.265625 0 "/></g></g></g><g fill="#ffffff" fill-opacity="1"><g transform="translate(141.59079, 26.450817)"><g><path d="M 8.609375 6.015625 C 7.585938 6.015625 6.597656 5.867188 5.640625 5.578125 C 4.679688 5.285156 3.859375 4.789062 3.171875 4.09375 C 2.492188 3.40625 2.054688 2.453125 1.859375 1.234375 L 4.234375 1.234375 C 4.472656 2.117188 4.945312 2.789062 5.65625 3.25 C 6.363281 3.71875 7.335938 3.953125 8.578125 3.953125 C 10.160156 3.953125 11.304688 3.59375 12.015625 2.875 C 12.722656 2.15625 13.078125 1.171875 13.078125 -0.078125 L 13.078125 -2.34375 C 12.296875 -1.34375 11.53125 -0.65625 10.78125 -0.28125 C 10.039062 0.0820312 9.160156 0.265625 8.140625 0.265625 C 6.796875 0.265625 5.617188 -0.0546875 4.609375 -0.703125 C 3.597656 -1.359375 2.8125 -2.273438 2.25 -3.453125 C 1.695312 -4.628906 1.421875 -5.972656 1.421875 -7.484375 C 1.421875 -9.046875 1.695312 -10.421875 2.25 -11.609375 C 2.8125 -12.796875 3.59375 -13.71875 4.59375 -14.375 C 5.59375 -15.039062 6.765625 -15.375 8.109375 -15.375 C 9.171875 -15.375 10.070312 -15.179688 10.8125 -14.796875 C 11.5625 -14.421875 12.316406 -13.738281 13.078125 -12.75 L 13.078125 -15.109375 L 15.40625 -15.109375 L 15.40625 -0.515625 C 15.40625 1.117188 15.113281 2.410156 14.53125 3.359375 C 13.945312 4.304688 13.144531 4.984375 12.125 5.390625 C 11.101562 5.804688 9.929688 6.015625 8.609375 6.015625 Z M 8.359375 -1.78125 C 9.304688 -1.78125 10.140625 -2.03125 10.859375 -2.53125 C 11.578125 -3.03125 12.140625 -3.71875 12.546875 -4.59375 C 12.960938 -5.46875 13.171875 -6.457031 13.171875 -7.5625 C 13.171875 -8.675781 12.957031 -9.664062 12.53125 -10.53125 C 12.113281 -11.394531 11.546875 -12.078125 10.828125 -12.578125 C 10.109375 -13.078125 9.285156 -13.328125 8.359375 -13.328125 C 7.410156 -13.328125 6.585938 -13.070312 5.890625 -12.5625 C 5.203125 -12.050781 4.671875 -11.363281 4.296875 -10.5 C 3.921875 -9.632812 3.734375 -8.65625 3.734375 -7.5625 C 3.734375 -6.46875 3.921875 -5.484375 4.296875 -4.609375 C 4.671875 -3.742188 5.203125 -3.054688 5.890625 -2.546875 C 6.585938 -2.035156 7.410156 -1.78125 8.359375 -1.78125 Z M 8.359375 -1.78125 "/></g></g></g><g fill="#ffffff" fill-opacity="1"><g transform="translate(159.481993, 26.450817)"><g/></g></g><g fill="#ffffff" fill-opacity="1"><g transform="translate(167.676596, 26.450817)"><g><path d="M 2.921875 0 L 0.375 0 L 8.0625 -20.84375 L 10.890625 -20.84375 L 18.578125 0 L 16.03125 0 L 14.203125 -5.109375 L 4.75 -5.109375 Z M 9.484375 -18.265625 L 5.59375 -7.34375 L 13.359375 -7.34375 Z M 9.484375 -18.265625 "/></g></g></g><g fill="#ffffff" fill-opacity="1"><g transform="translate(187.179331, 26.450817)"><g><path d="M 8.03125 0.265625 C 6.101562 0.265625 4.539062 -0.191406 3.34375 -1.109375 C 2.15625 -2.023438 1.429688 -3.273438 1.171875 -4.859375 L 3.609375 -4.859375 C 3.804688 -3.953125 4.257812 -3.210938 4.96875 -2.640625 C 5.675781 -2.066406 6.707031 -1.78125 8.0625 -1.78125 C 9.082031 -1.78125 9.914062 -1.972656 10.5625 -2.359375 C 11.207031 -2.753906 11.53125 -3.332031 11.53125 -4.09375 C 11.53125 -4.726562 11.328125 -5.21875 10.921875 -5.5625 C 10.523438 -5.914062 10.003906 -6.179688 9.359375 -6.359375 C 8.710938 -6.546875 8.015625 -6.710938 7.265625 -6.859375 C 6.609375 -6.984375 5.957031 -7.125 5.3125 -7.28125 C 4.664062 -7.445312 4.078125 -7.675781 3.546875 -7.96875 C 3.023438 -8.257812 2.601562 -8.648438 2.28125 -9.140625 C 1.957031 -9.640625 1.796875 -10.269531 1.796875 -11.03125 C 1.796875 -11.976562 2.035156 -12.773438 2.515625 -13.421875 C 3.003906 -14.066406 3.664062 -14.550781 4.5 -14.875 C 5.34375 -15.207031 6.273438 -15.375 7.296875 -15.375 C 8.929688 -15.375 10.296875 -14.953125 11.390625 -14.109375 C 12.484375 -13.265625 13.15625 -12.082031 13.40625 -10.5625 L 11.25 -10.5625 C 11.007812 -11.53125 10.539062 -12.234375 9.84375 -12.671875 C 9.144531 -13.109375 8.296875 -13.328125 7.296875 -13.328125 C 6.296875 -13.328125 5.515625 -13.140625 4.953125 -12.765625 C 4.398438 -12.390625 4.125 -11.875 4.125 -11.21875 C 4.125 -10.695312 4.3125 -10.285156 4.6875 -9.984375 C 5.0625 -9.679688 5.546875 -9.453125 6.140625 -9.296875 C 6.742188 -9.140625 7.390625 -8.988281 8.078125 -8.84375 C 8.753906 -8.71875 9.429688 -8.566406 10.109375 -8.390625 C 10.796875 -8.222656 11.421875 -7.984375 11.984375 -7.671875 C 12.554688 -7.359375 13.007812 -6.9375 13.34375 -6.40625 C 13.675781 -5.882812 13.84375 -5.195312 13.84375 -4.34375 C 13.84375 -2.957031 13.335938 -1.84375 12.328125 -1 C 11.316406 -0.15625 9.882812 0.265625 8.03125 0.265625 Z M 8.03125 0.265625 "/></g></g></g><g fill="#ffffff" fill-opacity="1"><g transform="translate(202.940018, 26.450817)"><g><path d="M 8.03125 0.265625 C 6.101562 0.265625 4.539062 -0.191406 3.34375 -1.109375 C 2.15625 -2.023438 1.429688 -3.273438 1.171875 -4.859375 L 3.609375 -4.859375 C 3.804688 -3.953125 4.257812 -3.210938 4.96875 -2.640625 C 5.675781 -2.066406 6.707031 -1.78125 8.0625 -1.78125 C 9.082031 -1.78125 9.914062 -1.972656 10.5625 -2.359375 C 11.207031 -2.753906 11.53125 -3.332031 11.53125 -4.09375 C 11.53125 -4.726562 11.328125 -5.21875 10.921875 -5.5625 C 10.523438 -5.914062 10.003906 -6.179688 9.359375 -6.359375 C 8.710938 -6.546875 8.015625 -6.710938 7.265625 -6.859375 C 6.609375 -6.984375 5.957031 -7.125 5.3125 -7.28125 C 4.664062 -7.445312 4.078125 -7.675781 3.546875 -7.96875 C 3.023438 -8.257812 2.601562 -8.648438 2.28125 -9.140625 C 1.957031 -9.640625 1.796875 -10.269531 1.796875 -11.03125 C 1.796875 -11.976562 2.035156 -12.773438 2.515625 -13.421875 C 3.003906 -14.066406 3.664062 -14.550781 4.5 -14.875 C 5.34375 -15.207031 6.273438 -15.375 7.296875 -15.375 C 8.929688 -15.375 10.296875 -14.953125 11.390625 -14.109375 C 12.484375 -13.265625 13.15625 -12.082031 13.40625 -10.5625 L 11.25 -10.5625 C 11.007812 -11.53125 10.539062 -12.234375 9.84375 -12.671875 C 9.144531 -13.109375 8.296875 -13.328125 7.296875 -13.328125 C 6.296875 -13.328125 5.515625 -13.140625 4.953125 -12.765625 C 4.398438 -12.390625 4.125 -11.875 4.125 -11.21875 C 4.125 -10.695312 4.3125 -10.285156 4.6875 -9.984375 C 5.0625 -9.679688 5.546875 -9.453125 6.140625 -9.296875 C 6.742188 -9.140625 7.390625 -8.988281 8.078125 -8.84375 C 8.753906 -8.71875 9.429688 -8.566406 10.109375 -8.390625 C 10.796875 -8.222656 11.421875 -7.984375 11.984375 -7.671875 C 12.554688 -7.359375 13.007812 -6.9375 13.34375 -6.40625 C 13.675781 -5.882812 13.84375 -5.195312 13.84375 -4.34375 C 13.84375 -2.957031 13.335938 -1.84375 12.328125 -1 C 11.316406 -0.15625 9.882812 0.265625 8.03125 0.265625 Z M 8.03125 0.265625 "/></g></g></g><g fill="#ffffff" fill-opacity="1"><g transform="translate(218.700705, 26.450817)"><g><path d="M 8.65625 0.265625 C 7.21875 0.265625 5.941406 -0.0703125 4.828125 -0.75 C 3.722656 -1.4375 2.859375 -2.363281 2.234375 -3.53125 C 1.617188 -4.707031 1.3125 -6.035156 1.3125 -7.515625 C 1.3125 -8.878906 1.59375 -10.160156 2.15625 -11.359375 C 2.71875 -12.566406 3.546875 -13.535156 4.640625 -14.265625 C 5.734375 -15.003906 7.054688 -15.375 8.609375 -15.375 C 9.878906 -15.375 11.0625 -15.09375 12.15625 -14.53125 C 13.257812 -13.96875 14.15625 -13.128906 14.84375 -12.015625 C 15.539062 -10.898438 15.890625 -9.535156 15.890625 -7.921875 L 15.890625 -7.09375 L 3.609375 -7.09375 C 3.640625 -6.570312 3.738281 -6.070312 3.90625 -5.59375 C 4.289062 -4.425781 4.898438 -3.5 5.734375 -2.8125 C 6.566406 -2.125 7.53125 -1.78125 8.625 -1.78125 C 9.769531 -1.78125 10.722656 -2.082031 11.484375 -2.6875 C 12.253906 -3.300781 12.804688 -4.023438 13.140625 -4.859375 L 15.625 -4.859375 C 15.3125 -3.910156 14.84375 -3.050781 14.21875 -2.28125 C 13.601562 -1.507812 12.835938 -0.890625 11.921875 -0.421875 C 11.003906 0.0351562 9.914062 0.265625 8.65625 0.265625 Z M 3.828125 -9.15625 L 13.40625 -9.15625 C 13.394531 -9.40625 13.359375 -9.65625 13.296875 -9.90625 C 13.242188 -10.164062 13.171875 -10.40625 13.078125 -10.625 C 12.679688 -11.5 12.085938 -12.164062 11.296875 -12.625 C 10.503906 -13.09375 9.625 -13.328125 8.65625 -13.328125 C 7.65625 -13.328125 6.773438 -13.085938 6.015625 -12.609375 C 5.265625 -12.140625 4.679688 -11.476562 4.265625 -10.625 C 4.148438 -10.382812 4.054688 -10.132812 3.984375 -9.875 C 3.910156 -9.625 3.859375 -9.382812 3.828125 -9.15625 Z M 3.828125 -9.15625 "/></g></g></g><g fill="#ffffff" fill-opacity="1"><g transform="translate(236.428021, 26.450817)"><g><path d="M 8.84375 0 L 6.75 0 C 6 0 5.351562 -0.101562 4.8125 -0.3125 C 4.28125 -0.519531 3.875 -0.898438 3.59375 -1.453125 C 3.3125 -2.015625 3.171875 -2.796875 3.171875 -3.796875 L 3.171875 -13.0625 L 0.734375 -13.0625 L 0.734375 -15.109375 L 3.171875 -15.109375 L 3.171875 -20.84375 L 5.484375 -20.84375 L 5.484375 -15.109375 L 8.875 -15.109375 L 8.875 -13.0625 L 5.484375 -13.0625 L 5.484375 -4.265625 C 5.484375 -3.828125 5.515625 -3.4375 5.578125 -3.09375 C 5.648438 -2.757812 5.8125 -2.5 6.0625 -2.3125 C 6.320312 -2.132812 6.734375 -2.046875 7.296875 -2.046875 L 8.84375 -2.046875 Z M 8.84375 0 "/></g></g></g><g fill="#ffffff" fill-opacity="1"><g transform="translate(246.835084, 26.450817)"><g><path d="M 8.03125 0.265625 C 6.101562 0.265625 4.539062 -0.191406 3.34375 -1.109375 C 2.15625 -2.023438 1.429688 -3.273438 1.171875 -4.859375 L 3.609375 -4.859375 C 3.804688 -3.953125 4.257812 -3.210938 4.96875 -2.640625 C 5.675781 -2.066406 6.707031 -1.78125 8.0625 -1.78125 C 9.082031 -1.78125 9.914062 -1.972656 10.5625 -2.359375 C 11.207031 -2.753906 11.53125 -3.332031 11.53125 -4.09375 C 11.53125 -4.726562 11.328125 -5.21875 10.921875 -5.5625 C 10.523438 -5.914062 10.003906 -6.179688 9.359375 -6.359375 C 8.710938 -6.546875 8.015625 -6.710938 7.265625 -6.859375 C 6.609375 -6.984375 5.957031 -7.125 5.3125 -7.28125 C 4.664062 -7.445312 4.078125 -7.675781 3.546875 -7.96875 C 3.023438 -8.257812 2.601562 -8.648438 2.28125 -9.140625 C 1.957031 -9.640625 1.796875 -10.269531 1.796875 -11.03125 C 1.796875 -11.976562 2.035156 -12.773438 2.515625 -13.421875 C 3.003906 -14.066406 3.664062 -14.550781 4.5 -14.875 C 5.34375 -15.207031 6.273438 -15.375 7.296875 -15.375 C 8.929688 -15.375 10.296875 -14.953125 11.390625 -14.109375 C 12.484375 -13.265625 13.15625 -12.082031 13.40625 -10.5625 L 11.25 -10.5625 C 11.007812 -11.53125 10.539062 -12.234375 9.84375 -12.671875 C 9.144531 -13.109375 8.296875 -13.328125 7.296875 -13.328125 C 6.296875 -13.328125 5.515625 -13.140625 4.953125 -12.765625 C 4.398438 -12.390625 4.125 -11.875 4.125 -11.21875 C 4.125 -10.695312 4.3125 -10.285156 4.6875 -9.984375 C 5.0625 -9.679688 5.546875 -9.453125 6.140625 -9.296875 C 6.742188 -9.140625 7.390625 -8.988281 8.078125 -8.84375 C 8.753906 -8.71875 9.429688 -8.566406 10.109375 -8.390625 C 10.796875 -8.222656 11.421875 -7.984375 11.984375 -7.671875 C 12.554688 -7.359375 13.007812 -6.9375 13.34375 -6.40625 C 13.675781 -5.882812 13.84375 -5.195312 13.84375 -4.34375 C 13.84375 -2.957031 13.335938 -1.84375 12.328125 -1 C 11.316406 -0.15625 9.882812 0.265625 8.03125 0.265625 Z M 8.03125 0.265625 "/></g></g></g></g></g></svg>