<svg xmlns="http://www.w3.org/2000/svg" xmlns:xlink="http://www.w3.org/1999/xlink" width="1920" zoomAndPan="magnify" viewBox="0 0 1440 809.999993" height="1080" preserveAspectRatio="xMidYMid meet" version="1.0"><defs><g/><clipPath id="061cfe1c0d"><rect x="0" width="494" y="0" height="248"/></clipPath><clipPath id="7d3cafb7dc"><path d="M 1259.25 56.464844 L 1279 56.464844 L 1279 76.339844 L 1259.25 76.339844 Z M 1259.25 56.464844 " clip-rule="nonzero"/></clipPath><clipPath id="ed7cc1b951"><rect x="0" width="1280" y="0" height="333"/></clipPath></defs><rect x="-144" width="1728" fill="#ffffff" y="-80.999999" height="971.999992" fill-opacity="1"/><rect x="-144" width="1728" fill="#000000" y="-80.999999" height="971.999992" fill-opacity="1"/><g transform="matrix(1, 0, 0, 1, 80, 252)"><g clip-path="url(#ed7cc1b951)"><g fill="#ffffff" fill-opacity="1"><g transform="translate(1.000002, 190.742091)"><g><path d="M 83.015625 -58.84375 L 83.015625 -112.84375 L 86.5625 -112.84375 L 86.5625 0 L 83.015625 0 L 83.015625 -55.453125 L 13.859375 -55.453125 L 13.859375 0 L 10.484375 0 L 10.484375 -112.84375 L 13.859375 -112.84375 L 13.859375 -58.84375 Z M 83.015625 -58.84375 "/></g></g></g><g fill="#ffffff" fill-opacity="1"><g transform="translate(98.20342, 190.742091)"><g><path d="M 6.28125 -56.421875 C 6.28125 -64.367188 7.835938 -71.863281 10.953125 -78.90625 C 14.078125 -85.945312 18.21875 -92.097656 23.375 -97.359375 C 28.53125 -102.734375 34.597656 -106.925781 41.578125 -109.9375 C 48.566406 -112.945312 55.988281 -114.453125 63.84375 -114.453125 C 71.894531 -114.453125 79.414062 -112.945312 86.40625 -109.9375 C 93.394531 -106.925781 99.46875 -102.734375 104.625 -97.359375 C 109.78125 -92.097656 113.890625 -85.945312 116.953125 -78.90625 C 120.015625 -71.863281 121.546875 -64.367188 121.546875 -56.421875 C 121.546875 -48.460938 120.015625 -40.988281 116.953125 -34 C 113.890625 -27.019531 109.78125 -20.84375 104.625 -15.46875 C 99.46875 -10.207031 93.394531 -6.046875 86.40625 -2.984375 C 79.414062 0.078125 71.894531 1.609375 63.84375 1.609375 C 55.988281 1.609375 48.566406 0.078125 41.578125 -2.984375 C 34.597656 -6.046875 28.53125 -10.207031 23.375 -15.46875 C 18.21875 -20.84375 14.078125 -27.019531 10.953125 -34 C 7.835938 -40.988281 6.28125 -48.460938 6.28125 -56.421875 Z M 118 -56.421875 C 118 -63.941406 116.570312 -70.976562 113.71875 -77.53125 C 110.875 -84.09375 107.035156 -89.84375 102.203125 -94.78125 C 97.367188 -99.726562 91.644531 -103.648438 85.03125 -106.546875 C 78.425781 -109.453125 71.363281 -110.90625 63.84375 -110.90625 C 56.425781 -110.90625 49.4375 -109.453125 42.875 -106.546875 C 36.320312 -103.648438 30.570312 -99.726562 25.625 -94.78125 C 20.894531 -89.84375 17.078125 -84.09375 14.171875 -77.53125 C 11.273438 -70.976562 9.828125 -63.941406 9.828125 -56.421875 C 9.828125 -48.898438 11.273438 -41.859375 14.171875 -35.296875 C 17.078125 -28.742188 20.894531 -23 25.625 -18.0625 C 30.570312 -13.113281 36.320312 -9.1875 42.875 -6.28125 C 49.4375 -3.382812 56.425781 -1.9375 63.84375 -1.9375 C 71.363281 -1.9375 78.425781 -3.382812 85.03125 -6.28125 C 91.644531 -9.1875 97.367188 -13.113281 102.203125 -18.0625 C 107.035156 -23 110.875 -28.742188 113.71875 -35.296875 C 116.570312 -41.859375 118 -48.898438 118 -56.421875 Z M 118 -56.421875 "/></g></g></g><g fill="#ffffff" fill-opacity="1"><g transform="translate(226.840778, 190.742091)"><g><path d="M 50.625 1.296875 C 46 1.296875 41.347656 0.625 36.671875 -0.71875 C 31.992188 -2.0625 27.722656 -4.078125 23.859375 -6.765625 C 19.992188 -9.453125 16.878906 -12.8125 14.515625 -16.84375 C 12.148438 -20.875 10.96875 -25.523438 10.96875 -30.796875 L 10.96875 -112.84375 L 14.515625 -112.84375 L 14.515625 -30.625 C 14.515625 -25.894531 15.585938 -21.753906 17.734375 -18.203125 C 19.878906 -14.660156 22.695312 -11.707031 26.1875 -9.34375 C 29.6875 -6.976562 33.582031 -5.203125 37.875 -4.015625 C 42.175781 -2.835938 46.425781 -2.25 50.625 -2.25 C 54.8125 -2.25 59.050781 -2.835938 63.34375 -4.015625 C 67.644531 -5.203125 71.539062 -6.976562 75.03125 -9.34375 C 78.53125 -11.707031 81.351562 -14.660156 83.5 -18.203125 C 85.65625 -21.753906 86.734375 -25.953125 86.734375 -30.796875 L 86.734375 -112.84375 L 90.28125 -112.84375 L 90.28125 -30.625 C 90.28125 -25.363281 89.097656 -20.742188 86.734375 -16.765625 C 84.367188 -12.785156 81.25 -9.453125 77.375 -6.765625 C 73.507812 -4.078125 69.238281 -2.0625 64.5625 -0.71875 C 59.882812 0.625 55.238281 1.296875 50.625 1.296875 Z M 50.625 1.296875 "/></g></g></g><g fill="#ffffff" fill-opacity="1"><g transform="translate(327.429376, 190.742091)"><g><path d="M 80.28125 -88.65625 C 79.851562 -90.8125 79.128906 -92.960938 78.109375 -95.109375 C 77.085938 -97.253906 75.820312 -99.132812 74.3125 -100.75 C 71.09375 -104.082031 66.984375 -106.582031 61.984375 -108.25 C 56.984375 -109.914062 52.117188 -110.75 47.390625 -110.75 C 42.128906 -110.75 36.726562 -109.753906 31.1875 -107.765625 C 25.65625 -105.773438 21.171875 -102.578125 17.734375 -98.171875 C 16.015625 -96.128906 14.773438 -93.867188 14.015625 -91.390625 C 13.265625 -88.921875 12.890625 -86.398438 12.890625 -83.828125 C 12.890625 -78.554688 13.9375 -74.335938 16.03125 -71.171875 C 18.132812 -68.003906 20.957031 -65.585938 24.5 -63.921875 C 28.050781 -62.253906 31.945312 -61.015625 36.1875 -60.203125 C 40.4375 -59.398438 44.65625 -58.785156 48.84375 -58.359375 C 52.925781 -57.921875 56.984375 -57.378906 61.015625 -56.734375 C 65.046875 -56.097656 68.804688 -55.050781 72.296875 -53.59375 C 75.785156 -52.144531 78.765625 -50.128906 81.234375 -47.546875 C 83.710938 -44.972656 85.4375 -41.535156 86.40625 -37.234375 C 86.9375 -34.765625 87.203125 -32.457031 87.203125 -30.3125 C 87.203125 -25.363281 86.046875 -20.925781 83.734375 -17 C 81.429688 -13.082031 78.34375 -9.78125 74.46875 -7.09375 C 70.601562 -4.40625 66.304688 -2.363281 61.578125 -0.96875 C 56.847656 0.425781 52.066406 1.125 47.234375 1.125 C 43.148438 1.125 38.957031 0.535156 34.65625 -0.640625 C 30.351562 -1.828125 26.320312 -3.601562 22.5625 -5.96875 C 18.800781 -8.332031 15.6875 -11.234375 13.21875 -14.671875 C 10.75 -18.109375 9.242188 -22.140625 8.703125 -26.765625 L 8.546875 -28.203125 L 12.09375 -28.53125 L 12.25 -27.078125 C 13 -21.703125 15.226562 -17.160156 18.9375 -13.453125 C 22.644531 -9.753906 27.078125 -6.960938 32.234375 -5.078125 C 37.398438 -3.191406 42.453125 -2.25 47.390625 -2.25 C 53.191406 -2.25 58.859375 -3.347656 64.390625 -5.546875 C 69.929688 -7.753906 74.5 -10.953125 78.09375 -15.140625 C 81.695312 -19.335938 83.5 -24.445312 83.5 -30.46875 C 83.5 -31.320312 83.445312 -32.257812 83.34375 -33.28125 C 83.238281 -34.300781 83.078125 -35.351562 82.859375 -36.4375 C 81.785156 -41.375 79.445312 -45.050781 75.84375 -47.46875 C 72.25 -49.882812 68.003906 -51.601562 63.109375 -52.625 C 58.222656 -53.65625 53.253906 -54.4375 48.203125 -54.96875 C 43.898438 -55.394531 39.570312 -55.984375 35.21875 -56.734375 C 30.863281 -57.492188 26.832031 -58.757812 23.125 -60.53125 C 19.425781 -62.300781 16.363281 -64.828125 13.9375 -68.109375 C 11.519531 -71.390625 10.097656 -75.769531 9.671875 -81.25 C 9.453125 -84.363281 9.800781 -87.640625 10.71875 -91.078125 C 11.632812 -94.515625 13.113281 -97.578125 15.15625 -100.265625 C 18.695312 -104.890625 23.421875 -108.351562 29.328125 -110.65625 C 35.242188 -112.96875 41.375 -114.125 47.71875 -114.125 C 53.300781 -114.125 58.644531 -113.210938 63.75 -111.390625 C 68.851562 -109.566406 73.175781 -106.851562 76.71875 -103.25 C 80.269531 -99.644531 82.585938 -95.050781 83.671875 -89.46875 L 83.984375 -87.53125 L 80.609375 -87.046875 Z M 80.28125 -88.65625 "/></g></g></g><g fill="#ffffff" fill-opacity="1"><g transform="translate(422.376019, 190.742091)"><g><path d="M 73.34375 -3.390625 L 73.34375 0 L 10.484375 0 L 10.484375 -112.84375 L 73.03125 -112.84375 L 73.03125 -109.453125 L 13.859375 -109.453125 L 13.859375 -58.1875 L 71.734375 -58.1875 L 71.734375 -54.640625 L 13.859375 -54.640625 L 13.859375 -3.390625 Z M 73.34375 -3.390625 "/></g></g></g><g fill="#ffffff" fill-opacity="1"><g transform="translate(503.137089, 190.742091)"><g/></g></g><g fill="#ffffff" fill-opacity="1"><g transform="translate(546.822187, 190.742091)"><g><path d="M 6.28125 -56.421875 C 6.28125 -64.367188 7.835938 -71.863281 10.953125 -78.90625 C 14.078125 -85.945312 18.21875 -92.097656 23.375 -97.359375 C 28.53125 -102.734375 34.597656 -106.925781 41.578125 -109.9375 C 48.566406 -112.945312 55.988281 -114.453125 63.84375 -114.453125 C 71.894531 -114.453125 79.414062 -112.945312 86.40625 -109.9375 C 93.394531 -106.925781 99.46875 -102.734375 104.625 -97.359375 C 109.78125 -92.097656 113.890625 -85.945312 116.953125 -78.90625 C 120.015625 -71.863281 121.546875 -64.367188 121.546875 -56.421875 C 121.546875 -48.460938 120.015625 -40.988281 116.953125 -34 C 113.890625 -27.019531 109.78125 -20.84375 104.625 -15.46875 C 99.46875 -10.207031 93.394531 -6.046875 86.40625 -2.984375 C 79.414062 0.078125 71.894531 1.609375 63.84375 1.609375 C 55.988281 1.609375 48.566406 0.078125 41.578125 -2.984375 C 34.597656 -6.046875 28.53125 -10.207031 23.375 -15.46875 C 18.21875 -20.84375 14.078125 -27.019531 10.953125 -34 C 7.835938 -40.988281 6.28125 -48.460938 6.28125 -56.421875 Z M 118 -56.421875 C 118 -63.941406 116.570312 -70.976562 113.71875 -77.53125 C 110.875 -84.09375 107.035156 -89.84375 102.203125 -94.78125 C 97.367188 -99.726562 91.644531 -103.648438 85.03125 -106.546875 C 78.425781 -109.453125 71.363281 -110.90625 63.84375 -110.90625 C 56.425781 -110.90625 49.4375 -109.453125 42.875 -106.546875 C 36.320312 -103.648438 30.570312 -99.726562 25.625 -94.78125 C 20.894531 -89.84375 17.078125 -84.09375 14.171875 -77.53125 C 11.273438 -70.976562 9.828125 -63.941406 9.828125 -56.421875 C 9.828125 -48.898438 11.273438 -41.859375 14.171875 -35.296875 C 17.078125 -28.742188 20.894531 -23 25.625 -18.0625 C 30.570312 -13.113281 36.320312 -9.1875 42.875 -6.28125 C 49.4375 -3.382812 56.425781 -1.9375 63.84375 -1.9375 C 71.363281 -1.9375 78.425781 -3.382812 85.03125 -6.28125 C 91.644531 -9.1875 97.367188 -13.113281 102.203125 -18.0625 C 107.035156 -23 110.875 -28.742188 113.71875 -35.296875 C 116.570312 -41.859375 118 -48.898438 118 -56.421875 Z M 118 -56.421875 "/></g></g></g><g fill="#ffffff" fill-opacity="1"><g transform="translate(675.459558, 190.742091)"><g><path d="M 10.484375 0 L 10.484375 -112.84375 L 71.578125 -112.84375 L 71.578125 -109.453125 L 13.703125 -109.453125 L 13.703125 -58.1875 L 64.96875 -58.1875 L 64.96875 -54.640625 L 13.703125 -54.640625 L 13.703125 0 Z M 10.484375 0 "/></g></g></g><g transform="matrix(1, 0, 0, 1, 776, 0.000000000000056843)"><g clip-path="url(#061cfe1c0d)"><g fill="#ffffff" fill-opacity="1"><g transform="translate(0.727248, 195.798844)"><g><path d="M 131.21875 0 L 111.03125 0 L 111.03125 -15.03125 C 108.425781 -11.050781 104.859375 -7.820312 100.328125 -5.34375 C 95.796875 -2.875 90.988281 -1.09375 85.90625 0 C 80.820312 1.09375 75.945312 1.710938 71.28125 1.859375 C 58.363281 1.859375 47.441406 -0.851562 38.515625 -6.28125 C 29.585938 -11.707031 22.820312 -18.847656 18.21875 -27.703125 C 13.625 -36.566406 11.328125 -46.078125 11.328125 -56.234375 C 11.328125 -66.265625 13.660156 -75.601562 18.328125 -84.25 C 23.003906 -92.90625 29.804688 -99.910156 38.734375 -105.265625 C 47.660156 -110.617188 58.367188 -113.296875 70.859375 -113.296875 C 75.535156 -113.296875 80.34375 -112.847656 85.28125 -111.953125 C 90.226562 -111.066406 94.96875 -109.421875 99.5 -107.015625 C 104.03125 -104.609375 107.941406 -101.140625 111.234375 -96.609375 L 111.03125 -111.453125 L 131.21875 -111.453125 Z M 111.03125 -55.828125 C 111.03125 -64.753906 109.003906 -72.132812 104.953125 -77.96875 C 100.898438 -83.800781 95.785156 -88.191406 89.609375 -91.140625 C 83.429688 -94.097656 77.179688 -95.578125 70.859375 -95.578125 C 62.753906 -95.578125 55.75 -93.828125 49.84375 -90.328125 C 43.945312 -86.828125 39.414062 -82.125 36.25 -76.21875 C 33.09375 -70.3125 31.515625 -63.648438 31.515625 -56.234375 C 31.515625 -49.234375 33.09375 -42.675781 36.25 -36.5625 C 39.414062 -30.445312 43.914062 -25.5 49.75 -21.71875 C 55.582031 -17.945312 62.617188 -16.0625 70.859375 -16.0625 C 77.046875 -16.0625 83.226562 -17.503906 89.40625 -20.390625 C 95.582031 -23.273438 100.726562 -27.671875 104.84375 -33.578125 C 108.96875 -39.484375 111.03125 -46.898438 111.03125 -55.828125 Z M 111.03125 -55.828125 "/></g></g></g><g fill="#ffffff" fill-opacity="1"><g transform="translate(145.336086, 195.798844)"><g><path d="M 15.453125 0 L 15.453125 -144.203125 L 35.640625 -144.203125 L 35.640625 0 Z M 15.453125 0 "/></g></g></g><g fill="#ffffff" fill-opacity="1"><g transform="translate(196.422967, 195.798844)"><g><path d="M 41.8125 -111.453125 L 66.328125 -111.453125 L 66.328125 -95.375 L 41.8125 -95.375 L 41.8125 -32.546875 C 41.8125 -25.953125 43.320312 -21.59375 46.34375 -19.46875 C 49.363281 -17.34375 53.414062 -16.28125 58.5 -16.28125 C 59.738281 -16.28125 61.078125 -16.3125 62.515625 -16.375 C 63.960938 -16.445312 65.441406 -16.550781 66.953125 -16.6875 L 66.953125 0.203125 C 65.304688 0.335938 63.726562 0.441406 62.21875 0.515625 C 60.707031 0.585938 59.195312 0.625 57.6875 0.625 C 50.40625 0.625 44.050781 -0.367188 38.625 -2.359375 C 33.195312 -4.359375 29.003906 -7.757812 26.046875 -12.5625 C 23.097656 -17.375 21.625 -24.101562 21.625 -32.75 L 21.625 -95.375 L 4.9375 -95.375 L 4.9375 -111.453125 L 21.625 -111.453125 L 21.625 -132.25 L 41.8125 -136.171875 Z M 41.8125 -111.453125 "/></g></g></g><g fill="#ffffff" fill-opacity="1"><g transform="translate(267.285425, 195.798844)"><g><path d="M 35.4375 -97.640625 C 39.414062 -103.273438 44.117188 -107.363281 49.546875 -109.90625 C 54.972656 -112.445312 60.773438 -113.71875 66.953125 -113.71875 C 69.148438 -113.71875 71.347656 -113.578125 73.546875 -113.296875 C 75.742188 -113.023438 77.941406 -112.613281 80.140625 -112.0625 L 80.140625 -94.34375 C 76.835938 -95.3125 73.398438 -95.796875 69.828125 -95.796875 C 63.648438 -95.796875 57.953125 -94.25 52.734375 -91.15625 C 47.515625 -88.0625 43.328125 -83.867188 40.171875 -78.578125 C 37.015625 -73.296875 35.4375 -67.222656 35.4375 -60.359375 L 35.4375 0 L 15.453125 0 L 15.453125 -111.234375 L 35.4375 -111.234375 Z M 35.4375 -97.640625 "/></g></g></g><g fill="#ffffff" fill-opacity="1"><g transform="translate(347.417529, 195.798844)"><g><path d="M 131.21875 0 L 111.03125 0 L 111.03125 -15.03125 C 108.425781 -11.050781 104.859375 -7.820312 100.328125 -5.34375 C 95.796875 -2.875 90.988281 -1.09375 85.90625 0 C 80.820312 1.09375 75.945312 1.710938 71.28125 1.859375 C 58.363281 1.859375 47.441406 -0.851562 38.515625 -6.28125 C 29.585938 -11.707031 22.820312 -18.847656 18.21875 -27.703125 C 13.625 -36.566406 11.328125 -46.078125 11.328125 -56.234375 C 11.328125 -66.265625 13.660156 -75.601562 18.328125 -84.25 C 23.003906 -92.90625 29.804688 -99.910156 38.734375 -105.265625 C 47.660156 -110.617188 58.367188 -113.296875 70.859375 -113.296875 C 75.535156 -113.296875 80.34375 -112.847656 85.28125 -111.953125 C 90.226562 -111.066406 94.96875 -109.421875 99.5 -107.015625 C 104.03125 -104.609375 107.941406 -101.140625 111.234375 -96.609375 L 111.03125 -111.453125 L 131.21875 -111.453125 Z M 111.03125 -55.828125 C 111.03125 -64.753906 109.003906 -72.132812 104.953125 -77.96875 C 100.898438 -83.800781 95.785156 -88.191406 89.609375 -91.140625 C 83.429688 -94.097656 77.179688 -95.578125 70.859375 -95.578125 C 62.753906 -95.578125 55.75 -93.828125 49.84375 -90.328125 C 43.945312 -86.828125 39.414062 -82.125 36.25 -76.21875 C 33.09375 -70.3125 31.515625 -63.648438 31.515625 -56.234375 C 31.515625 -49.234375 33.09375 -42.675781 36.25 -36.5625 C 39.414062 -30.445312 43.914062 -25.5 49.75 -21.71875 C 55.582031 -17.945312 62.617188 -16.0625 70.859375 -16.0625 C 77.046875 -16.0625 83.226562 -17.503906 89.40625 -20.390625 C 95.582031 -23.273438 100.726562 -27.671875 104.84375 -33.578125 C 108.96875 -39.484375 111.03125 -46.898438 111.03125 -55.828125 Z M 111.03125 -55.828125 "/></g></g></g></g></g><g clip-path="url(#7d3cafb7dc)"><path fill="#ffffff" d="M 1269.121094 56.464844 C 1263.679688 56.464844 1259.25 60.898438 1259.25 66.335938 C 1259.25 71.777344 1263.679688 76.207031 1269.121094 76.207031 C 1274.558594 76.207031 1278.992188 71.777344 1278.992188 66.335938 C 1278.992188 60.898438 1274.558594 56.464844 1269.121094 56.464844 Z M 1269.121094 58.441406 C 1273.492188 58.441406 1277.015625 61.964844 1277.015625 66.335938 C 1277.015625 70.710938 1273.492188 74.234375 1269.121094 74.234375 C 1264.746094 74.234375 1261.222656 70.710938 1261.222656 66.335938 C 1261.222656 61.964844 1264.746094 58.441406 1269.121094 58.441406 Z M 1266.15625 62.390625 L 1266.15625 70.285156 L 1267.785156 70.285156 L 1267.785156 67.394531 L 1269.082031 67.394531 L 1270.5625 70.285156 L 1272.308594 70.285156 L 1272.308594 70.210938 L 1270.601562 66.984375 C 1270.816406 66.886719 1271.011719 66.769531 1271.1875 66.636719 C 1271.359375 66.503906 1271.507812 66.34375 1271.632812 66.164062 C 1271.753906 65.988281 1271.847656 65.78125 1271.914062 65.550781 C 1271.976562 65.324219 1272.011719 65.066406 1272.011719 64.777344 C 1272.011719 64.386719 1271.945312 64.039062 1271.8125 63.746094 C 1271.675781 63.449219 1271.484375 63.199219 1271.238281 63 C 1270.988281 62.796875 1270.679688 62.648438 1270.320312 62.542969 C 1269.957031 62.441406 1269.546875 62.390625 1269.09375 62.390625 Z M 1267.789062 63.707031 L 1269.09375 63.707031 C 1269.53125 63.707031 1269.855469 63.8125 1270.066406 64.027344 C 1270.28125 64.238281 1270.382812 64.53125 1270.382812 64.90625 C 1270.382812 65.082031 1270.359375 65.242188 1270.304688 65.386719 C 1270.25 65.527344 1270.167969 65.648438 1270.058594 65.753906 C 1269.953125 65.855469 1269.820312 65.9375 1269.660156 65.992188 C 1269.5 66.046875 1269.3125 66.078125 1269.097656 66.078125 L 1267.789062 66.078125 Z M 1267.789062 63.707031 " fill-opacity="1" fill-rule="nonzero"/></g><g fill="#ffffff" fill-opacity="1"><g transform="translate(429.736574, 321.649451)"><g><path d="M 17.015625 0.421875 C 14.472656 0.421875 12.265625 -0.0195312 10.390625 -0.90625 C 8.515625 -1.800781 6.960938 -3.019531 5.734375 -4.5625 C 4.503906 -6.113281 3.59375 -7.882812 3 -9.875 C 2.40625 -11.863281 2.109375 -13.957031 2.109375 -16.15625 C 2.109375 -18.363281 2.40625 -20.453125 3 -22.421875 C 3.59375 -24.398438 4.503906 -26.164062 5.734375 -27.71875 C 6.960938 -29.269531 8.515625 -30.488281 10.390625 -31.375 C 12.265625 -32.257812 14.472656 -32.703125 17.015625 -32.703125 C 19.410156 -32.703125 21.515625 -32.304688 23.328125 -31.515625 C 25.148438 -30.734375 26.625 -29.632812 27.75 -28.21875 C 28.882812 -26.8125 29.609375 -25.191406 29.921875 -23.359375 L 25.6875 -23.359375 C 25.289062 -25.160156 24.316406 -26.585938 22.765625 -27.640625 C 21.210938 -28.703125 19.265625 -29.234375 16.921875 -29.234375 C 14.523438 -29.234375 12.515625 -28.671875 10.890625 -27.546875 C 9.273438 -26.421875 8.054688 -24.867188 7.234375 -22.890625 C 6.421875 -20.910156 6.015625 -18.664062 6.015625 -16.15625 C 6.015625 -13.644531 6.421875 -11.394531 7.234375 -9.40625 C 8.054688 -7.425781 9.273438 -5.867188 10.890625 -4.734375 C 12.515625 -3.609375 14.523438 -3.046875 16.921875 -3.046875 C 19.265625 -3.046875 21.210938 -3.609375 22.765625 -4.734375 C 24.316406 -5.867188 25.289062 -7.550781 25.6875 -9.78125 L 29.921875 -9.78125 C 29.410156 -6.644531 28.03125 -4.160156 25.78125 -2.328125 C 23.539062 -0.492188 20.617188 0.421875 17.015625 0.421875 Z M 17.015625 0.421875 "/></g></g></g><g fill="#ffffff" fill-opacity="1"><g transform="translate(462.227121, 321.649451)"><g><path d="M 13.453125 0.421875 C 11.222656 0.421875 9.25 -0.0976562 7.53125 -1.140625 C 5.8125 -2.179688 4.460938 -3.625 3.484375 -5.46875 C 2.515625 -7.320312 2.03125 -9.4375 2.03125 -11.8125 C 2.03125 -14.125 2.515625 -16.179688 3.484375 -17.984375 C 4.460938 -19.785156 5.8125 -21.207031 7.53125 -22.25 C 9.25 -23.300781 11.222656 -23.828125 13.453125 -23.828125 C 15.679688 -23.828125 17.660156 -23.300781 19.390625 -22.25 C 21.128906 -21.207031 22.492188 -19.785156 23.484375 -17.984375 C 24.472656 -16.179688 24.96875 -14.125 24.96875 -11.8125 C 24.96875 -9.46875 24.476562 -7.367188 23.5 -5.515625 C 22.53125 -3.671875 21.175781 -2.21875 19.4375 -1.15625 C 17.707031 -0.101562 15.710938 0.421875 13.453125 0.421875 Z M 13.453125 -2.75 C 14.953125 -2.75 16.289062 -3.144531 17.46875 -3.9375 C 18.65625 -4.726562 19.59375 -5.804688 20.28125 -7.171875 C 20.976562 -8.535156 21.328125 -10.082031 21.328125 -11.8125 C 21.328125 -13.46875 20.988281 -14.96875 20.3125 -16.3125 C 19.632812 -17.65625 18.703125 -18.710938 17.515625 -19.484375 C 16.328125 -20.265625 14.972656 -20.65625 13.453125 -20.65625 C 11.960938 -20.65625 10.625 -20.269531 9.4375 -19.5 C 8.25 -18.738281 7.316406 -17.6875 6.640625 -16.34375 C 5.960938 -15.007812 5.625 -13.5 5.625 -11.8125 C 5.625 -10.0625 5.96875 -8.5 6.65625 -7.125 C 7.351562 -5.757812 8.289062 -4.6875 9.46875 -3.90625 C 10.65625 -3.132812 11.984375 -2.75 13.453125 -2.75 Z M 13.453125 -2.75 "/></g></g></g><g fill="#ffffff" fill-opacity="1"><g transform="translate(490.106405, 321.649451)"><g><path d="M 6.59375 0 L 3 0 L 3 -23.40625 L 6.59375 -23.40625 L 6.59375 -19.765625 C 7.78125 -21.285156 8.914062 -22.34375 10 -22.9375 C 11.09375 -23.53125 12.273438 -23.828125 13.546875 -23.828125 C 15.378906 -23.828125 16.84375 -23.476562 17.9375 -22.78125 C 19.039062 -22.09375 19.875 -21.210938 20.4375 -20.140625 C 21 -19.097656 21.320312 -18.007812 21.40625 -16.875 C 21.488281 -15.75 21.53125 -14.820312 21.53125 -14.09375 L 21.53125 0 L 17.9375 0 L 17.9375 -14.09375 C 17.9375 -16.570312 17.488281 -18.320312 16.59375 -19.34375 C 15.800781 -20.21875 14.597656 -20.65625 12.984375 -20.65625 C 12.023438 -20.65625 11.191406 -20.5 10.484375 -20.1875 C 9.785156 -19.875 9.195312 -19.445312 8.71875 -18.90625 C 7.957031 -18.125 7.410156 -17.039062 7.078125 -15.65625 C 6.753906 -14.269531 6.59375 -12.378906 6.59375 -9.984375 Z M 6.59375 0 "/></g></g></g><g fill="#ffffff" fill-opacity="1"><g transform="translate(515.320453, 321.649451)"><g><path d="M 6.59375 0 L 3 0 L 3 -23.40625 L 6.59375 -23.40625 L 6.59375 -19.765625 C 7.78125 -21.285156 8.914062 -22.34375 10 -22.9375 C 11.09375 -23.53125 12.273438 -23.828125 13.546875 -23.828125 C 15.378906 -23.828125 16.84375 -23.476562 17.9375 -22.78125 C 19.039062 -22.09375 19.875 -21.210938 20.4375 -20.140625 C 21 -19.097656 21.320312 -18.007812 21.40625 -16.875 C 21.488281 -15.75 21.53125 -14.820312 21.53125 -14.09375 L 21.53125 0 L 17.9375 0 L 17.9375 -14.09375 C 17.9375 -16.570312 17.488281 -18.320312 16.59375 -19.34375 C 15.800781 -20.21875 14.597656 -20.65625 12.984375 -20.65625 C 12.023438 -20.65625 11.191406 -20.5 10.484375 -20.1875 C 9.785156 -19.875 9.195312 -19.445312 8.71875 -18.90625 C 7.957031 -18.125 7.410156 -17.039062 7.078125 -15.65625 C 6.753906 -14.269531 6.59375 -12.378906 6.59375 -9.984375 Z M 6.59375 0 "/></g></g></g><g fill="#ffffff" fill-opacity="1"><g transform="translate(540.534501, 321.649451)"><g><path d="M 13.40625 0.421875 C 11.1875 0.421875 9.210938 -0.101562 7.484375 -1.15625 C 5.765625 -2.21875 4.425781 -3.65625 3.46875 -5.46875 C 2.507812 -7.289062 2.03125 -9.347656 2.03125 -11.640625 C 2.03125 -13.753906 2.46875 -15.738281 3.34375 -17.59375 C 4.21875 -19.457031 5.5 -20.960938 7.1875 -22.109375 C 8.882812 -23.253906 10.929688 -23.828125 13.328125 -23.828125 C 15.304688 -23.828125 17.144531 -23.390625 18.84375 -22.515625 C 20.550781 -21.640625 21.941406 -20.335938 23.015625 -18.609375 C 24.085938 -16.890625 24.625 -14.773438 24.625 -12.265625 L 24.625 -11 L 5.578125 -11 C 5.640625 -10.1875 5.796875 -9.410156 6.046875 -8.671875 C 6.640625 -6.867188 7.582031 -5.429688 8.875 -4.359375 C 10.175781 -3.285156 11.675781 -2.75 13.375 -2.75 C 15.144531 -2.75 16.625 -3.21875 17.8125 -4.15625 C 19 -5.101562 19.847656 -6.226562 20.359375 -7.53125 L 24.203125 -7.53125 C 23.722656 -6.0625 23.003906 -4.726562 22.046875 -3.53125 C 21.085938 -2.332031 19.894531 -1.375 18.46875 -0.65625 C 17.039062 0.0625 15.351562 0.421875 13.40625 0.421875 Z M 5.921875 -14.171875 L 20.78125 -14.171875 C 20.75 -14.566406 20.691406 -14.960938 20.609375 -15.359375 C 20.523438 -15.753906 20.410156 -16.117188 20.265625 -16.453125 C 19.648438 -17.804688 18.726562 -18.84375 17.5 -19.5625 C 16.269531 -20.289062 14.90625 -20.65625 13.40625 -20.65625 C 11.851562 -20.65625 10.492188 -20.285156 9.328125 -19.546875 C 8.160156 -18.816406 7.25 -17.785156 6.59375 -16.453125 C 6.425781 -16.085938 6.285156 -15.707031 6.171875 -15.3125 C 6.066406 -14.914062 5.984375 -14.535156 5.921875 -14.171875 Z M 5.921875 -14.171875 "/></g></g></g><g fill="#ffffff" fill-opacity="1"><g transform="translate(567.99073, 321.649451)"><g><path d="M 13.375 0.421875 C 11.175781 0.421875 9.222656 -0.0976562 7.515625 -1.140625 C 5.804688 -2.179688 4.460938 -3.625 3.484375 -5.46875 C 2.515625 -7.320312 2.03125 -9.4375 2.03125 -11.8125 C 2.03125 -14.125 2.507812 -16.179688 3.46875 -17.984375 C 4.425781 -19.785156 5.757812 -21.207031 7.46875 -22.25 C 9.175781 -23.300781 11.144531 -23.828125 13.375 -23.828125 C 16 -23.828125 18.21875 -23.148438 20.03125 -21.796875 C 21.851562 -20.441406 23.03125 -18.632812 23.5625 -16.375 L 19.71875 -16.375 C 19.269531 -17.695312 18.472656 -18.738281 17.328125 -19.5 C 16.179688 -20.269531 14.863281 -20.65625 13.375 -20.65625 C 11.90625 -20.65625 10.582031 -20.269531 9.40625 -19.5 C 8.238281 -18.738281 7.316406 -17.695312 6.640625 -16.375 C 5.960938 -15.050781 5.625 -13.53125 5.625 -11.8125 C 5.625 -10.03125 5.960938 -8.460938 6.640625 -7.109375 C 7.316406 -5.753906 8.238281 -4.6875 9.40625 -3.90625 C 10.582031 -3.132812 11.90625 -2.75 13.375 -2.75 C 15.007812 -2.75 16.410156 -3.1875 17.578125 -4.0625 C 18.753906 -4.9375 19.523438 -6.09375 19.890625 -7.53125 L 23.734375 -7.53125 C 23.222656 -5.050781 22.023438 -3.101562 20.140625 -1.6875 C 18.253906 -0.28125 16 0.421875 13.375 0.421875 Z M 13.375 0.421875 "/></g></g></g><g fill="#ffffff" fill-opacity="1"><g transform="translate(594.304719, 321.649451)"><g><path d="M 13.703125 0 L 10.453125 0 C 9.296875 0 8.300781 -0.160156 7.46875 -0.484375 C 6.632812 -0.804688 6 -1.394531 5.5625 -2.25 C 5.125 -3.113281 4.90625 -4.320312 4.90625 -5.875 L 4.90625 -20.21875 L 1.140625 -20.21875 L 1.140625 -23.40625 L 4.90625 -23.40625 L 4.90625 -32.28125 L 8.5 -32.28125 L 8.5 -23.40625 L 13.75 -23.40625 L 13.75 -20.21875 L 8.5 -20.21875 L 8.5 -6.59375 C 8.5 -5.914062 8.546875 -5.316406 8.640625 -4.796875 C 8.742188 -4.273438 8.992188 -3.875 9.390625 -3.59375 C 9.785156 -3.3125 10.421875 -3.171875 11.296875 -3.171875 L 13.703125 -3.171875 Z M 13.703125 0 "/></g></g></g><g fill="#ffffff" fill-opacity="1"><g transform="translate(610.423139, 321.649451)"><g><path d="M 4.828125 -27.421875 C 4.066406 -27.421875 3.414062 -27.679688 2.875 -28.203125 C 2.34375 -28.722656 2.078125 -29.347656 2.078125 -30.078125 C 2.078125 -30.816406 2.34375 -31.4375 2.875 -31.9375 C 3.414062 -32.445312 4.066406 -32.703125 4.828125 -32.703125 C 5.585938 -32.703125 6.234375 -32.445312 6.765625 -31.9375 C 7.304688 -31.4375 7.578125 -30.816406 7.578125 -30.078125 C 7.578125 -29.347656 7.304688 -28.722656 6.765625 -28.203125 C 6.234375 -27.679688 5.585938 -27.421875 4.828125 -27.421875 Z M 6.59375 0 L 3 0 L 3 -23.40625 L 6.59375 -23.40625 Z M 6.59375 0 "/></g></g></g><g fill="#ffffff" fill-opacity="1"><g transform="translate(620.872655, 321.649451)"><g><path d="M 6.59375 0 L 3 0 L 3 -23.40625 L 6.59375 -23.40625 L 6.59375 -19.765625 C 7.78125 -21.285156 8.914062 -22.34375 10 -22.9375 C 11.09375 -23.53125 12.273438 -23.828125 13.546875 -23.828125 C 15.378906 -23.828125 16.84375 -23.476562 17.9375 -22.78125 C 19.039062 -22.09375 19.875 -21.210938 20.4375 -20.140625 C 21 -19.097656 21.320312 -18.007812 21.40625 -16.875 C 21.488281 -15.75 21.53125 -14.820312 21.53125 -14.09375 L 21.53125 0 L 17.9375 0 L 17.9375 -14.09375 C 17.9375 -16.570312 17.488281 -18.320312 16.59375 -19.34375 C 15.800781 -20.21875 14.597656 -20.65625 12.984375 -20.65625 C 12.023438 -20.65625 11.191406 -20.5 10.484375 -20.1875 C 9.785156 -19.875 9.195312 -19.445312 8.71875 -18.90625 C 7.957031 -18.125 7.410156 -17.039062 7.078125 -15.65625 C 6.753906 -14.269531 6.59375 -12.378906 6.59375 -9.984375 Z M 6.59375 0 "/></g></g></g><g fill="#ffffff" fill-opacity="1"><g transform="translate(646.086702, 321.649451)"><g><path d="M 13.328125 9.3125 C 11.742188 9.3125 10.210938 9.082031 8.734375 8.625 C 7.253906 8.175781 5.984375 7.414062 4.921875 6.34375 C 3.867188 5.269531 3.1875 3.789062 2.875 1.90625 L 6.5625 1.90625 C 6.925781 3.289062 7.65625 4.34375 8.75 5.0625 C 9.851562 5.78125 11.363281 6.140625 13.28125 6.140625 C 15.738281 6.140625 17.515625 5.582031 18.609375 4.46875 C 19.710938 3.351562 20.265625 1.820312 20.265625 -0.125 L 20.265625 -3.640625 C 19.054688 -2.085938 17.875 -1.019531 16.71875 -0.4375 C 15.5625 0.132812 14.191406 0.421875 12.609375 0.421875 C 10.523438 0.421875 8.695312 -0.0820312 7.125 -1.09375 C 5.5625 -2.113281 4.347656 -3.53125 3.484375 -5.34375 C 2.628906 -7.164062 2.203125 -9.25 2.203125 -11.59375 C 2.203125 -14.019531 2.628906 -16.148438 3.484375 -17.984375 C 4.347656 -19.816406 5.554688 -21.25 7.109375 -22.28125 C 8.660156 -23.3125 10.476562 -23.828125 12.5625 -23.828125 C 14.195312 -23.828125 15.59375 -23.53125 16.75 -22.9375 C 17.90625 -22.34375 19.078125 -21.285156 20.265625 -19.765625 L 20.265625 -23.40625 L 23.859375 -23.40625 L 23.859375 -0.796875 C 23.859375 1.734375 23.40625 3.734375 22.5 5.203125 C 21.601562 6.671875 20.363281 7.722656 18.78125 8.359375 C 17.207031 8.992188 15.390625 9.3125 13.328125 9.3125 Z M 12.953125 -2.75 C 14.410156 -2.75 15.695312 -3.132812 16.8125 -3.90625 C 17.925781 -4.6875 18.800781 -5.753906 19.4375 -7.109375 C 20.070312 -8.460938 20.390625 -10 20.390625 -11.71875 C 20.390625 -13.4375 20.066406 -14.96875 19.421875 -16.3125 C 18.773438 -17.65625 17.894531 -18.710938 16.78125 -19.484375 C 15.664062 -20.265625 14.390625 -20.65625 12.953125 -20.65625 C 11.484375 -20.65625 10.210938 -20.257812 9.140625 -19.46875 C 8.066406 -18.675781 7.238281 -17.609375 6.65625 -16.265625 C 6.082031 -14.929688 5.796875 -13.414062 5.796875 -11.71875 C 5.796875 -10.03125 6.082031 -8.507812 6.65625 -7.15625 C 7.238281 -5.800781 8.066406 -4.726562 9.140625 -3.9375 C 10.210938 -3.144531 11.484375 -2.75 12.953125 -2.75 Z M 12.953125 -2.75 "/></g></g></g><g fill="#ffffff" fill-opacity="1"><g transform="translate(673.796752, 321.649451)"><g/></g></g><g fill="#ffffff" fill-opacity="1"><g transform="translate(686.488462, 321.649451)"><g><path d="M 4.53125 0 L 0.59375 0 L 12.484375 -32.28125 L 16.875 -32.28125 L 28.765625 0 L 24.84375 0 L 22 -7.90625 L 7.359375 -7.90625 Z M 14.6875 -28.3125 L 8.671875 -11.375 L 20.6875 -11.375 Z M 14.6875 -28.3125 "/></g></g></g><g fill="#ffffff" fill-opacity="1"><g transform="translate(716.69454, 321.649451)"><g><path d="M 12.4375 0.421875 C 9.445312 0.421875 7.023438 -0.285156 5.171875 -1.703125 C 3.328125 -3.128906 2.207031 -5.070312 1.8125 -7.53125 L 5.578125 -7.53125 C 5.890625 -6.125 6.59375 -4.972656 7.6875 -4.078125 C 8.789062 -3.191406 10.390625 -2.75 12.484375 -2.75 C 14.066406 -2.75 15.359375 -3.050781 16.359375 -3.65625 C 17.359375 -4.257812 17.859375 -5.15625 17.859375 -6.34375 C 17.859375 -7.332031 17.546875 -8.09375 16.921875 -8.625 C 16.304688 -9.164062 15.492188 -9.578125 14.484375 -9.859375 C 13.484375 -10.140625 12.40625 -10.394531 11.25 -10.625 C 10.238281 -10.820312 9.234375 -11.046875 8.234375 -11.296875 C 7.234375 -11.546875 6.320312 -11.894531 5.5 -12.34375 C 4.6875 -12.800781 4.03125 -13.410156 3.53125 -14.171875 C 3.039062 -14.929688 2.796875 -15.90625 2.796875 -17.09375 C 2.796875 -18.5625 3.164062 -19.796875 3.90625 -20.796875 C 4.65625 -21.796875 5.675781 -22.550781 6.96875 -23.0625 C 8.269531 -23.570312 9.710938 -23.828125 11.296875 -23.828125 C 13.835938 -23.828125 15.953125 -23.171875 17.640625 -21.859375 C 19.335938 -20.546875 20.382812 -18.71875 20.78125 -16.375 L 17.4375 -16.375 C 17.0625 -17.875 16.332031 -18.960938 15.25 -19.640625 C 14.164062 -20.316406 12.847656 -20.65625 11.296875 -20.65625 C 9.742188 -20.65625 8.535156 -20.363281 7.671875 -19.78125 C 6.816406 -19.195312 6.390625 -18.398438 6.390625 -17.390625 C 6.390625 -16.566406 6.675781 -15.921875 7.25 -15.453125 C 7.832031 -14.992188 8.585938 -14.644531 9.515625 -14.40625 C 10.453125 -14.164062 11.457031 -13.929688 12.53125 -13.703125 C 13.570312 -13.503906 14.617188 -13.269531 15.671875 -13 C 16.734375 -12.738281 17.703125 -12.367188 18.578125 -11.890625 C 19.453125 -11.410156 20.148438 -10.757812 20.671875 -9.9375 C 21.191406 -9.125 21.453125 -8.054688 21.453125 -6.734375 C 21.453125 -4.585938 20.664062 -2.859375 19.09375 -1.546875 C 17.53125 -0.234375 15.3125 0.421875 12.4375 0.421875 Z M 12.4375 0.421875 "/></g></g></g><g fill="#ffffff" fill-opacity="1"><g transform="translate(741.104778, 321.649451)"><g><path d="M 12.4375 0.421875 C 9.445312 0.421875 7.023438 -0.285156 5.171875 -1.703125 C 3.328125 -3.128906 2.207031 -5.070312 1.8125 -7.53125 L 5.578125 -7.53125 C 5.890625 -6.125 6.59375 -4.972656 7.6875 -4.078125 C 8.789062 -3.191406 10.390625 -2.75 12.484375 -2.75 C 14.066406 -2.75 15.359375 -3.050781 16.359375 -3.65625 C 17.359375 -4.257812 17.859375 -5.15625 17.859375 -6.34375 C 17.859375 -7.332031 17.546875 -8.09375 16.921875 -8.625 C 16.304688 -9.164062 15.492188 -9.578125 14.484375 -9.859375 C 13.484375 -10.140625 12.40625 -10.394531 11.25 -10.625 C 10.238281 -10.820312 9.234375 -11.046875 8.234375 -11.296875 C 7.234375 -11.546875 6.320312 -11.894531 5.5 -12.34375 C 4.6875 -12.800781 4.03125 -13.410156 3.53125 -14.171875 C 3.039062 -14.929688 2.796875 -15.90625 2.796875 -17.09375 C 2.796875 -18.5625 3.164062 -19.796875 3.90625 -20.796875 C 4.65625 -21.796875 5.675781 -22.550781 6.96875 -23.0625 C 8.269531 -23.570312 9.710938 -23.828125 11.296875 -23.828125 C 13.835938 -23.828125 15.953125 -23.171875 17.640625 -21.859375 C 19.335938 -20.546875 20.382812 -18.71875 20.78125 -16.375 L 17.4375 -16.375 C 17.0625 -17.875 16.332031 -18.960938 15.25 -19.640625 C 14.164062 -20.316406 12.847656 -20.65625 11.296875 -20.65625 C 9.742188 -20.65625 8.535156 -20.363281 7.671875 -19.78125 C 6.816406 -19.195312 6.390625 -18.398438 6.390625 -17.390625 C 6.390625 -16.566406 6.675781 -15.921875 7.25 -15.453125 C 7.832031 -14.992188 8.585938 -14.644531 9.515625 -14.40625 C 10.453125 -14.164062 11.457031 -13.929688 12.53125 -13.703125 C 13.570312 -13.503906 14.617188 -13.269531 15.671875 -13 C 16.734375 -12.738281 17.703125 -12.367188 18.578125 -11.890625 C 19.453125 -11.410156 20.148438 -10.757812 20.671875 -9.9375 C 21.191406 -9.125 21.453125 -8.054688 21.453125 -6.734375 C 21.453125 -4.585938 20.664062 -2.859375 19.09375 -1.546875 C 17.53125 -0.234375 15.3125 0.421875 12.4375 0.421875 Z M 12.4375 0.421875 "/></g></g></g><g fill="#ffffff" fill-opacity="1"><g transform="translate(765.515015, 321.649451)"><g><path d="M 13.40625 0.421875 C 11.1875 0.421875 9.210938 -0.101562 7.484375 -1.15625 C 5.765625 -2.21875 4.425781 -3.65625 3.46875 -5.46875 C 2.507812 -7.289062 2.03125 -9.347656 2.03125 -11.640625 C 2.03125 -13.753906 2.46875 -15.738281 3.34375 -17.59375 C 4.21875 -19.457031 5.5 -20.960938 7.1875 -22.109375 C 8.882812 -23.253906 10.929688 -23.828125 13.328125 -23.828125 C 15.304688 -23.828125 17.144531 -23.390625 18.84375 -22.515625 C 20.550781 -21.640625 21.941406 -20.335938 23.015625 -18.609375 C 24.085938 -16.890625 24.625 -14.773438 24.625 -12.265625 L 24.625 -11 L 5.578125 -11 C 5.640625 -10.1875 5.796875 -9.410156 6.046875 -8.671875 C 6.640625 -6.867188 7.582031 -5.429688 8.875 -4.359375 C 10.175781 -3.285156 11.675781 -2.75 13.375 -2.75 C 15.144531 -2.75 16.625 -3.21875 17.8125 -4.15625 C 19 -5.101562 19.847656 -6.226562 20.359375 -7.53125 L 24.203125 -7.53125 C 23.722656 -6.0625 23.003906 -4.726562 22.046875 -3.53125 C 21.085938 -2.332031 19.894531 -1.375 18.46875 -0.65625 C 17.039062 0.0625 15.351562 0.421875 13.40625 0.421875 Z M 5.921875 -14.171875 L 20.78125 -14.171875 C 20.75 -14.566406 20.691406 -14.960938 20.609375 -15.359375 C 20.523438 -15.753906 20.410156 -16.117188 20.265625 -16.453125 C 19.648438 -17.804688 18.726562 -18.84375 17.5 -19.5625 C 16.269531 -20.289062 14.90625 -20.65625 13.40625 -20.65625 C 11.851562 -20.65625 10.492188 -20.285156 9.328125 -19.546875 C 8.160156 -18.816406 7.25 -17.785156 6.59375 -16.453125 C 6.425781 -16.085938 6.285156 -15.707031 6.171875 -15.3125 C 6.066406 -14.914062 5.984375 -14.535156 5.921875 -14.171875 Z M 5.921875 -14.171875 "/></g></g></g><g fill="#ffffff" fill-opacity="1"><g transform="translate(792.971245, 321.649451)"><g><path d="M 13.703125 0 L 10.453125 0 C 9.296875 0 8.300781 -0.160156 7.46875 -0.484375 C 6.632812 -0.804688 6 -1.394531 5.5625 -2.25 C 5.125 -3.113281 4.90625 -4.320312 4.90625 -5.875 L 4.90625 -20.21875 L 1.140625 -20.21875 L 1.140625 -23.40625 L 4.90625 -23.40625 L 4.90625 -32.28125 L 8.5 -32.28125 L 8.5 -23.40625 L 13.75 -23.40625 L 13.75 -20.21875 L 8.5 -20.21875 L 8.5 -6.59375 C 8.5 -5.914062 8.546875 -5.316406 8.640625 -4.796875 C 8.742188 -4.273438 8.992188 -3.875 9.390625 -3.59375 C 9.785156 -3.3125 10.421875 -3.171875 11.296875 -3.171875 L 13.703125 -3.171875 Z M 13.703125 0 "/></g></g></g><g fill="#ffffff" fill-opacity="1"><g transform="translate(809.089691, 321.649451)"><g><path d="M 12.4375 0.421875 C 9.445312 0.421875 7.023438 -0.285156 5.171875 -1.703125 C 3.328125 -3.128906 2.207031 -5.070312 1.8125 -7.53125 L 5.578125 -7.53125 C 5.890625 -6.125 6.59375 -4.972656 7.6875 -4.078125 C 8.789062 -3.191406 10.390625 -2.75 12.484375 -2.75 C 14.066406 -2.75 15.359375 -3.050781 16.359375 -3.65625 C 17.359375 -4.257812 17.859375 -5.15625 17.859375 -6.34375 C 17.859375 -7.332031 17.546875 -8.09375 16.921875 -8.625 C 16.304688 -9.164062 15.492188 -9.578125 14.484375 -9.859375 C 13.484375 -10.140625 12.40625 -10.394531 11.25 -10.625 C 10.238281 -10.820312 9.234375 -11.046875 8.234375 -11.296875 C 7.234375 -11.546875 6.320312 -11.894531 5.5 -12.34375 C 4.6875 -12.800781 4.03125 -13.410156 3.53125 -14.171875 C 3.039062 -14.929688 2.796875 -15.90625 2.796875 -17.09375 C 2.796875 -18.5625 3.164062 -19.796875 3.90625 -20.796875 C 4.65625 -21.796875 5.675781 -22.550781 6.96875 -23.0625 C 8.269531 -23.570312 9.710938 -23.828125 11.296875 -23.828125 C 13.835938 -23.828125 15.953125 -23.171875 17.640625 -21.859375 C 19.335938 -20.546875 20.382812 -18.71875 20.78125 -16.375 L 17.4375 -16.375 C 17.0625 -17.875 16.332031 -18.960938 15.25 -19.640625 C 14.164062 -20.316406 12.847656 -20.65625 11.296875 -20.65625 C 9.742188 -20.65625 8.535156 -20.363281 7.671875 -19.78125 C 6.816406 -19.195312 6.390625 -18.398438 6.390625 -17.390625 C 6.390625 -16.566406 6.675781 -15.921875 7.25 -15.453125 C 7.832031 -14.992188 8.585938 -14.644531 9.515625 -14.40625 C 10.453125 -14.164062 11.457031 -13.929688 12.53125 -13.703125 C 13.570312 -13.503906 14.617188 -13.269531 15.671875 -13 C 16.734375 -12.738281 17.703125 -12.367188 18.578125 -11.890625 C 19.453125 -11.410156 20.148438 -10.757812 20.671875 -9.9375 C 21.191406 -9.125 21.453125 -8.054688 21.453125 -6.734375 C 21.453125 -4.585938 20.664062 -2.859375 19.09375 -1.546875 C 17.53125 -0.234375 15.3125 0.421875 12.4375 0.421875 Z M 12.4375 0.421875 "/></g></g></g></g></g></svg>