<svg xmlns="http://www.w3.org/2000/svg" xmlns:xlink="http://www.w3.org/1999/xlink" width="1920" zoomAndPan="magnify" viewBox="0 0 1440 809.999993" height="1080" preserveAspectRatio="xMidYMid meet" version="1.0"><defs><g/><clipPath id="17c8ebcc9d"><path d="M 838 0.679688 L 1371 0.679688 L 1371 269 L 838 269 Z M 838 0.679688 " clip-rule="nonzero"/></clipPath><clipPath id="cbd1fbb739"><rect x="0" width="533" y="0" height="269"/></clipPath><clipPath id="4714c3d21e"><path d="M 1359.984375 61.792969 L 1381.441406 61.792969 L 1381.441406 83.257812 L 1359.984375 83.257812 Z M 1359.984375 61.792969 " clip-rule="nonzero"/></clipPath><clipPath id="bf63c10448"><rect x="0" width="1382" y="0" height="333"/></clipPath></defs><g transform="matrix(1, 0, 0, 1, 30, 229)"><g clip-path="url(#bf63c10448)"><g fill="#ffffff" fill-opacity="1"><g transform="translate(0.956991, 206.823892)"><g><path d="M 89.671875 -63.546875 L 89.671875 -121.875 L 93.5 -121.875 L 93.5 0 L 89.671875 0 L 89.671875 -59.890625 L 14.96875 -59.890625 L 14.96875 0 L 11.3125 0 L 11.3125 -121.875 L 14.96875 -121.875 L 14.96875 -63.546875 Z M 89.671875 -63.546875 "/></g></g></g><g fill="#ffffff" fill-opacity="1"><g transform="translate(105.945771, 206.823892)"><g><path d="M 6.796875 -60.9375 C 6.796875 -69.53125 8.476562 -77.625 11.84375 -85.21875 C 15.207031 -92.820312 19.675781 -99.46875 25.25 -105.15625 C 30.820312 -110.96875 37.378906 -115.5 44.921875 -118.75 C 52.460938 -122 60.472656 -123.625 68.953125 -123.625 C 77.648438 -123.625 85.769531 -122 93.3125 -118.75 C 100.863281 -115.5 107.425781 -110.96875 113 -105.15625 C 118.570312 -99.46875 123.007812 -92.820312 126.3125 -85.21875 C 129.625 -77.625 131.28125 -69.53125 131.28125 -60.9375 C 131.28125 -52.34375 129.625 -44.273438 126.3125 -36.734375 C 123.007812 -29.191406 118.570312 -22.519531 113 -16.71875 C 107.425781 -11.03125 100.863281 -6.53125 93.3125 -3.21875 C 85.769531 0.0820312 77.648438 1.734375 68.953125 1.734375 C 60.472656 1.734375 52.460938 0.0820312 44.921875 -3.21875 C 37.378906 -6.53125 30.820312 -11.03125 25.25 -16.71875 C 19.675781 -22.519531 15.207031 -29.191406 11.84375 -36.734375 C 8.476562 -44.273438 6.796875 -52.34375 6.796875 -60.9375 Z M 127.453125 -60.9375 C 127.453125 -69.0625 125.910156 -76.664062 122.828125 -83.75 C 119.753906 -90.832031 115.609375 -97.039062 110.390625 -102.375 C 105.160156 -107.71875 98.976562 -111.953125 91.84375 -115.078125 C 84.707031 -118.210938 77.078125 -119.78125 68.953125 -119.78125 C 60.941406 -119.78125 53.394531 -118.210938 46.3125 -115.078125 C 39.226562 -111.953125 33.019531 -107.71875 27.6875 -102.375 C 22.570312 -97.039062 18.445312 -90.832031 15.3125 -83.75 C 12.1875 -76.664062 10.625 -69.0625 10.625 -60.9375 C 10.625 -52.8125 12.1875 -45.207031 15.3125 -38.125 C 18.445312 -31.050781 22.570312 -24.84375 27.6875 -19.5 C 33.019531 -14.15625 39.226562 -9.914062 46.3125 -6.78125 C 53.394531 -3.65625 60.941406 -2.09375 68.953125 -2.09375 C 77.078125 -2.09375 84.707031 -3.65625 91.84375 -6.78125 C 98.976562 -9.914062 105.160156 -14.15625 110.390625 -19.5 C 115.609375 -24.84375 119.753906 -31.050781 122.828125 -38.125 C 125.910156 -45.207031 127.453125 -52.8125 127.453125 -60.9375 Z M 127.453125 -60.9375 "/></g></g></g><g fill="#ffffff" fill-opacity="1"><g transform="translate(244.886145, 206.823892)"><g><path d="M 54.671875 1.390625 C 49.679688 1.390625 44.660156 0.664062 39.609375 -0.78125 C 34.554688 -2.226562 29.941406 -4.40625 25.765625 -7.3125 C 21.585938 -10.21875 18.222656 -13.84375 15.671875 -18.1875 C 13.117188 -22.539062 11.84375 -27.5625 11.84375 -33.25 L 11.84375 -121.875 L 15.671875 -121.875 L 15.671875 -33.078125 C 15.671875 -27.972656 16.832031 -23.503906 19.15625 -19.671875 C 21.476562 -15.835938 24.523438 -12.644531 28.296875 -10.09375 C 32.066406 -7.539062 36.269531 -5.625 40.90625 -4.34375 C 45.550781 -3.070312 50.140625 -2.4375 54.671875 -2.4375 C 59.191406 -2.4375 63.773438 -3.070312 68.421875 -4.34375 C 73.066406 -5.625 77.273438 -7.539062 81.046875 -10.09375 C 84.816406 -12.644531 87.863281 -15.835938 90.1875 -19.671875 C 92.507812 -23.503906 93.671875 -28.03125 93.671875 -33.25 L 93.671875 -121.875 L 97.5 -121.875 L 97.5 -33.078125 C 97.5 -27.390625 96.222656 -22.398438 93.671875 -18.109375 C 91.117188 -13.816406 87.75 -10.21875 83.5625 -7.3125 C 79.382812 -4.40625 74.769531 -2.226562 69.71875 -0.78125 C 64.675781 0.664062 59.660156 1.390625 54.671875 1.390625 Z M 54.671875 1.390625 "/></g></g></g><g fill="#ffffff" fill-opacity="1"><g transform="translate(353.531237, 206.823892)"><g><path d="M 86.703125 -95.765625 C 86.242188 -98.085938 85.460938 -100.40625 84.359375 -102.71875 C 83.253906 -105.039062 81.890625 -107.070312 80.265625 -108.8125 C 76.785156 -112.414062 72.34375 -115.113281 66.9375 -116.90625 C 61.539062 -118.707031 56.289062 -119.609375 51.1875 -119.609375 C 45.5 -119.609375 39.664062 -118.535156 33.6875 -116.390625 C 27.707031 -114.242188 22.863281 -110.789062 19.15625 -106.03125 C 17.289062 -103.820312 15.953125 -101.382812 15.140625 -98.71875 C 14.328125 -96.050781 13.921875 -93.320312 13.921875 -90.53125 C 13.921875 -84.84375 15.050781 -80.285156 17.3125 -76.859375 C 19.582031 -73.441406 22.628906 -70.832031 26.453125 -69.03125 C 30.285156 -67.226562 34.492188 -65.890625 39.078125 -65.015625 C 43.671875 -64.148438 48.226562 -63.488281 52.75 -63.03125 C 57.164062 -62.5625 61.546875 -61.976562 65.890625 -61.28125 C 70.242188 -60.582031 74.304688 -59.453125 78.078125 -57.890625 C 81.859375 -56.328125 85.082031 -54.148438 87.75 -51.359375 C 90.414062 -48.578125 92.273438 -44.863281 93.328125 -40.21875 C 93.898438 -37.550781 94.1875 -35.054688 94.1875 -32.734375 C 94.1875 -27.390625 92.9375 -22.597656 90.4375 -18.359375 C 87.945312 -14.128906 84.613281 -10.5625 80.4375 -7.65625 C 76.257812 -4.757812 71.613281 -2.554688 66.5 -1.046875 C 61.394531 0.460938 56.234375 1.21875 51.015625 1.21875 C 46.597656 1.21875 42.066406 0.582031 37.421875 -0.6875 C 32.785156 -1.96875 28.4375 -3.882812 24.375 -6.4375 C 20.3125 -8.988281 16.941406 -12.125 14.265625 -15.84375 C 11.597656 -19.5625 9.976562 -23.914062 9.40625 -28.90625 L 9.234375 -30.46875 L 13.0625 -30.8125 L 13.234375 -29.25 C 14.046875 -23.445312 16.453125 -18.539062 20.453125 -14.53125 C 24.460938 -10.53125 29.25 -7.515625 34.8125 -5.484375 C 40.382812 -3.453125 45.84375 -2.4375 51.1875 -2.4375 C 57.457031 -2.4375 63.578125 -3.625 69.546875 -6 C 75.523438 -8.382812 80.457031 -11.835938 84.34375 -16.359375 C 88.238281 -20.890625 90.1875 -26.40625 90.1875 -32.90625 C 90.1875 -33.832031 90.128906 -34.847656 90.015625 -35.953125 C 89.898438 -37.054688 89.726562 -38.1875 89.5 -39.34375 C 88.332031 -44.6875 85.800781 -48.660156 81.90625 -51.265625 C 78.019531 -53.878906 73.4375 -55.738281 68.15625 -56.84375 C 62.875 -57.945312 57.507812 -58.789062 52.0625 -59.375 C 47.414062 -59.832031 42.738281 -60.46875 38.03125 -61.28125 C 33.332031 -62.09375 28.984375 -63.457031 24.984375 -65.375 C 20.984375 -67.289062 17.675781 -70.019531 15.0625 -73.5625 C 12.445312 -77.101562 10.910156 -81.832031 10.453125 -87.75 C 10.210938 -91.113281 10.585938 -94.648438 11.578125 -98.359375 C 12.566406 -102.078125 14.160156 -105.390625 16.359375 -108.296875 C 20.191406 -113.285156 25.300781 -117.023438 31.6875 -119.515625 C 38.070312 -122.015625 44.6875 -123.265625 51.53125 -123.265625 C 57.570312 -123.265625 63.347656 -122.273438 68.859375 -120.296875 C 74.367188 -118.328125 79.039062 -115.398438 82.875 -111.515625 C 86.707031 -107.628906 89.203125 -102.664062 90.359375 -96.625 L 90.71875 -94.546875 L 87.0625 -94.015625 Z M 86.703125 -95.765625 "/></g></g></g><g fill="#ffffff" fill-opacity="1"><g transform="translate(456.082489, 206.823892)"><g><path d="M 79.21875 -3.65625 L 79.21875 0 L 11.3125 0 L 11.3125 -121.875 L 78.875 -121.875 L 78.875 -118.21875 L 14.96875 -118.21875 L 14.96875 -62.859375 L 77.484375 -62.859375 L 77.484375 -59.015625 L 14.96875 -59.015625 L 14.96875 -3.65625 Z M 79.21875 -3.65625 "/></g></g></g><g fill="#ffffff" fill-opacity="1"><g transform="translate(543.311996, 206.823892)"><g/></g></g><g fill="#ffffff" fill-opacity="1"><g transform="translate(590.495987, 206.823892)"><g><path d="M 6.796875 -60.9375 C 6.796875 -69.53125 8.476562 -77.625 11.84375 -85.21875 C 15.207031 -92.820312 19.675781 -99.46875 25.25 -105.15625 C 30.820312 -110.96875 37.378906 -115.5 44.921875 -118.75 C 52.460938 -122 60.472656 -123.625 68.953125 -123.625 C 77.648438 -123.625 85.769531 -122 93.3125 -118.75 C 100.863281 -115.5 107.425781 -110.96875 113 -105.15625 C 118.570312 -99.46875 123.007812 -92.820312 126.3125 -85.21875 C 129.625 -77.625 131.28125 -69.53125 131.28125 -60.9375 C 131.28125 -52.34375 129.625 -44.273438 126.3125 -36.734375 C 123.007812 -29.191406 118.570312 -22.519531 113 -16.71875 C 107.425781 -11.03125 100.863281 -6.53125 93.3125 -3.21875 C 85.769531 0.0820312 77.648438 1.734375 68.953125 1.734375 C 60.472656 1.734375 52.460938 0.0820312 44.921875 -3.21875 C 37.378906 -6.53125 30.820312 -11.03125 25.25 -16.71875 C 19.675781 -22.519531 15.207031 -29.191406 11.84375 -36.734375 C 8.476562 -44.273438 6.796875 -52.34375 6.796875 -60.9375 Z M 127.453125 -60.9375 C 127.453125 -69.0625 125.910156 -76.664062 122.828125 -83.75 C 119.753906 -90.832031 115.609375 -97.039062 110.390625 -102.375 C 105.160156 -107.71875 98.976562 -111.953125 91.84375 -115.078125 C 84.707031 -118.210938 77.078125 -119.78125 68.953125 -119.78125 C 60.941406 -119.78125 53.394531 -118.210938 46.3125 -115.078125 C 39.226562 -111.953125 33.019531 -107.71875 27.6875 -102.375 C 22.570312 -97.039062 18.445312 -90.832031 15.3125 -83.75 C 12.1875 -76.664062 10.625 -69.0625 10.625 -60.9375 C 10.625 -52.8125 12.1875 -45.207031 15.3125 -38.125 C 18.445312 -31.050781 22.570312 -24.84375 27.6875 -19.5 C 33.019531 -14.15625 39.226562 -9.914062 46.3125 -6.78125 C 53.394531 -3.65625 60.941406 -2.09375 68.953125 -2.09375 C 77.078125 -2.09375 84.707031 -3.65625 91.84375 -6.78125 C 98.976562 -9.914062 105.160156 -14.15625 110.390625 -19.5 C 115.609375 -24.84375 119.753906 -31.050781 122.828125 -38.125 C 125.910156 -45.207031 127.453125 -52.8125 127.453125 -60.9375 Z M 127.453125 -60.9375 "/></g></g></g><g fill="#ffffff" fill-opacity="1"><g transform="translate(729.436375, 206.823892)"><g><path d="M 11.3125 0 L 11.3125 -121.875 L 77.296875 -121.875 L 77.296875 -118.21875 L 14.796875 -118.21875 L 14.796875 -62.859375 L 70.171875 -62.859375 L 70.171875 -59.015625 L 14.796875 -59.015625 L 14.796875 0 Z M 11.3125 0 "/></g></g></g><g clip-path="url(#17c8ebcc9d)"><g transform="matrix(1, 0, 0, 1, 838, 0.000000000000028422)"><g clip-path="url(#cbd1fbb739)"><g fill="#ffffff" fill-opacity="1"><g transform="translate(0.814963, 212.285647)"><g><path d="M 141.734375 0 L 119.921875 0 L 119.921875 -16.25 C 117.109375 -11.945312 113.253906 -8.457031 108.359375 -5.78125 C 103.460938 -3.113281 98.269531 -1.1875 92.78125 0 C 87.289062 1.1875 82.023438 1.851562 76.984375 2 C 63.035156 2 51.238281 -0.925781 41.59375 -6.78125 C 31.957031 -12.644531 24.65625 -20.359375 19.6875 -29.921875 C 14.71875 -39.492188 12.234375 -49.769531 12.234375 -60.75 C 12.234375 -71.570312 14.753906 -81.65625 19.796875 -91 C 24.847656 -100.34375 32.191406 -107.90625 41.828125 -113.6875 C 51.472656 -119.476562 63.046875 -122.375 76.546875 -122.375 C 81.585938 -122.375 86.773438 -121.890625 92.109375 -120.921875 C 97.453125 -119.960938 102.570312 -118.179688 107.46875 -115.578125 C 112.363281 -112.984375 116.59375 -109.242188 120.15625 -104.359375 L 119.921875 -120.375 L 141.734375 -120.375 Z M 119.921875 -60.296875 C 119.921875 -69.941406 117.734375 -77.914062 113.359375 -84.21875 C 108.984375 -90.519531 103.457031 -95.265625 96.78125 -98.453125 C 90.113281 -101.640625 83.367188 -103.234375 76.546875 -103.234375 C 67.785156 -103.234375 60.21875 -101.34375 53.84375 -97.5625 C 47.46875 -93.78125 42.570312 -88.695312 39.15625 -82.3125 C 35.75 -75.9375 34.046875 -68.75 34.046875 -60.75 C 34.046875 -53.175781 35.75 -46.085938 39.15625 -39.484375 C 42.570312 -32.890625 47.429688 -27.550781 53.734375 -23.46875 C 60.035156 -19.394531 67.640625 -17.359375 76.546875 -17.359375 C 83.210938 -17.359375 89.882812 -18.914062 96.5625 -22.03125 C 103.238281 -25.144531 108.800781 -29.890625 113.25 -36.265625 C 117.695312 -42.640625 119.921875 -50.648438 119.921875 -60.296875 Z M 119.921875 -60.296875 "/></g></g></g><g fill="#ffffff" fill-opacity="1"><g transform="translate(157.006009, 212.285647)"><g><path d="M 16.6875 0 L 16.6875 -155.75 L 38.5 -155.75 L 38.5 0 Z M 16.6875 0 "/></g></g></g><g fill="#ffffff" fill-opacity="1"><g transform="translate(212.18461, 212.285647)"><g><path d="M 45.171875 -120.375 L 71.640625 -120.375 L 71.640625 -103.015625 L 45.171875 -103.015625 L 45.171875 -35.15625 C 45.171875 -28.03125 46.800781 -23.316406 50.0625 -21.015625 C 53.320312 -18.722656 57.695312 -17.578125 63.1875 -17.578125 C 64.519531 -17.578125 65.960938 -17.613281 67.515625 -17.6875 C 69.078125 -17.757812 70.675781 -17.867188 72.3125 -18.015625 L 72.3125 0.21875 C 70.53125 0.363281 68.820312 0.472656 67.1875 0.546875 C 65.5625 0.628906 63.929688 0.671875 62.296875 0.671875 C 54.429688 0.671875 47.570312 -0.398438 41.71875 -2.546875 C 35.863281 -4.703125 31.335938 -8.375 28.140625 -13.5625 C 24.953125 -18.757812 23.359375 -26.03125 23.359375 -35.375 L 23.359375 -103.015625 L 5.34375 -103.015625 L 5.34375 -120.375 L 23.359375 -120.375 L 23.359375 -142.84375 L 45.171875 -147.078125 Z M 45.171875 -120.375 "/></g></g></g><g fill="#ffffff" fill-opacity="1"><g transform="translate(288.72268, 212.285647)"><g><path d="M 38.265625 -105.46875 C 42.566406 -111.550781 47.644531 -115.960938 53.5 -118.703125 C 59.363281 -121.441406 65.632812 -122.8125 72.3125 -122.8125 C 74.6875 -122.8125 77.0625 -122.664062 79.4375 -122.375 C 81.8125 -122.082031 84.179688 -121.640625 86.546875 -121.046875 L 86.546875 -101.90625 C 82.992188 -102.945312 79.285156 -103.46875 75.421875 -103.46875 C 68.753906 -103.46875 62.597656 -101.796875 56.953125 -98.453125 C 51.316406 -95.117188 46.789062 -90.59375 43.375 -84.875 C 39.96875 -79.164062 38.265625 -72.601562 38.265625 -65.1875 L 38.265625 0 L 16.6875 0 L 16.6875 -120.15625 L 38.265625 -120.15625 Z M 38.265625 -105.46875 "/></g></g></g><g fill="#ffffff" fill-opacity="1"><g transform="translate(375.272834, 212.285647)"><g><path d="M 141.734375 0 L 119.921875 0 L 119.921875 -16.25 C 117.109375 -11.945312 113.253906 -8.457031 108.359375 -5.78125 C 103.460938 -3.113281 98.269531 -1.1875 92.78125 0 C 87.289062 1.1875 82.023438 1.851562 76.984375 2 C 63.035156 2 51.238281 -0.925781 41.59375 -6.78125 C 31.957031 -12.644531 24.65625 -20.359375 19.6875 -29.921875 C 14.71875 -39.492188 12.234375 -49.769531 12.234375 -60.75 C 12.234375 -71.570312 14.753906 -81.65625 19.796875 -91 C 24.847656 -100.34375 32.191406 -107.90625 41.828125 -113.6875 C 51.472656 -119.476562 63.046875 -122.375 76.546875 -122.375 C 81.585938 -122.375 86.773438 -121.890625 92.109375 -120.921875 C 97.453125 -119.960938 102.570312 -118.179688 107.46875 -115.578125 C 112.363281 -112.984375 116.59375 -109.242188 120.15625 -104.359375 L 119.921875 -120.375 L 141.734375 -120.375 Z M 119.921875 -60.296875 C 119.921875 -69.941406 117.734375 -77.914062 113.359375 -84.21875 C 108.984375 -90.519531 103.457031 -95.265625 96.78125 -98.453125 C 90.113281 -101.640625 83.367188 -103.234375 76.546875 -103.234375 C 67.785156 -103.234375 60.21875 -101.34375 53.84375 -97.5625 C 47.46875 -93.78125 42.570312 -88.695312 39.15625 -82.3125 C 35.75 -75.9375 34.046875 -68.75 34.046875 -60.75 C 34.046875 -53.175781 35.75 -46.085938 39.15625 -39.484375 C 42.570312 -32.890625 47.429688 -27.550781 53.734375 -23.46875 C 60.035156 -19.394531 67.640625 -17.359375 76.546875 -17.359375 C 83.210938 -17.359375 89.882812 -18.914062 96.5625 -22.03125 C 103.238281 -25.144531 108.800781 -29.890625 113.25 -36.265625 C 117.695312 -42.640625 119.921875 -50.648438 119.921875 -60.296875 Z M 119.921875 -60.296875 "/></g></g></g></g></g></g><g clip-path="url(#4714c3d21e)"><path fill="#ffffff" d="M 1370.644531 61.792969 C 1364.769531 61.792969 1359.984375 66.578125 1359.984375 72.457031 C 1359.984375 78.332031 1364.769531 83.117188 1370.644531 83.117188 C 1376.519531 83.117188 1381.304688 78.332031 1381.304688 72.457031 C 1381.304688 66.578125 1376.519531 61.792969 1370.644531 61.792969 Z M 1370.644531 63.925781 C 1375.367188 63.925781 1379.175781 67.730469 1379.175781 72.457031 C 1379.175781 77.179688 1375.367188 80.984375 1370.644531 80.984375 C 1365.921875 80.984375 1362.113281 77.179688 1362.113281 72.457031 C 1362.113281 67.730469 1365.921875 63.925781 1370.644531 63.925781 Z M 1367.445312 68.191406 L 1367.445312 76.71875 L 1369.203125 76.71875 L 1369.203125 73.597656 L 1370.605469 73.597656 L 1372.203125 76.71875 L 1374.089844 76.71875 L 1374.089844 76.640625 L 1372.242188 73.152344 C 1372.476562 73.046875 1372.6875 72.921875 1372.875 72.777344 C 1373.066406 72.632812 1373.226562 72.460938 1373.359375 72.269531 C 1373.492188 72.078125 1373.589844 71.855469 1373.660156 71.609375 C 1373.730469 71.359375 1373.769531 71.082031 1373.769531 70.769531 C 1373.769531 70.347656 1373.695312 69.972656 1373.550781 69.65625 C 1373.40625 69.335938 1373.199219 69.066406 1372.929688 68.851562 C 1372.660156 68.632812 1372.332031 68.46875 1371.941406 68.355469 C 1371.546875 68.246094 1371.109375 68.191406 1370.617188 68.191406 Z M 1369.207031 69.613281 L 1370.617188 69.613281 C 1371.089844 69.613281 1371.441406 69.726562 1371.667969 69.957031 C 1371.898438 70.1875 1372.011719 70.507812 1372.011719 70.90625 C 1372.011719 71.097656 1371.980469 71.273438 1371.921875 71.425781 C 1371.863281 71.582031 1371.777344 71.710938 1371.660156 71.824219 C 1371.546875 71.9375 1371.402344 72.023438 1371.226562 72.082031 C 1371.054688 72.144531 1370.851562 72.175781 1370.621094 72.175781 L 1369.207031 72.175781 Z M 1369.207031 69.613281 " fill-opacity="1" fill-rule="nonzero"/></g><g fill="#ffffff" fill-opacity="1"><g transform="translate(498.113614, 322.299436)"><g><path d="M 15.5 0.390625 C 13.1875 0.390625 11.175781 -0.015625 9.46875 -0.828125 C 7.757812 -1.640625 6.34375 -2.75 5.21875 -4.15625 C 4.101562 -5.570312 3.273438 -7.1875 2.734375 -9 C 2.191406 -10.8125 1.921875 -12.71875 1.921875 -14.71875 C 1.921875 -16.726562 2.191406 -18.628906 2.734375 -20.421875 C 3.273438 -22.222656 4.101562 -23.832031 5.21875 -25.25 C 6.34375 -26.664062 7.757812 -27.773438 9.46875 -28.578125 C 11.175781 -29.390625 13.1875 -29.796875 15.5 -29.796875 C 17.675781 -29.796875 19.59375 -29.4375 21.25 -28.71875 C 22.914062 -28 24.257812 -26.992188 25.28125 -25.703125 C 26.3125 -24.421875 26.96875 -22.945312 27.25 -21.28125 L 23.390625 -21.28125 C 23.035156 -22.925781 22.148438 -24.226562 20.734375 -25.1875 C 19.328125 -26.15625 17.554688 -26.640625 15.421875 -26.640625 C 13.234375 -26.640625 11.398438 -26.125 9.921875 -25.09375 C 8.441406 -24.0625 7.328125 -22.644531 6.578125 -20.84375 C 5.835938 -19.050781 5.46875 -17.007812 5.46875 -14.71875 C 5.46875 -12.4375 5.835938 -10.390625 6.578125 -8.578125 C 7.328125 -6.765625 8.441406 -5.34375 9.921875 -4.3125 C 11.398438 -3.289062 13.234375 -2.78125 15.421875 -2.78125 C 17.554688 -2.78125 19.328125 -3.289062 20.734375 -4.3125 C 22.148438 -5.34375 23.035156 -6.875 23.390625 -8.90625 L 27.25 -8.90625 C 26.789062 -6.050781 25.539062 -3.785156 23.5 -2.109375 C 21.457031 -0.441406 18.789062 0.390625 15.5 0.390625 Z M 15.5 0.390625 "/></g></g></g><g fill="#ffffff" fill-opacity="1"><g transform="translate(527.711719, 322.299436)"><g><path d="M 12.265625 0.390625 C 10.234375 0.390625 8.429688 -0.0820312 6.859375 -1.03125 C 5.296875 -1.988281 4.066406 -3.304688 3.171875 -4.984375 C 2.285156 -6.671875 1.84375 -8.59375 1.84375 -10.75 C 1.84375 -12.863281 2.285156 -14.738281 3.171875 -16.375 C 4.066406 -18.019531 5.296875 -19.316406 6.859375 -20.265625 C 8.429688 -21.222656 10.234375 -21.703125 12.265625 -21.703125 C 14.285156 -21.703125 16.085938 -21.222656 17.671875 -20.265625 C 19.253906 -19.316406 20.492188 -18.019531 21.390625 -16.375 C 22.296875 -14.738281 22.75 -12.863281 22.75 -10.75 C 22.75 -8.625 22.300781 -6.71875 21.40625 -5.03125 C 20.519531 -3.34375 19.285156 -2.015625 17.703125 -1.046875 C 16.128906 -0.0859375 14.316406 0.390625 12.265625 0.390625 Z M 12.265625 -2.5 C 13.617188 -2.5 14.832031 -2.859375 15.90625 -3.578125 C 16.988281 -4.304688 17.84375 -5.289062 18.46875 -6.53125 C 19.101562 -7.78125 19.421875 -9.1875 19.421875 -10.75 C 19.421875 -12.269531 19.113281 -13.640625 18.5 -14.859375 C 17.882812 -16.078125 17.035156 -17.039062 15.953125 -17.75 C 14.878906 -18.457031 13.648438 -18.8125 12.265625 -18.8125 C 10.898438 -18.8125 9.675781 -18.460938 8.59375 -17.765625 C 7.519531 -17.078125 6.671875 -16.117188 6.046875 -14.890625 C 5.429688 -13.671875 5.125 -12.289062 5.125 -10.75 C 5.125 -9.15625 5.4375 -7.734375 6.0625 -6.484375 C 6.695312 -5.242188 7.550781 -4.269531 8.625 -3.5625 C 9.707031 -2.851562 10.921875 -2.5 12.265625 -2.5 Z M 12.265625 -2.5 "/></g></g></g><g fill="#ffffff" fill-opacity="1"><g transform="translate(553.109075, 322.299436)"><g><path d="M 6.015625 0 L 2.734375 0 L 2.734375 -21.3125 L 6.015625 -21.3125 L 6.015625 -18 C 7.085938 -19.382812 8.117188 -20.347656 9.109375 -20.890625 C 10.097656 -21.429688 11.171875 -21.703125 12.328125 -21.703125 C 14.003906 -21.703125 15.34375 -21.382812 16.34375 -20.75 C 17.34375 -20.125 18.101562 -19.320312 18.625 -18.34375 C 19.132812 -17.394531 19.425781 -16.40625 19.5 -15.375 C 19.582031 -14.351562 19.625 -13.507812 19.625 -12.84375 L 19.625 0 L 16.34375 0 L 16.34375 -12.84375 C 16.34375 -15.101562 15.929688 -16.691406 15.109375 -17.609375 C 14.390625 -18.410156 13.296875 -18.8125 11.828125 -18.8125 C 10.953125 -18.8125 10.191406 -18.671875 9.546875 -18.390625 C 8.910156 -18.109375 8.375 -17.722656 7.9375 -17.234375 C 7.25 -16.515625 6.753906 -15.523438 6.453125 -14.265625 C 6.160156 -13.003906 6.015625 -11.28125 6.015625 -9.09375 Z M 6.015625 0 "/></g></g></g><g fill="#ffffff" fill-opacity="1"><g transform="translate(576.078468, 322.299436)"><g><path d="M 6.015625 0 L 2.734375 0 L 2.734375 -21.3125 L 6.015625 -21.3125 L 6.015625 -18 C 7.085938 -19.382812 8.117188 -20.347656 9.109375 -20.890625 C 10.097656 -21.429688 11.171875 -21.703125 12.328125 -21.703125 C 14.003906 -21.703125 15.34375 -21.382812 16.34375 -20.75 C 17.34375 -20.125 18.101562 -19.320312 18.625 -18.34375 C 19.132812 -17.394531 19.425781 -16.40625 19.5 -15.375 C 19.582031 -14.351562 19.625 -13.507812 19.625 -12.84375 L 19.625 0 L 16.34375 0 L 16.34375 -12.84375 C 16.34375 -15.101562 15.929688 -16.691406 15.109375 -17.609375 C 14.390625 -18.410156 13.296875 -18.8125 11.828125 -18.8125 C 10.953125 -18.8125 10.191406 -18.671875 9.546875 -18.390625 C 8.910156 -18.109375 8.375 -17.722656 7.9375 -17.234375 C 7.25 -16.515625 6.753906 -15.523438 6.453125 -14.265625 C 6.160156 -13.003906 6.015625 -11.28125 6.015625 -9.09375 Z M 6.015625 0 "/></g></g></g><g fill="#ffffff" fill-opacity="1"><g transform="translate(599.047861, 322.299436)"><g><path d="M 12.21875 0.390625 C 10.1875 0.390625 8.382812 -0.0859375 6.8125 -1.046875 C 5.25 -2.015625 4.03125 -3.328125 3.15625 -4.984375 C 2.28125 -6.648438 1.84375 -8.519531 1.84375 -10.59375 C 1.84375 -12.519531 2.238281 -14.332031 3.03125 -16.03125 C 3.832031 -17.726562 5.003906 -19.097656 6.546875 -20.140625 C 8.085938 -21.179688 9.953125 -21.703125 12.140625 -21.703125 C 13.941406 -21.703125 15.617188 -21.300781 17.171875 -20.5 C 18.722656 -19.707031 19.988281 -18.523438 20.96875 -16.953125 C 21.945312 -15.390625 22.4375 -13.460938 22.4375 -11.171875 L 22.4375 -10.015625 L 5.09375 -10.015625 C 5.144531 -9.273438 5.285156 -8.570312 5.515625 -7.90625 C 6.054688 -6.257812 6.914062 -4.945312 8.09375 -3.96875 C 9.28125 -2.988281 10.644531 -2.5 12.1875 -2.5 C 13.800781 -2.5 15.144531 -2.929688 16.21875 -3.796875 C 17.300781 -4.660156 18.078125 -5.679688 18.546875 -6.859375 L 22.046875 -6.859375 C 21.609375 -5.523438 20.953125 -4.3125 20.078125 -3.21875 C 19.203125 -2.125 18.113281 -1.25 16.8125 -0.59375 C 15.519531 0.0625 13.988281 0.390625 12.21875 0.390625 Z M 5.390625 -12.90625 L 18.921875 -12.90625 C 18.898438 -13.269531 18.847656 -13.628906 18.765625 -13.984375 C 18.691406 -14.347656 18.59375 -14.6875 18.46875 -15 C 17.894531 -16.226562 17.050781 -17.171875 15.9375 -17.828125 C 14.820312 -18.484375 13.582031 -18.8125 12.21875 -18.8125 C 10.800781 -18.8125 9.5625 -18.476562 8.5 -17.8125 C 7.4375 -17.144531 6.609375 -16.207031 6.015625 -15 C 5.859375 -14.664062 5.726562 -14.316406 5.625 -13.953125 C 5.519531 -13.597656 5.441406 -13.25 5.390625 -12.90625 Z M 5.390625 -12.90625 "/></g></g></g><g fill="#ffffff" fill-opacity="1"><g transform="translate(624.059825, 322.299436)"><g><path d="M 12.1875 0.390625 C 10.175781 0.390625 8.394531 -0.0820312 6.84375 -1.03125 C 5.289062 -1.988281 4.066406 -3.304688 3.171875 -4.984375 C 2.285156 -6.671875 1.84375 -8.59375 1.84375 -10.75 C 1.84375 -12.863281 2.28125 -14.738281 3.15625 -16.375 C 4.03125 -18.019531 5.242188 -19.316406 6.796875 -20.265625 C 8.359375 -21.222656 10.15625 -21.703125 12.1875 -21.703125 C 14.570312 -21.703125 16.59375 -21.082031 18.25 -19.84375 C 19.90625 -18.613281 20.976562 -16.972656 21.46875 -14.921875 L 17.96875 -14.921875 C 17.550781 -16.128906 16.820312 -17.078125 15.78125 -17.765625 C 14.738281 -18.460938 13.539062 -18.8125 12.1875 -18.8125 C 10.84375 -18.8125 9.640625 -18.460938 8.578125 -17.765625 C 7.515625 -17.078125 6.671875 -16.128906 6.046875 -14.921875 C 5.429688 -13.710938 5.125 -12.320312 5.125 -10.75 C 5.125 -9.132812 5.429688 -7.707031 6.046875 -6.46875 C 6.671875 -5.238281 7.515625 -4.269531 8.578125 -3.5625 C 9.640625 -2.851562 10.84375 -2.5 12.1875 -2.5 C 13.675781 -2.5 14.953125 -2.894531 16.015625 -3.6875 C 17.078125 -4.488281 17.773438 -5.546875 18.109375 -6.859375 L 21.625 -6.859375 C 21.164062 -4.597656 20.070312 -2.820312 18.34375 -1.53125 C 16.625 -0.25 14.570312 0.390625 12.1875 0.390625 Z M 12.1875 0.390625 "/></g></g></g><g fill="#ffffff" fill-opacity="1"><g transform="translate(648.031235, 322.299436)"><g><path d="M 12.484375 0 L 9.515625 0 C 8.460938 0 7.554688 -0.144531 6.796875 -0.4375 C 6.046875 -0.738281 5.46875 -1.28125 5.0625 -2.0625 C 4.664062 -2.84375 4.46875 -3.941406 4.46875 -5.359375 L 4.46875 -18.421875 L 1.046875 -18.421875 L 1.046875 -21.3125 L 4.46875 -21.3125 L 4.46875 -29.40625 L 7.75 -29.40625 L 7.75 -21.3125 L 12.53125 -21.3125 L 12.53125 -18.421875 L 7.75 -18.421875 L 7.75 -6.015625 C 7.75 -5.398438 7.789062 -4.851562 7.875 -4.375 C 7.96875 -3.894531 8.191406 -3.523438 8.546875 -3.265625 C 8.910156 -3.015625 9.492188 -2.890625 10.296875 -2.890625 L 12.484375 -2.890625 Z M 12.484375 0 "/></g></g></g><g fill="#ffffff" fill-opacity="1"><g transform="translate(662.71474, 322.299436)"><g><path d="M 4.390625 -24.984375 C 3.703125 -24.984375 3.113281 -25.21875 2.625 -25.6875 C 2.132812 -26.164062 1.890625 -26.738281 1.890625 -27.40625 C 1.890625 -28.070312 2.132812 -28.632812 2.625 -29.09375 C 3.113281 -29.5625 3.703125 -29.796875 4.390625 -29.796875 C 5.085938 -29.796875 5.679688 -29.5625 6.171875 -29.09375 C 6.660156 -28.632812 6.90625 -28.070312 6.90625 -27.40625 C 6.90625 -26.738281 6.660156 -26.164062 6.171875 -25.6875 C 5.679688 -25.21875 5.085938 -24.984375 4.390625 -24.984375 Z M 6.015625 0 L 2.734375 0 L 2.734375 -21.3125 L 6.015625 -21.3125 Z M 6.015625 0 "/></g></g></g><g fill="#ffffff" fill-opacity="1"><g transform="translate(672.234015, 322.299436)"><g><path d="M 6.015625 0 L 2.734375 0 L 2.734375 -21.3125 L 6.015625 -21.3125 L 6.015625 -18 C 7.085938 -19.382812 8.117188 -20.347656 9.109375 -20.890625 C 10.097656 -21.429688 11.171875 -21.703125 12.328125 -21.703125 C 14.003906 -21.703125 15.34375 -21.382812 16.34375 -20.75 C 17.34375 -20.125 18.101562 -19.320312 18.625 -18.34375 C 19.132812 -17.394531 19.425781 -16.40625 19.5 -15.375 C 19.582031 -14.351562 19.625 -13.507812 19.625 -12.84375 L 19.625 0 L 16.34375 0 L 16.34375 -12.84375 C 16.34375 -15.101562 15.929688 -16.691406 15.109375 -17.609375 C 14.390625 -18.410156 13.296875 -18.8125 11.828125 -18.8125 C 10.953125 -18.8125 10.191406 -18.671875 9.546875 -18.390625 C 8.910156 -18.109375 8.375 -17.722656 7.9375 -17.234375 C 7.25 -16.515625 6.753906 -15.523438 6.453125 -14.265625 C 6.160156 -13.003906 6.015625 -11.28125 6.015625 -9.09375 Z M 6.015625 0 "/></g></g></g><g fill="#ffffff" fill-opacity="1"><g transform="translate(695.203408, 322.299436)"><g><path d="M 12.140625 8.484375 C 10.703125 8.484375 9.304688 8.273438 7.953125 7.859375 C 6.609375 7.453125 5.453125 6.757812 4.484375 5.78125 C 3.523438 4.800781 2.90625 3.453125 2.625 1.734375 L 5.96875 1.734375 C 6.300781 2.992188 6.96875 3.953125 7.96875 4.609375 C 8.976562 5.265625 10.359375 5.59375 12.109375 5.59375 C 14.335938 5.59375 15.953125 5.082031 16.953125 4.0625 C 17.960938 3.050781 18.46875 1.660156 18.46875 -0.109375 L 18.46875 -3.3125 C 17.363281 -1.894531 16.28125 -0.921875 15.21875 -0.390625 C 14.164062 0.128906 12.921875 0.390625 11.484375 0.390625 C 9.585938 0.390625 7.925781 -0.0703125 6.5 -1 C 5.070312 -1.925781 3.960938 -3.21875 3.171875 -4.875 C 2.390625 -6.53125 2 -8.425781 2 -10.5625 C 2 -12.769531 2.390625 -14.707031 3.171875 -16.375 C 3.960938 -18.050781 5.0625 -19.359375 6.46875 -20.296875 C 7.882812 -21.234375 9.546875 -21.703125 11.453125 -21.703125 C 12.941406 -21.703125 14.210938 -21.429688 15.265625 -20.890625 C 16.316406 -20.347656 17.382812 -19.382812 18.46875 -18 L 18.46875 -21.3125 L 21.734375 -21.3125 L 21.734375 -0.734375 C 21.734375 1.578125 21.320312 3.398438 20.5 4.734375 C 19.675781 6.078125 18.546875 7.035156 17.109375 7.609375 C 15.671875 8.191406 14.015625 8.484375 12.140625 8.484375 Z M 11.796875 -2.5 C 13.128906 -2.5 14.300781 -2.851562 15.3125 -3.5625 C 16.332031 -4.269531 17.128906 -5.238281 17.703125 -6.46875 C 18.285156 -7.707031 18.578125 -9.109375 18.578125 -10.671875 C 18.578125 -12.242188 18.28125 -13.640625 17.6875 -14.859375 C 17.101562 -16.078125 16.300781 -17.039062 15.28125 -17.75 C 14.269531 -18.457031 13.109375 -18.8125 11.796875 -18.8125 C 10.460938 -18.8125 9.304688 -18.453125 8.328125 -17.734375 C 7.347656 -17.015625 6.59375 -16.039062 6.0625 -14.8125 C 5.539062 -13.59375 5.28125 -12.210938 5.28125 -10.671875 C 5.28125 -9.128906 5.539062 -7.742188 6.0625 -6.515625 C 6.59375 -5.285156 7.347656 -4.304688 8.328125 -3.578125 C 9.304688 -2.859375 10.460938 -2.5 11.796875 -2.5 Z M 11.796875 -2.5 "/></g></g></g><g fill="#ffffff" fill-opacity="1"><g transform="translate(720.446604, 322.299436)"><g/></g></g><g fill="#ffffff" fill-opacity="1"><g transform="translate(732.008435, 322.299436)"><g><path d="M 4.125 0 L 0.546875 0 L 11.375 -29.40625 L 15.375 -29.40625 L 26.21875 0 L 22.625 0 L 20.046875 -7.203125 L 6.703125 -7.203125 Z M 13.375 -25.78125 L 7.90625 -10.375 L 18.84375 -10.375 Z M 13.375 -25.78125 "/></g></g></g><g fill="#ffffff" fill-opacity="1"><g transform="translate(759.525447, 322.299436)"><g><path d="M 11.328125 0.390625 C 8.609375 0.390625 6.40625 -0.253906 4.71875 -1.546875 C 3.039062 -2.847656 2.019531 -4.617188 1.65625 -6.859375 L 5.09375 -6.859375 C 5.375 -5.578125 6.015625 -4.53125 7.015625 -3.71875 C 8.015625 -2.90625 9.46875 -2.5 11.375 -2.5 C 12.8125 -2.5 13.984375 -2.773438 14.890625 -3.328125 C 15.804688 -3.878906 16.265625 -4.695312 16.265625 -5.78125 C 16.265625 -6.675781 15.984375 -7.367188 15.421875 -7.859375 C 14.859375 -8.347656 14.117188 -8.71875 13.203125 -8.96875 C 12.285156 -9.226562 11.300781 -9.460938 10.25 -9.671875 C 9.320312 -9.847656 8.398438 -10.050781 7.484375 -10.28125 C 6.578125 -10.519531 5.75 -10.84375 5 -11.25 C 4.257812 -11.664062 3.664062 -12.21875 3.21875 -12.90625 C 2.769531 -13.601562 2.546875 -14.492188 2.546875 -15.578125 C 2.546875 -16.910156 2.882812 -18.03125 3.5625 -18.9375 C 4.25 -19.851562 5.179688 -20.539062 6.359375 -21 C 7.546875 -21.46875 8.859375 -21.703125 10.296875 -21.703125 C 12.609375 -21.703125 14.535156 -21.101562 16.078125 -19.90625 C 17.617188 -18.707031 18.566406 -17.046875 18.921875 -14.921875 L 15.875 -14.921875 C 15.539062 -16.273438 14.878906 -17.257812 13.890625 -17.875 C 12.898438 -18.5 11.703125 -18.8125 10.296875 -18.8125 C 8.878906 -18.8125 7.78125 -18.546875 7 -18.015625 C 6.21875 -17.492188 5.828125 -16.769531 5.828125 -15.84375 C 5.828125 -15.09375 6.085938 -14.503906 6.609375 -14.078125 C 7.140625 -13.660156 7.828125 -13.34375 8.671875 -13.125 C 9.515625 -12.90625 10.425781 -12.691406 11.40625 -12.484375 C 12.363281 -12.304688 13.320312 -12.09375 14.28125 -11.84375 C 15.25 -11.601562 16.128906 -11.265625 16.921875 -10.828125 C 17.710938 -10.390625 18.347656 -9.796875 18.828125 -9.046875 C 19.304688 -8.304688 19.546875 -7.332031 19.546875 -6.125 C 19.546875 -4.175781 18.832031 -2.601562 17.40625 -1.40625 C 15.976562 -0.207031 13.953125 0.390625 11.328125 0.390625 Z M 11.328125 0.390625 "/></g></g></g><g fill="#ffffff" fill-opacity="1"><g transform="translate(781.762579, 322.299436)"><g><path d="M 11.328125 0.390625 C 8.609375 0.390625 6.40625 -0.253906 4.71875 -1.546875 C 3.039062 -2.847656 2.019531 -4.617188 1.65625 -6.859375 L 5.09375 -6.859375 C 5.375 -5.578125 6.015625 -4.53125 7.015625 -3.71875 C 8.015625 -2.90625 9.46875 -2.5 11.375 -2.5 C 12.8125 -2.5 13.984375 -2.773438 14.890625 -3.328125 C 15.804688 -3.878906 16.265625 -4.695312 16.265625 -5.78125 C 16.265625 -6.675781 15.984375 -7.367188 15.421875 -7.859375 C 14.859375 -8.347656 14.117188 -8.71875 13.203125 -8.96875 C 12.285156 -9.226562 11.300781 -9.460938 10.25 -9.671875 C 9.320312 -9.847656 8.398438 -10.050781 7.484375 -10.28125 C 6.578125 -10.519531 5.75 -10.84375 5 -11.25 C 4.257812 -11.664062 3.664062 -12.21875 3.21875 -12.90625 C 2.769531 -13.601562 2.546875 -14.492188 2.546875 -15.578125 C 2.546875 -16.910156 2.882812 -18.03125 3.5625 -18.9375 C 4.25 -19.851562 5.179688 -20.539062 6.359375 -21 C 7.546875 -21.46875 8.859375 -21.703125 10.296875 -21.703125 C 12.609375 -21.703125 14.535156 -21.101562 16.078125 -19.90625 C 17.617188 -18.707031 18.566406 -17.046875 18.921875 -14.921875 L 15.875 -14.921875 C 15.539062 -16.273438 14.878906 -17.257812 13.890625 -17.875 C 12.898438 -18.5 11.703125 -18.8125 10.296875 -18.8125 C 8.878906 -18.8125 7.78125 -18.546875 7 -18.015625 C 6.21875 -17.492188 5.828125 -16.769531 5.828125 -15.84375 C 5.828125 -15.09375 6.085938 -14.503906 6.609375 -14.078125 C 7.140625 -13.660156 7.828125 -13.34375 8.671875 -13.125 C 9.515625 -12.90625 10.425781 -12.691406 11.40625 -12.484375 C 12.363281 -12.304688 13.320312 -12.09375 14.28125 -11.84375 C 15.25 -11.601562 16.128906 -11.265625 16.921875 -10.828125 C 17.710938 -10.390625 18.347656 -9.796875 18.828125 -9.046875 C 19.304688 -8.304688 19.546875 -7.332031 19.546875 -6.125 C 19.546875 -4.175781 18.832031 -2.601562 17.40625 -1.40625 C 15.976562 -0.207031 13.953125 0.390625 11.328125 0.390625 Z M 11.328125 0.390625 "/></g></g></g><g fill="#ffffff" fill-opacity="1"><g transform="translate(803.999739, 322.299436)"><g><path d="M 12.21875 0.390625 C 10.1875 0.390625 8.382812 -0.0859375 6.8125 -1.046875 C 5.25 -2.015625 4.03125 -3.328125 3.15625 -4.984375 C 2.28125 -6.648438 1.84375 -8.519531 1.84375 -10.59375 C 1.84375 -12.519531 2.238281 -14.332031 3.03125 -16.03125 C 3.832031 -17.726562 5.003906 -19.097656 6.546875 -20.140625 C 8.085938 -21.179688 9.953125 -21.703125 12.140625 -21.703125 C 13.941406 -21.703125 15.617188 -21.300781 17.171875 -20.5 C 18.722656 -19.707031 19.988281 -18.523438 20.96875 -16.953125 C 21.945312 -15.390625 22.4375 -13.460938 22.4375 -11.171875 L 22.4375 -10.015625 L 5.09375 -10.015625 C 5.144531 -9.273438 5.285156 -8.570312 5.515625 -7.90625 C 6.054688 -6.257812 6.914062 -4.945312 8.09375 -3.96875 C 9.28125 -2.988281 10.644531 -2.5 12.1875 -2.5 C 13.800781 -2.5 15.144531 -2.929688 16.21875 -3.796875 C 17.300781 -4.660156 18.078125 -5.679688 18.546875 -6.859375 L 22.046875 -6.859375 C 21.609375 -5.523438 20.953125 -4.3125 20.078125 -3.21875 C 19.203125 -2.125 18.113281 -1.25 16.8125 -0.59375 C 15.519531 0.0625 13.988281 0.390625 12.21875 0.390625 Z M 5.390625 -12.90625 L 18.921875 -12.90625 C 18.898438 -13.269531 18.847656 -13.628906 18.765625 -13.984375 C 18.691406 -14.347656 18.59375 -14.6875 18.46875 -15 C 17.894531 -16.226562 17.050781 -17.171875 15.9375 -17.828125 C 14.820312 -18.484375 13.582031 -18.8125 12.21875 -18.8125 C 10.800781 -18.8125 9.5625 -18.476562 8.5 -17.8125 C 7.4375 -17.144531 6.609375 -16.207031 6.015625 -15 C 5.859375 -14.664062 5.726562 -14.316406 5.625 -13.953125 C 5.519531 -13.597656 5.441406 -13.25 5.390625 -12.90625 Z M 5.390625 -12.90625 "/></g></g></g><g fill="#ffffff" fill-opacity="1"><g transform="translate(829.011689, 322.299436)"><g><path d="M 12.484375 0 L 9.515625 0 C 8.460938 0 7.554688 -0.144531 6.796875 -0.4375 C 6.046875 -0.738281 5.46875 -1.28125 5.0625 -2.0625 C 4.664062 -2.84375 4.46875 -3.941406 4.46875 -5.359375 L 4.46875 -18.421875 L 1.046875 -18.421875 L 1.046875 -21.3125 L 4.46875 -21.3125 L 4.46875 -29.40625 L 7.75 -29.40625 L 7.75 -21.3125 L 12.53125 -21.3125 L 12.53125 -18.421875 L 7.75 -18.421875 L 7.75 -6.015625 C 7.75 -5.398438 7.789062 -4.851562 7.875 -4.375 C 7.96875 -3.894531 8.191406 -3.523438 8.546875 -3.265625 C 8.910156 -3.015625 9.492188 -2.890625 10.296875 -2.890625 L 12.484375 -2.890625 Z M 12.484375 0 "/></g></g></g><g fill="#ffffff" fill-opacity="1"><g transform="translate(843.695207, 322.299436)"><g><path d="M 11.328125 0.390625 C 8.609375 0.390625 6.40625 -0.253906 4.71875 -1.546875 C 3.039062 -2.847656 2.019531 -4.617188 1.65625 -6.859375 L 5.09375 -6.859375 C 5.375 -5.578125 6.015625 -4.53125 7.015625 -3.71875 C 8.015625 -2.90625 9.46875 -2.5 11.375 -2.5 C 12.8125 -2.5 13.984375 -2.773438 14.890625 -3.328125 C 15.804688 -3.878906 16.265625 -4.695312 16.265625 -5.78125 C 16.265625 -6.675781 15.984375 -7.367188 15.421875 -7.859375 C 14.859375 -8.347656 14.117188 -8.71875 13.203125 -8.96875 C 12.285156 -9.226562 11.300781 -9.460938 10.25 -9.671875 C 9.320312 -9.847656 8.398438 -10.050781 7.484375 -10.28125 C 6.578125 -10.519531 5.75 -10.84375 5 -11.25 C 4.257812 -11.664062 3.664062 -12.21875 3.21875 -12.90625 C 2.769531 -13.601562 2.546875 -14.492188 2.546875 -15.578125 C 2.546875 -16.910156 2.882812 -18.03125 3.5625 -18.9375 C 4.25 -19.851562 5.179688 -20.539062 6.359375 -21 C 7.546875 -21.46875 8.859375 -21.703125 10.296875 -21.703125 C 12.609375 -21.703125 14.535156 -21.101562 16.078125 -19.90625 C 17.617188 -18.707031 18.566406 -17.046875 18.921875 -14.921875 L 15.875 -14.921875 C 15.539062 -16.273438 14.878906 -17.257812 13.890625 -17.875 C 12.898438 -18.5 11.703125 -18.8125 10.296875 -18.8125 C 8.878906 -18.8125 7.78125 -18.546875 7 -18.015625 C 6.21875 -17.492188 5.828125 -16.769531 5.828125 -15.84375 C 5.828125 -15.09375 6.085938 -14.503906 6.609375 -14.078125 C 7.140625 -13.660156 7.828125 -13.34375 8.671875 -13.125 C 9.515625 -12.90625 10.425781 -12.691406 11.40625 -12.484375 C 12.363281 -12.304688 13.320312 -12.09375 14.28125 -11.84375 C 15.25 -11.601562 16.128906 -11.265625 16.921875 -10.828125 C 17.710938 -10.390625 18.347656 -9.796875 18.828125 -9.046875 C 19.304688 -8.304688 19.546875 -7.332031 19.546875 -6.125 C 19.546875 -4.175781 18.832031 -2.601562 17.40625 -1.40625 C 15.976562 -0.207031 13.953125 0.390625 11.328125 0.390625 Z M 11.328125 0.390625 "/></g></g></g></g></g></svg>