<svg xmlns="http://www.w3.org/2000/svg" xmlns:xlink="http://www.w3.org/1999/xlink" width="1920" zoomAndPan="magnify" viewBox="0 0 1440 809.999993" height="1080" preserveAspectRatio="xMidYMid meet" version="1.0"><defs><g/><clipPath id="7dc0928d16"><rect x="0" width="447" y="0" height="225"/></clipPath></defs><g fill="#ffffff" fill-opacity="1"><g transform="translate(111.363956, 430.247929)"><g><path d="M 75.203125 -53.296875 L 75.203125 -102.21875 L 78.40625 -102.21875 L 78.40625 0 L 75.203125 0 L 75.203125 -50.234375 L 12.5625 -50.234375 L 12.5625 0 L 9.484375 0 L 9.484375 -102.21875 L 12.5625 -102.21875 L 12.5625 -53.296875 Z M 75.203125 -53.296875 "/></g></g></g><g fill="#ffffff" fill-opacity="1"><g transform="translate(199.411418, 430.247929)"><g><path d="M 5.6875 -51.109375 C 5.6875 -58.304688 7.097656 -65.09375 9.921875 -71.46875 C 12.742188 -77.84375 16.492188 -83.414062 21.171875 -88.1875 C 25.847656 -93.0625 31.347656 -96.859375 37.671875 -99.578125 C 43.992188 -102.304688 50.710938 -103.671875 57.828125 -103.671875 C 65.117188 -103.671875 71.925781 -102.304688 78.25 -99.578125 C 84.582031 -96.859375 90.085938 -93.0625 94.765625 -88.1875 C 99.429688 -83.414062 103.148438 -77.84375 105.921875 -71.46875 C 108.703125 -65.09375 110.09375 -58.304688 110.09375 -51.109375 C 110.09375 -43.898438 108.703125 -37.128906 105.921875 -30.796875 C 103.148438 -24.472656 99.429688 -18.878906 94.765625 -14.015625 C 90.085938 -9.242188 84.582031 -5.472656 78.25 -2.703125 C 71.925781 0.0664062 65.117188 1.453125 57.828125 1.453125 C 50.710938 1.453125 43.992188 0.0664062 37.671875 -2.703125 C 31.347656 -5.472656 25.847656 -9.242188 21.171875 -14.015625 C 16.492188 -18.878906 12.742188 -24.472656 9.921875 -30.796875 C 7.097656 -37.128906 5.6875 -43.898438 5.6875 -51.109375 Z M 106.890625 -51.109375 C 106.890625 -57.921875 105.597656 -64.296875 103.015625 -70.234375 C 100.429688 -76.171875 96.953125 -81.378906 92.578125 -85.859375 C 88.191406 -90.335938 83.003906 -93.890625 77.015625 -96.515625 C 71.035156 -99.140625 64.640625 -100.453125 57.828125 -100.453125 C 51.109375 -100.453125 44.78125 -99.140625 38.84375 -96.515625 C 32.90625 -93.890625 27.695312 -90.335938 23.21875 -85.859375 C 18.9375 -81.378906 15.476562 -76.171875 12.84375 -70.234375 C 10.21875 -64.296875 8.90625 -57.921875 8.90625 -51.109375 C 8.90625 -44.296875 10.21875 -37.921875 12.84375 -31.984375 C 15.476562 -26.046875 18.9375 -20.835938 23.21875 -16.359375 C 27.695312 -11.878906 32.90625 -8.320312 38.84375 -5.6875 C 44.78125 -3.0625 51.109375 -1.75 57.828125 -1.75 C 64.640625 -1.75 71.035156 -3.0625 77.015625 -5.6875 C 83.003906 -8.320312 88.191406 -11.878906 92.578125 -16.359375 C 96.953125 -20.835938 100.429688 -26.046875 103.015625 -31.984375 C 105.597656 -37.921875 106.890625 -44.296875 106.890625 -51.109375 Z M 106.890625 -51.109375 "/></g></g></g><g fill="#ffffff" fill-opacity="1"><g transform="translate(315.931939, 430.247929)"><g><path d="M 45.84375 1.171875 C 41.65625 1.171875 37.441406 0.5625 33.203125 -0.65625 C 28.972656 -1.875 25.109375 -3.695312 21.609375 -6.125 C 18.109375 -8.5625 15.285156 -11.601562 13.140625 -15.25 C 10.992188 -18.90625 9.921875 -23.117188 9.921875 -27.890625 L 9.921875 -102.21875 L 13.140625 -102.21875 L 13.140625 -27.75 C 13.140625 -23.457031 14.113281 -19.707031 16.0625 -16.5 C 18.007812 -13.289062 20.5625 -10.613281 23.71875 -8.46875 C 26.882812 -6.320312 30.414062 -4.710938 34.3125 -3.640625 C 38.207031 -2.578125 42.050781 -2.046875 45.84375 -2.046875 C 49.644531 -2.046875 53.488281 -2.578125 57.375 -3.640625 C 61.269531 -4.710938 64.800781 -6.320312 67.96875 -8.46875 C 71.132812 -10.613281 73.691406 -13.289062 75.640625 -16.5 C 77.585938 -19.707031 78.5625 -23.503906 78.5625 -27.890625 L 78.5625 -102.21875 L 81.765625 -102.21875 L 81.765625 -27.75 C 81.765625 -22.976562 80.691406 -18.789062 78.546875 -15.1875 C 76.410156 -11.582031 73.585938 -8.5625 70.078125 -6.125 C 66.578125 -3.695312 62.707031 -1.875 58.46875 -0.65625 C 54.238281 0.5625 50.03125 1.171875 45.84375 1.171875 Z M 45.84375 1.171875 "/></g></g></g><g fill="#ffffff" fill-opacity="1"><g transform="translate(407.045719, 430.247929)"><g><path d="M 72.71875 -80.3125 C 72.320312 -82.257812 71.660156 -84.203125 70.734375 -86.140625 C 69.816406 -88.085938 68.675781 -89.796875 67.3125 -91.265625 C 64.394531 -94.273438 60.671875 -96.535156 56.140625 -98.046875 C 51.617188 -99.554688 47.210938 -100.3125 42.921875 -100.3125 C 38.160156 -100.3125 33.269531 -99.410156 28.25 -97.609375 C 23.238281 -95.804688 19.175781 -92.910156 16.0625 -88.921875 C 14.5 -87.078125 13.378906 -85.035156 12.703125 -82.796875 C 12.023438 -80.554688 11.6875 -78.265625 11.6875 -75.921875 C 11.6875 -71.148438 12.632812 -67.328125 14.53125 -64.453125 C 16.425781 -61.585938 18.976562 -59.398438 22.1875 -57.890625 C 25.40625 -56.378906 28.9375 -55.257812 32.78125 -54.53125 C 36.625 -53.800781 40.445312 -53.242188 44.25 -52.859375 C 47.945312 -52.472656 51.617188 -51.984375 55.265625 -51.390625 C 58.921875 -50.804688 62.328125 -49.859375 65.484375 -48.546875 C 68.648438 -47.234375 71.351562 -45.40625 73.59375 -43.0625 C 75.832031 -40.726562 77.390625 -37.617188 78.265625 -33.734375 C 78.753906 -31.492188 79 -29.398438 79 -27.453125 C 79 -22.972656 77.953125 -18.957031 75.859375 -15.40625 C 73.765625 -11.851562 70.960938 -8.859375 67.453125 -6.421875 C 63.953125 -3.992188 60.0625 -2.144531 55.78125 -0.875 C 51.5 0.382812 47.164062 1.015625 42.78125 1.015625 C 39.082031 1.015625 35.285156 0.484375 31.390625 -0.578125 C 27.492188 -1.648438 23.84375 -3.253906 20.4375 -5.390625 C 17.03125 -7.535156 14.207031 -10.164062 11.96875 -13.28125 C 9.726562 -16.394531 8.367188 -20.046875 7.890625 -24.234375 L 7.734375 -25.546875 L 10.953125 -25.84375 L 11.09375 -24.53125 C 11.78125 -19.664062 13.800781 -15.550781 17.15625 -12.1875 C 20.507812 -8.832031 24.523438 -6.300781 29.203125 -4.59375 C 33.878906 -2.894531 38.453125 -2.046875 42.921875 -2.046875 C 48.179688 -2.046875 53.316406 -3.039062 58.328125 -5.03125 C 63.347656 -7.03125 67.488281 -9.925781 70.75 -13.71875 C 74.007812 -17.519531 75.640625 -22.144531 75.640625 -27.59375 C 75.640625 -28.375 75.585938 -29.226562 75.484375 -30.15625 C 75.390625 -31.082031 75.242188 -32.03125 75.046875 -33 C 74.078125 -37.476562 71.960938 -40.8125 68.703125 -43 C 65.441406 -45.1875 61.59375 -46.742188 57.15625 -47.671875 C 52.726562 -48.597656 48.226562 -49.304688 43.65625 -49.796875 C 39.757812 -50.179688 35.835938 -50.710938 31.890625 -51.390625 C 27.953125 -52.078125 24.304688 -53.222656 20.953125 -54.828125 C 17.597656 -56.429688 14.820312 -58.71875 12.625 -61.6875 C 10.4375 -64.65625 9.148438 -68.625 8.765625 -73.59375 C 8.566406 -76.414062 8.878906 -79.382812 9.703125 -82.5 C 10.535156 -85.613281 11.875 -88.390625 13.71875 -90.828125 C 16.9375 -95.003906 21.222656 -98.140625 26.578125 -100.234375 C 31.929688 -102.328125 37.476562 -103.375 43.21875 -103.375 C 48.28125 -103.375 53.125 -102.546875 57.75 -100.890625 C 62.375 -99.242188 66.289062 -96.785156 69.5 -93.515625 C 72.71875 -90.253906 74.8125 -86.09375 75.78125 -81.03125 L 76.078125 -79.28125 L 73.015625 -78.84375 Z M 72.71875 -80.3125 "/></g></g></g><g fill="#ffffff" fill-opacity="1"><g transform="translate(493.048981, 430.247929)"><g><path d="M 66.4375 -3.0625 L 66.4375 0 L 9.484375 0 L 9.484375 -102.21875 L 66.140625 -102.21875 L 66.140625 -99.140625 L 12.5625 -99.140625 L 12.5625 -52.71875 L 64.984375 -52.71875 L 64.984375 -49.5 L 12.5625 -49.5 L 12.5625 -3.0625 Z M 66.4375 -3.0625 "/></g></g></g><g fill="#ffffff" fill-opacity="1"><g transform="translate(566.20378, 430.247929)"><g/></g></g><g fill="#ffffff" fill-opacity="1"><g transform="translate(605.774037, 430.247929)"><g/></g></g><g fill="#ffffff" fill-opacity="1"><g transform="translate(645.352214, 430.247929)"><g><path d="M 5.6875 -51.109375 C 5.6875 -58.304688 7.097656 -65.09375 9.921875 -71.46875 C 12.742188 -77.84375 16.492188 -83.414062 21.171875 -88.1875 C 25.847656 -93.0625 31.347656 -96.859375 37.671875 -99.578125 C 43.992188 -102.304688 50.710938 -103.671875 57.828125 -103.671875 C 65.117188 -103.671875 71.925781 -102.304688 78.25 -99.578125 C 84.582031 -96.859375 90.085938 -93.0625 94.765625 -88.1875 C 99.429688 -83.414062 103.148438 -77.84375 105.921875 -71.46875 C 108.703125 -65.09375 110.09375 -58.304688 110.09375 -51.109375 C 110.09375 -43.898438 108.703125 -37.128906 105.921875 -30.796875 C 103.148438 -24.472656 99.429688 -18.878906 94.765625 -14.015625 C 90.085938 -9.242188 84.582031 -5.472656 78.25 -2.703125 C 71.925781 0.0664062 65.117188 1.453125 57.828125 1.453125 C 50.710938 1.453125 43.992188 0.0664062 37.671875 -2.703125 C 31.347656 -5.472656 25.847656 -9.242188 21.171875 -14.015625 C 16.492188 -18.878906 12.742188 -24.472656 9.921875 -30.796875 C 7.097656 -37.128906 5.6875 -43.898438 5.6875 -51.109375 Z M 106.890625 -51.109375 C 106.890625 -57.921875 105.597656 -64.296875 103.015625 -70.234375 C 100.429688 -76.171875 96.953125 -81.378906 92.578125 -85.859375 C 88.191406 -90.335938 83.003906 -93.890625 77.015625 -96.515625 C 71.035156 -99.140625 64.640625 -100.453125 57.828125 -100.453125 C 51.109375 -100.453125 44.78125 -99.140625 38.84375 -96.515625 C 32.90625 -93.890625 27.695312 -90.335938 23.21875 -85.859375 C 18.9375 -81.378906 15.476562 -76.171875 12.84375 -70.234375 C 10.21875 -64.296875 8.90625 -57.921875 8.90625 -51.109375 C 8.90625 -44.296875 10.21875 -37.921875 12.84375 -31.984375 C 15.476562 -26.046875 18.9375 -20.835938 23.21875 -16.359375 C 27.695312 -11.878906 32.90625 -8.320312 38.84375 -5.6875 C 44.78125 -3.0625 51.109375 -1.75 57.828125 -1.75 C 64.640625 -1.75 71.035156 -3.0625 77.015625 -5.6875 C 83.003906 -8.320312 88.191406 -11.878906 92.578125 -16.359375 C 96.953125 -20.835938 100.429688 -26.046875 103.015625 -31.984375 C 105.597656 -37.921875 106.890625 -44.296875 106.890625 -51.109375 Z M 106.890625 -51.109375 "/></g></g></g><g fill="#ffffff" fill-opacity="1"><g transform="translate(761.872735, 430.247929)"><g><path d="M 9.484375 0 L 9.484375 -102.21875 L 64.828125 -102.21875 L 64.828125 -99.140625 L 12.40625 -99.140625 L 12.40625 -52.71875 L 58.84375 -52.71875 L 58.84375 -49.5 L 12.40625 -49.5 L 12.40625 0 Z M 9.484375 0 "/></g></g></g><g transform="matrix(1, 0, 0, 1, 883, 257)"><g clip-path="url(#7dc0928d16)"><g fill="#ffffff" fill-opacity="1"><g transform="translate(0.58879, 177.828418)"><g><path d="M 118.859375 0 L 100.578125 0 L 100.578125 -13.625 C 98.210938 -10.007812 94.976562 -7.082031 90.875 -4.84375 C 86.769531 -2.613281 82.414062 -1 77.8125 0 C 73.207031 1 68.789062 1.554688 64.5625 1.671875 C 52.863281 1.671875 42.972656 -0.78125 34.890625 -5.6875 C 26.804688 -10.601562 20.679688 -17.070312 16.515625 -25.09375 C 12.347656 -33.113281 10.265625 -41.726562 10.265625 -50.9375 C 10.265625 -60.019531 12.378906 -68.476562 16.609375 -76.3125 C 20.835938 -84.15625 26.992188 -90.5 35.078125 -95.34375 C 43.160156 -100.195312 52.863281 -102.625 64.1875 -102.625 C 68.414062 -102.625 72.769531 -102.21875 77.25 -101.40625 C 81.726562 -100.601562 86.019531 -99.113281 90.125 -96.9375 C 94.226562 -94.757812 97.773438 -91.617188 100.765625 -87.515625 L 100.578125 -100.953125 L 118.859375 -100.953125 Z M 100.578125 -50.5625 C 100.578125 -58.65625 98.738281 -65.34375 95.0625 -70.625 C 91.394531 -75.914062 86.757812 -79.894531 81.15625 -82.5625 C 75.5625 -85.238281 69.90625 -86.578125 64.1875 -86.578125 C 56.84375 -86.578125 50.492188 -84.988281 45.140625 -81.8125 C 39.796875 -78.644531 35.691406 -74.382812 32.828125 -69.03125 C 29.972656 -63.6875 28.546875 -57.65625 28.546875 -50.9375 C 28.546875 -44.59375 29.972656 -38.648438 32.828125 -33.109375 C 35.691406 -27.578125 39.769531 -23.097656 45.0625 -19.671875 C 50.351562 -16.253906 56.726562 -14.546875 64.1875 -14.546875 C 69.78125 -14.546875 75.375 -15.851562 80.96875 -18.46875 C 86.570312 -21.082031 91.238281 -25.0625 94.96875 -30.40625 C 98.707031 -35.757812 100.578125 -42.476562 100.578125 -50.5625 Z M 100.578125 -50.5625 "/></g></g></g><g fill="#ffffff" fill-opacity="1"><g transform="translate(131.576366, 177.828418)"><g><path d="M 14 0 L 14 -130.609375 L 32.28125 -130.609375 L 32.28125 0 Z M 14 0 "/></g></g></g><g fill="#ffffff" fill-opacity="1"><g transform="translate(177.851177, 177.828418)"><g><path d="M 37.875 -100.953125 L 60.078125 -100.953125 L 60.078125 -86.390625 L 37.875 -86.390625 L 37.875 -29.484375 C 37.875 -23.515625 39.242188 -19.5625 41.984375 -17.625 C 44.722656 -15.695312 48.394531 -14.734375 53 -14.734375 C 54.113281 -14.734375 55.320312 -14.765625 56.625 -14.828125 C 57.9375 -14.890625 59.273438 -14.984375 60.640625 -15.109375 L 60.640625 0.1875 C 59.148438 0.3125 57.71875 0.40625 56.34375 0.46875 C 54.976562 0.53125 53.613281 0.5625 52.25 0.5625 C 45.65625 0.5625 39.898438 -0.335938 34.984375 -2.140625 C 30.066406 -3.941406 26.269531 -7.019531 23.59375 -11.375 C 20.925781 -15.726562 19.59375 -21.828125 19.59375 -29.671875 L 19.59375 -86.390625 L 4.484375 -86.390625 L 4.484375 -100.953125 L 19.59375 -100.953125 L 19.59375 -119.796875 L 37.875 -123.34375 Z M 37.875 -100.953125 "/></g></g></g><g fill="#ffffff" fill-opacity="1"><g transform="translate(242.038827, 177.828418)"><g><path d="M 32.09375 -88.453125 C 35.695312 -93.546875 39.957031 -97.242188 44.875 -99.546875 C 49.789062 -101.847656 55.046875 -103 60.640625 -103 C 62.628906 -103 64.617188 -102.875 66.609375 -102.625 C 68.597656 -102.375 70.585938 -102 72.578125 -101.5 L 72.578125 -85.453125 C 69.597656 -86.328125 66.488281 -86.765625 63.25 -86.765625 C 57.65625 -86.765625 52.492188 -85.363281 47.765625 -82.5625 C 43.035156 -79.769531 39.238281 -75.976562 36.375 -71.1875 C 33.519531 -66.394531 32.09375 -60.890625 32.09375 -54.671875 L 32.09375 0 L 14 0 L 14 -100.765625 L 32.09375 -100.765625 Z M 32.09375 -88.453125 "/></g></g></g><g fill="#ffffff" fill-opacity="1"><g transform="translate(314.622981, 177.828418)"><g><path d="M 118.859375 0 L 100.578125 0 L 100.578125 -13.625 C 98.210938 -10.007812 94.976562 -7.082031 90.875 -4.84375 C 86.769531 -2.613281 82.414062 -1 77.8125 0 C 73.207031 1 68.789062 1.554688 64.5625 1.671875 C 52.863281 1.671875 42.972656 -0.78125 34.890625 -5.6875 C 26.804688 -10.601562 20.679688 -17.070312 16.515625 -25.09375 C 12.347656 -33.113281 10.265625 -41.726562 10.265625 -50.9375 C 10.265625 -60.019531 12.378906 -68.476562 16.609375 -76.3125 C 20.835938 -84.15625 26.992188 -90.5 35.078125 -95.34375 C 43.160156 -100.195312 52.863281 -102.625 64.1875 -102.625 C 68.414062 -102.625 72.769531 -102.21875 77.25 -101.40625 C 81.726562 -100.601562 86.019531 -99.113281 90.125 -96.9375 C 94.226562 -94.757812 97.773438 -91.617188 100.765625 -87.515625 L 100.578125 -100.953125 L 118.859375 -100.953125 Z M 100.578125 -50.5625 C 100.578125 -58.65625 98.738281 -65.34375 95.0625 -70.625 C 91.394531 -75.914062 86.757812 -79.894531 81.15625 -82.5625 C 75.5625 -85.238281 69.90625 -86.578125 64.1875 -86.578125 C 56.84375 -86.578125 50.492188 -84.988281 45.140625 -81.8125 C 39.796875 -78.644531 35.691406 -74.382812 32.828125 -69.03125 C 29.972656 -63.6875 28.546875 -57.65625 28.546875 -50.9375 C 28.546875 -44.59375 29.972656 -38.648438 32.828125 -33.109375 C 35.691406 -27.578125 39.769531 -23.097656 45.0625 -19.671875 C 50.351562 -16.253906 56.726562 -14.546875 64.1875 -14.546875 C 69.78125 -14.546875 75.375 -15.851562 80.96875 -18.46875 C 86.570312 -21.082031 91.238281 -25.0625 94.96875 -30.40625 C 98.707031 -35.757812 100.578125 -42.476562 100.578125 -50.5625 Z M 100.578125 -50.5625 "/></g></g></g></g></g><g fill="#ffffff" fill-opacity="1"><g transform="translate(547.776072, 543.592721)"><g><path d="M 14.203125 0.359375 C 12.078125 0.359375 10.234375 -0.0078125 8.671875 -0.75 C 7.109375 -1.5 5.8125 -2.519531 4.78125 -3.8125 C 3.757812 -5.113281 3 -6.59375 2.5 -8.25 C 2.007812 -9.90625 1.765625 -11.65625 1.765625 -13.5 C 1.765625 -15.332031 2.007812 -17.070312 2.5 -18.71875 C 3 -20.375 3.757812 -21.847656 4.78125 -23.140625 C 5.8125 -24.429688 7.109375 -25.445312 8.671875 -26.1875 C 10.234375 -26.9375 12.078125 -27.3125 14.203125 -27.3125 C 16.203125 -27.3125 17.960938 -26.976562 19.484375 -26.3125 C 21.003906 -25.65625 22.234375 -24.738281 23.171875 -23.5625 C 24.117188 -22.382812 24.722656 -21.03125 24.984375 -19.5 L 21.4375 -19.5 C 21.113281 -21.007812 20.300781 -22.203125 19 -23.078125 C 17.707031 -23.960938 16.082031 -24.40625 14.125 -24.40625 C 12.125 -24.40625 10.445312 -23.929688 9.09375 -22.984375 C 7.738281 -22.046875 6.71875 -20.753906 6.03125 -19.109375 C 5.351562 -17.460938 5.015625 -15.59375 5.015625 -13.5 C 5.015625 -11.394531 5.351562 -9.515625 6.03125 -7.859375 C 6.71875 -6.203125 7.738281 -4.898438 9.09375 -3.953125 C 10.445312 -3.015625 12.125 -2.546875 14.125 -2.546875 C 16.082031 -2.546875 17.707031 -3.015625 19 -3.953125 C 20.300781 -4.898438 21.113281 -6.300781 21.4375 -8.15625 L 24.984375 -8.15625 C 24.554688 -5.539062 23.40625 -3.46875 21.53125 -1.9375 C 19.65625 -0.40625 17.210938 0.359375 14.203125 0.359375 Z M 14.203125 0.359375 "/></g></g></g><g fill="#ffffff" fill-opacity="1"><g transform="translate(574.902241, 543.592721)"><g><path d="M 11.234375 0.359375 C 9.367188 0.359375 7.71875 -0.078125 6.28125 -0.953125 C 4.851562 -1.828125 3.734375 -3.035156 2.921875 -4.578125 C 2.109375 -6.117188 1.703125 -7.878906 1.703125 -9.859375 C 1.703125 -11.785156 2.109375 -13.503906 2.921875 -15.015625 C 3.734375 -16.523438 4.851562 -17.710938 6.28125 -18.578125 C 7.71875 -19.453125 9.367188 -19.890625 11.234375 -19.890625 C 13.097656 -19.890625 14.753906 -19.453125 16.203125 -18.578125 C 17.648438 -17.710938 18.785156 -16.523438 19.609375 -15.015625 C 20.429688 -13.503906 20.84375 -11.785156 20.84375 -9.859375 C 20.84375 -7.898438 20.4375 -6.148438 19.625 -4.609375 C 18.8125 -3.066406 17.679688 -1.851562 16.234375 -0.96875 C 14.785156 -0.0820312 13.117188 0.359375 11.234375 0.359375 Z M 11.234375 -2.296875 C 12.484375 -2.296875 13.601562 -2.625 14.59375 -3.28125 C 15.582031 -3.945312 16.363281 -4.847656 16.9375 -5.984375 C 17.519531 -7.128906 17.8125 -8.421875 17.8125 -9.859375 C 17.8125 -11.242188 17.523438 -12.492188 16.953125 -13.609375 C 16.390625 -14.734375 15.613281 -15.617188 14.625 -16.265625 C 13.632812 -16.910156 12.503906 -17.234375 11.234375 -17.234375 C 9.984375 -17.234375 8.863281 -16.914062 7.875 -16.28125 C 6.882812 -15.644531 6.109375 -14.765625 5.546875 -13.640625 C 4.984375 -12.523438 4.703125 -11.265625 4.703125 -9.859375 C 4.703125 -8.398438 4.988281 -7.097656 5.5625 -5.953125 C 6.144531 -4.804688 6.925781 -3.910156 7.90625 -3.265625 C 8.894531 -2.617188 10.003906 -2.296875 11.234375 -2.296875 Z M 11.234375 -2.296875 "/></g></g></g><g fill="#ffffff" fill-opacity="1"><g transform="translate(598.178493, 543.592721)"><g><path d="M 5.515625 0 L 2.515625 0 L 2.515625 -19.53125 L 5.515625 -19.53125 L 5.515625 -16.5 C 6.503906 -17.769531 7.453125 -18.648438 8.359375 -19.140625 C 9.265625 -19.640625 10.25 -19.890625 11.3125 -19.890625 C 12.832031 -19.890625 14.050781 -19.597656 14.96875 -19.015625 C 15.894531 -18.441406 16.59375 -17.707031 17.0625 -16.8125 C 17.53125 -15.945312 17.800781 -15.039062 17.875 -14.09375 C 17.945312 -13.15625 17.984375 -12.378906 17.984375 -11.765625 L 17.984375 0 L 14.984375 0 L 14.984375 -11.765625 C 14.984375 -13.835938 14.601562 -15.296875 13.84375 -16.140625 C 13.1875 -16.867188 12.1875 -17.234375 10.84375 -17.234375 C 10.039062 -17.234375 9.34375 -17.101562 8.75 -16.84375 C 8.164062 -16.59375 7.675781 -16.242188 7.28125 -15.796875 C 6.644531 -15.128906 6.191406 -14.21875 5.921875 -13.0625 C 5.648438 -11.914062 5.515625 -10.34375 5.515625 -8.34375 Z M 5.515625 0 "/></g></g></g><g fill="#ffffff" fill-opacity="1"><g transform="translate(619.229556, 543.592721)"><g><path d="M 5.515625 0 L 2.515625 0 L 2.515625 -19.53125 L 5.515625 -19.53125 L 5.515625 -16.5 C 6.503906 -17.769531 7.453125 -18.648438 8.359375 -19.140625 C 9.265625 -19.640625 10.25 -19.890625 11.3125 -19.890625 C 12.832031 -19.890625 14.050781 -19.597656 14.96875 -19.015625 C 15.894531 -18.441406 16.59375 -17.707031 17.0625 -16.8125 C 17.53125 -15.945312 17.800781 -15.039062 17.875 -14.09375 C 17.945312 -13.15625 17.984375 -12.378906 17.984375 -11.765625 L 17.984375 0 L 14.984375 0 L 14.984375 -11.765625 C 14.984375 -13.835938 14.601562 -15.296875 13.84375 -16.140625 C 13.1875 -16.867188 12.1875 -17.234375 10.84375 -17.234375 C 10.039062 -17.234375 9.34375 -17.101562 8.75 -16.84375 C 8.164062 -16.59375 7.675781 -16.242188 7.28125 -15.796875 C 6.644531 -15.128906 6.191406 -14.21875 5.921875 -13.0625 C 5.648438 -11.914062 5.515625 -10.34375 5.515625 -8.34375 Z M 5.515625 0 "/></g></g></g><g fill="#ffffff" fill-opacity="1"><g transform="translate(640.280619, 543.592721)"><g><path d="M 11.203125 0.359375 C 9.335938 0.359375 7.6875 -0.0820312 6.25 -0.96875 C 4.8125 -1.851562 3.691406 -3.054688 2.890625 -4.578125 C 2.097656 -6.097656 1.703125 -7.8125 1.703125 -9.71875 C 1.703125 -11.476562 2.066406 -13.132812 2.796875 -14.6875 C 3.523438 -16.25 4.59375 -17.503906 6 -18.453125 C 7.414062 -19.410156 9.125 -19.890625 11.125 -19.890625 C 12.769531 -19.890625 14.304688 -19.523438 15.734375 -18.796875 C 17.160156 -18.066406 18.320312 -16.984375 19.21875 -15.546875 C 20.113281 -14.109375 20.5625 -12.34375 20.5625 -10.25 L 20.5625 -9.1875 L 4.65625 -9.1875 C 4.707031 -8.5 4.835938 -7.851562 5.046875 -7.25 C 5.546875 -5.738281 6.335938 -4.535156 7.421875 -3.640625 C 8.503906 -2.742188 9.75 -2.296875 11.15625 -2.296875 C 12.644531 -2.296875 13.882812 -2.6875 14.875 -3.46875 C 15.863281 -4.257812 16.570312 -5.195312 17 -6.28125 L 20.203125 -6.28125 C 19.804688 -5.0625 19.207031 -3.953125 18.40625 -2.953125 C 17.601562 -1.953125 16.609375 -1.148438 15.421875 -0.546875 C 14.234375 0.0546875 12.828125 0.359375 11.203125 0.359375 Z M 4.953125 -11.828125 L 17.34375 -11.828125 C 17.320312 -12.160156 17.273438 -12.488281 17.203125 -12.8125 C 17.128906 -13.144531 17.035156 -13.457031 16.921875 -13.75 C 16.398438 -14.875 15.628906 -15.734375 14.609375 -16.328125 C 13.585938 -16.929688 12.453125 -17.234375 11.203125 -17.234375 C 9.898438 -17.234375 8.757812 -16.925781 7.78125 -16.3125 C 6.8125 -15.707031 6.054688 -14.851562 5.515625 -13.75 C 5.367188 -13.4375 5.25 -13.113281 5.15625 -12.78125 C 5.0625 -12.457031 4.992188 -12.140625 4.953125 -11.828125 Z M 4.953125 -11.828125 "/></g></g></g><g fill="#ffffff" fill-opacity="1"><g transform="translate(663.203659, 543.592721)"><g><path d="M 11.15625 0.359375 C 9.320312 0.359375 7.691406 -0.078125 6.265625 -0.953125 C 4.847656 -1.828125 3.734375 -3.035156 2.921875 -4.578125 C 2.109375 -6.117188 1.703125 -7.878906 1.703125 -9.859375 C 1.703125 -11.785156 2.097656 -13.503906 2.890625 -15.015625 C 3.691406 -16.523438 4.804688 -17.710938 6.234375 -18.578125 C 7.660156 -19.453125 9.300781 -19.890625 11.15625 -19.890625 C 13.351562 -19.890625 15.207031 -19.320312 16.71875 -18.1875 C 18.238281 -17.0625 19.222656 -15.554688 19.671875 -13.671875 L 16.46875 -13.671875 C 16.082031 -14.773438 15.410156 -15.644531 14.453125 -16.28125 C 13.503906 -16.914062 12.40625 -17.234375 11.15625 -17.234375 C 9.9375 -17.234375 8.835938 -16.914062 7.859375 -16.28125 C 6.878906 -15.644531 6.109375 -14.773438 5.546875 -13.671875 C 4.984375 -12.566406 4.703125 -11.296875 4.703125 -9.859375 C 4.703125 -8.367188 4.984375 -7.054688 5.546875 -5.921875 C 6.109375 -4.796875 6.878906 -3.910156 7.859375 -3.265625 C 8.835938 -2.617188 9.9375 -2.296875 11.15625 -2.296875 C 12.53125 -2.296875 13.703125 -2.660156 14.671875 -3.390625 C 15.648438 -4.117188 16.296875 -5.082031 16.609375 -6.28125 L 19.8125 -6.28125 C 19.394531 -4.207031 18.394531 -2.582031 16.8125 -1.40625 C 15.238281 -0.226562 13.351562 0.359375 11.15625 0.359375 Z M 11.15625 0.359375 "/></g></g></g><g fill="#ffffff" fill-opacity="1"><g transform="translate(685.173053, 543.592721)"><g><path d="M 11.453125 0 L 8.71875 0 C 7.757812 0 6.929688 -0.132812 6.234375 -0.40625 C 5.535156 -0.675781 5.003906 -1.171875 4.640625 -1.890625 C 4.273438 -2.609375 4.09375 -3.613281 4.09375 -4.90625 L 4.09375 -16.890625 L 0.953125 -16.890625 L 0.953125 -19.53125 L 4.09375 -19.53125 L 4.09375 -26.953125 L 7.09375 -26.953125 L 7.09375 -19.53125 L 11.484375 -19.53125 L 11.484375 -16.890625 L 7.09375 -16.890625 L 7.09375 -5.515625 C 7.09375 -4.941406 7.132812 -4.4375 7.21875 -4 C 7.300781 -3.570312 7.507812 -3.238281 7.84375 -3 C 8.175781 -2.769531 8.707031 -2.65625 9.4375 -2.65625 L 11.453125 -2.65625 Z M 11.453125 0 "/></g></g></g><g fill="#ffffff" fill-opacity="1"><g transform="translate(698.630229, 543.592721)"><g><path d="M 4.03125 -22.890625 C 3.394531 -22.890625 2.851562 -23.109375 2.40625 -23.546875 C 1.957031 -23.984375 1.734375 -24.507812 1.734375 -25.125 C 1.734375 -25.726562 1.957031 -26.242188 2.40625 -26.671875 C 2.851562 -27.097656 3.394531 -27.3125 4.03125 -27.3125 C 4.664062 -27.3125 5.207031 -27.097656 5.65625 -26.671875 C 6.101562 -26.242188 6.328125 -25.726562 6.328125 -25.125 C 6.328125 -24.507812 6.101562 -23.984375 5.65625 -23.546875 C 5.207031 -23.109375 4.664062 -22.890625 4.03125 -22.890625 Z M 5.515625 0 L 2.515625 0 L 2.515625 -19.53125 L 5.515625 -19.53125 Z M 5.515625 0 "/></g></g></g><g fill="#ffffff" fill-opacity="1"><g transform="translate(707.354471, 543.592721)"><g><path d="M 5.515625 0 L 2.515625 0 L 2.515625 -19.53125 L 5.515625 -19.53125 L 5.515625 -16.5 C 6.503906 -17.769531 7.453125 -18.648438 8.359375 -19.140625 C 9.265625 -19.640625 10.25 -19.890625 11.3125 -19.890625 C 12.832031 -19.890625 14.050781 -19.597656 14.96875 -19.015625 C 15.894531 -18.441406 16.59375 -17.707031 17.0625 -16.8125 C 17.53125 -15.945312 17.800781 -15.039062 17.875 -14.09375 C 17.945312 -13.15625 17.984375 -12.378906 17.984375 -11.765625 L 17.984375 0 L 14.984375 0 L 14.984375 -11.765625 C 14.984375 -13.835938 14.601562 -15.296875 13.84375 -16.140625 C 13.1875 -16.867188 12.1875 -17.234375 10.84375 -17.234375 C 10.039062 -17.234375 9.34375 -17.101562 8.75 -16.84375 C 8.164062 -16.59375 7.675781 -16.242188 7.28125 -15.796875 C 6.644531 -15.128906 6.191406 -14.21875 5.921875 -13.0625 C 5.648438 -11.914062 5.515625 -10.34375 5.515625 -8.34375 Z M 5.515625 0 "/></g></g></g><g fill="#ffffff" fill-opacity="1"><g transform="translate(728.405534, 543.592721)"><g><path d="M 11.125 7.765625 C 9.8125 7.765625 8.535156 7.578125 7.296875 7.203125 C 6.054688 6.828125 4.992188 6.191406 4.109375 5.296875 C 3.234375 4.398438 2.664062 3.164062 2.40625 1.59375 L 5.46875 1.59375 C 5.78125 2.75 6.394531 3.625 7.3125 4.21875 C 8.226562 4.820312 9.488281 5.125 11.09375 5.125 C 13.144531 5.125 14.628906 4.65625 15.546875 3.71875 C 16.460938 2.789062 16.921875 1.515625 16.921875 -0.109375 L 16.921875 -3.03125 C 15.910156 -1.738281 14.921875 -0.847656 13.953125 -0.359375 C 12.984375 0.117188 11.84375 0.359375 10.53125 0.359375 C 8.78125 0.359375 7.25 -0.0625 5.9375 -0.90625 C 4.632812 -1.757812 3.625 -2.945312 2.90625 -4.46875 C 2.195312 -5.988281 1.84375 -7.726562 1.84375 -9.6875 C 1.84375 -11.707031 2.195312 -13.484375 2.90625 -15.015625 C 3.625 -16.546875 4.628906 -17.738281 5.921875 -18.59375 C 7.222656 -19.457031 8.75 -19.890625 10.5 -19.890625 C 11.863281 -19.890625 13.023438 -19.640625 13.984375 -19.140625 C 14.953125 -18.648438 15.929688 -17.769531 16.921875 -16.5 L 16.921875 -19.53125 L 19.921875 -19.53125 L 19.921875 -0.671875 C 19.921875 1.453125 19.546875 3.125 18.796875 4.34375 C 18.046875 5.570312 17.007812 6.445312 15.6875 6.96875 C 14.363281 7.5 12.84375 7.765625 11.125 7.765625 Z M 10.8125 -2.296875 C 12.03125 -2.296875 13.101562 -2.617188 14.03125 -3.265625 C 14.96875 -3.910156 15.703125 -4.796875 16.234375 -5.921875 C 16.765625 -7.054688 17.03125 -8.34375 17.03125 -9.78125 C 17.03125 -11.21875 16.757812 -12.492188 16.21875 -13.609375 C 15.675781 -14.734375 14.9375 -15.617188 14 -16.265625 C 13.070312 -16.910156 12.007812 -17.234375 10.8125 -17.234375 C 9.582031 -17.234375 8.519531 -16.90625 7.625 -16.25 C 6.726562 -15.59375 6.039062 -14.703125 5.5625 -13.578125 C 5.082031 -12.460938 4.84375 -11.195312 4.84375 -9.78125 C 4.84375 -8.375 5.082031 -7.101562 5.5625 -5.96875 C 6.039062 -4.84375 6.726562 -3.945312 7.625 -3.28125 C 8.519531 -2.625 9.582031 -2.296875 10.8125 -2.296875 Z M 10.8125 -2.296875 "/></g></g></g><g fill="#ffffff" fill-opacity="1"><g transform="translate(751.540497, 543.592721)"><g/></g></g><g fill="#ffffff" fill-opacity="1"><g transform="translate(762.136718, 543.592721)"><g><path d="M 3.78125 0 L 0.5 0 L 10.421875 -26.953125 L 14.09375 -26.953125 L 24.015625 0 L 20.734375 0 L 18.375 -6.609375 L 6.140625 -6.609375 Z M 12.265625 -23.640625 L 7.25 -9.5 L 17.28125 -9.5 Z M 12.265625 -23.640625 "/></g></g></g><g fill="#ffffff" fill-opacity="1"><g transform="translate(787.355604, 543.592721)"><g><path d="M 10.390625 0.359375 C 7.890625 0.359375 5.867188 -0.234375 4.328125 -1.421875 C 2.785156 -2.617188 1.847656 -4.238281 1.515625 -6.28125 L 4.65625 -6.28125 C 4.914062 -5.101562 5.503906 -4.144531 6.421875 -3.40625 C 7.347656 -2.664062 8.679688 -2.296875 10.421875 -2.296875 C 11.742188 -2.296875 12.820312 -2.546875 13.65625 -3.046875 C 14.488281 -3.554688 14.90625 -4.304688 14.90625 -5.296875 C 14.90625 -6.117188 14.644531 -6.753906 14.125 -7.203125 C 13.613281 -7.648438 12.9375 -7.988281 12.09375 -8.21875 C 11.257812 -8.457031 10.359375 -8.675781 9.390625 -8.875 C 8.546875 -9.03125 7.703125 -9.210938 6.859375 -9.421875 C 6.023438 -9.640625 5.265625 -9.9375 4.578125 -10.3125 C 3.898438 -10.6875 3.351562 -11.191406 2.9375 -11.828125 C 2.53125 -12.460938 2.328125 -13.273438 2.328125 -14.265625 C 2.328125 -15.492188 2.640625 -16.523438 3.265625 -17.359375 C 3.890625 -18.203125 4.742188 -18.832031 5.828125 -19.25 C 6.910156 -19.675781 8.113281 -19.890625 9.4375 -19.890625 C 11.550781 -19.890625 13.3125 -19.34375 14.71875 -18.25 C 16.132812 -17.15625 17.007812 -15.628906 17.34375 -13.671875 L 14.5625 -13.671875 C 14.25 -14.921875 13.640625 -15.828125 12.734375 -16.390625 C 11.828125 -16.953125 10.726562 -17.234375 9.4375 -17.234375 C 8.132812 -17.234375 7.125 -16.992188 6.40625 -16.515625 C 5.6875 -16.035156 5.328125 -15.367188 5.328125 -14.515625 C 5.328125 -13.835938 5.566406 -13.300781 6.046875 -12.90625 C 6.535156 -12.519531 7.164062 -12.226562 7.9375 -12.03125 C 8.71875 -11.832031 9.554688 -11.640625 10.453125 -11.453125 C 11.328125 -11.285156 12.203125 -11.085938 13.078125 -10.859375 C 13.960938 -10.640625 14.769531 -10.328125 15.5 -9.921875 C 16.238281 -9.523438 16.820312 -8.984375 17.25 -8.296875 C 17.6875 -7.617188 17.90625 -6.722656 17.90625 -5.609375 C 17.90625 -3.828125 17.25 -2.382812 15.9375 -1.28125 C 14.632812 -0.1875 12.785156 0.359375 10.390625 0.359375 Z M 10.390625 0.359375 "/></g></g></g><g fill="#ffffff" fill-opacity="1"><g transform="translate(807.735563, 543.592721)"><g><path d="M 10.390625 0.359375 C 7.890625 0.359375 5.867188 -0.234375 4.328125 -1.421875 C 2.785156 -2.617188 1.847656 -4.238281 1.515625 -6.28125 L 4.65625 -6.28125 C 4.914062 -5.101562 5.503906 -4.144531 6.421875 -3.40625 C 7.347656 -2.664062 8.679688 -2.296875 10.421875 -2.296875 C 11.742188 -2.296875 12.820312 -2.546875 13.65625 -3.046875 C 14.488281 -3.554688 14.90625 -4.304688 14.90625 -5.296875 C 14.90625 -6.117188 14.644531 -6.753906 14.125 -7.203125 C 13.613281 -7.648438 12.9375 -7.988281 12.09375 -8.21875 C 11.257812 -8.457031 10.359375 -8.675781 9.390625 -8.875 C 8.546875 -9.03125 7.703125 -9.210938 6.859375 -9.421875 C 6.023438 -9.640625 5.265625 -9.9375 4.578125 -10.3125 C 3.898438 -10.6875 3.351562 -11.191406 2.9375 -11.828125 C 2.53125 -12.460938 2.328125 -13.273438 2.328125 -14.265625 C 2.328125 -15.492188 2.640625 -16.523438 3.265625 -17.359375 C 3.890625 -18.203125 4.742188 -18.832031 5.828125 -19.25 C 6.910156 -19.675781 8.113281 -19.890625 9.4375 -19.890625 C 11.550781 -19.890625 13.3125 -19.34375 14.71875 -18.25 C 16.132812 -17.15625 17.007812 -15.628906 17.34375 -13.671875 L 14.5625 -13.671875 C 14.25 -14.921875 13.640625 -15.828125 12.734375 -16.390625 C 11.828125 -16.953125 10.726562 -17.234375 9.4375 -17.234375 C 8.132812 -17.234375 7.125 -16.992188 6.40625 -16.515625 C 5.6875 -16.035156 5.328125 -15.367188 5.328125 -14.515625 C 5.328125 -13.835938 5.566406 -13.300781 6.046875 -12.90625 C 6.535156 -12.519531 7.164062 -12.226562 7.9375 -12.03125 C 8.71875 -11.832031 9.554688 -11.640625 10.453125 -11.453125 C 11.328125 -11.285156 12.203125 -11.085938 13.078125 -10.859375 C 13.960938 -10.640625 14.769531 -10.328125 15.5 -9.921875 C 16.238281 -9.523438 16.820312 -8.984375 17.25 -8.296875 C 17.6875 -7.617188 17.90625 -6.722656 17.90625 -5.609375 C 17.90625 -3.828125 17.25 -2.382812 15.9375 -1.28125 C 14.632812 -0.1875 12.785156 0.359375 10.390625 0.359375 Z M 10.390625 0.359375 "/></g></g></g><g fill="#ffffff" fill-opacity="1"><g transform="translate(828.115521, 543.592721)"><g><path d="M 11.203125 0.359375 C 9.335938 0.359375 7.6875 -0.0820312 6.25 -0.96875 C 4.8125 -1.851562 3.691406 -3.054688 2.890625 -4.578125 C 2.097656 -6.097656 1.703125 -7.8125 1.703125 -9.71875 C 1.703125 -11.476562 2.066406 -13.132812 2.796875 -14.6875 C 3.523438 -16.25 4.59375 -17.503906 6 -18.453125 C 7.414062 -19.410156 9.125 -19.890625 11.125 -19.890625 C 12.769531 -19.890625 14.304688 -19.523438 15.734375 -18.796875 C 17.160156 -18.066406 18.320312 -16.984375 19.21875 -15.546875 C 20.113281 -14.109375 20.5625 -12.34375 20.5625 -10.25 L 20.5625 -9.1875 L 4.65625 -9.1875 C 4.707031 -8.5 4.835938 -7.851562 5.046875 -7.25 C 5.546875 -5.738281 6.335938 -4.535156 7.421875 -3.640625 C 8.503906 -2.742188 9.75 -2.296875 11.15625 -2.296875 C 12.644531 -2.296875 13.882812 -2.6875 14.875 -3.46875 C 15.863281 -4.257812 16.570312 -5.195312 17 -6.28125 L 20.203125 -6.28125 C 19.804688 -5.0625 19.207031 -3.953125 18.40625 -2.953125 C 17.601562 -1.953125 16.609375 -1.148438 15.421875 -0.546875 C 14.234375 0.0546875 12.828125 0.359375 11.203125 0.359375 Z M 4.953125 -11.828125 L 17.34375 -11.828125 C 17.320312 -12.160156 17.273438 -12.488281 17.203125 -12.8125 C 17.128906 -13.144531 17.035156 -13.457031 16.921875 -13.75 C 16.398438 -14.875 15.628906 -15.734375 14.609375 -16.328125 C 13.585938 -16.929688 12.453125 -17.234375 11.203125 -17.234375 C 9.898438 -17.234375 8.757812 -16.925781 7.78125 -16.3125 C 6.8125 -15.707031 6.054688 -14.851562 5.515625 -13.75 C 5.367188 -13.4375 5.25 -13.113281 5.15625 -12.78125 C 5.0625 -12.457031 4.992188 -12.140625 4.953125 -11.828125 Z M 4.953125 -11.828125 "/></g></g></g><g fill="#ffffff" fill-opacity="1"><g transform="translate(851.038585, 543.592721)"><g><path d="M 11.453125 0 L 8.71875 0 C 7.757812 0 6.929688 -0.132812 6.234375 -0.40625 C 5.535156 -0.675781 5.003906 -1.171875 4.640625 -1.890625 C 4.273438 -2.609375 4.09375 -3.613281 4.09375 -4.90625 L 4.09375 -16.890625 L 0.953125 -16.890625 L 0.953125 -19.53125 L 4.09375 -19.53125 L 4.09375 -26.953125 L 7.09375 -26.953125 L 7.09375 -19.53125 L 11.484375 -19.53125 L 11.484375 -16.890625 L 7.09375 -16.890625 L 7.09375 -5.515625 C 7.09375 -4.941406 7.132812 -4.4375 7.21875 -4 C 7.300781 -3.570312 7.507812 -3.238281 7.84375 -3 C 8.175781 -2.769531 8.707031 -2.65625 9.4375 -2.65625 L 11.453125 -2.65625 Z M 11.453125 0 "/></g></g></g><g fill="#ffffff" fill-opacity="1"><g transform="translate(864.495738, 543.592721)"><g><path d="M 10.390625 0.359375 C 7.890625 0.359375 5.867188 -0.234375 4.328125 -1.421875 C 2.785156 -2.617188 1.847656 -4.238281 1.515625 -6.28125 L 4.65625 -6.28125 C 4.914062 -5.101562 5.503906 -4.144531 6.421875 -3.40625 C 7.347656 -2.664062 8.679688 -2.296875 10.421875 -2.296875 C 11.742188 -2.296875 12.820312 -2.546875 13.65625 -3.046875 C 14.488281 -3.554688 14.90625 -4.304688 14.90625 -5.296875 C 14.90625 -6.117188 14.644531 -6.753906 14.125 -7.203125 C 13.613281 -7.648438 12.9375 -7.988281 12.09375 -8.21875 C 11.257812 -8.457031 10.359375 -8.675781 9.390625 -8.875 C 8.546875 -9.03125 7.703125 -9.210938 6.859375 -9.421875 C 6.023438 -9.640625 5.265625 -9.9375 4.578125 -10.3125 C 3.898438 -10.6875 3.351562 -11.191406 2.9375 -11.828125 C 2.53125 -12.460938 2.328125 -13.273438 2.328125 -14.265625 C 2.328125 -15.492188 2.640625 -16.523438 3.265625 -17.359375 C 3.890625 -18.203125 4.742188 -18.832031 5.828125 -19.25 C 6.910156 -19.675781 8.113281 -19.890625 9.4375 -19.890625 C 11.550781 -19.890625 13.3125 -19.34375 14.71875 -18.25 C 16.132812 -17.15625 17.007812 -15.628906 17.34375 -13.671875 L 14.5625 -13.671875 C 14.25 -14.921875 13.640625 -15.828125 12.734375 -16.390625 C 11.828125 -16.953125 10.726562 -17.234375 9.4375 -17.234375 C 8.132812 -17.234375 7.125 -16.992188 6.40625 -16.515625 C 5.6875 -16.035156 5.328125 -15.367188 5.328125 -14.515625 C 5.328125 -13.835938 5.566406 -13.300781 6.046875 -12.90625 C 6.535156 -12.519531 7.164062 -12.226562 7.9375 -12.03125 C 8.71875 -11.832031 9.554688 -11.640625 10.453125 -11.453125 C 11.328125 -11.285156 12.203125 -11.085938 13.078125 -10.859375 C 13.960938 -10.640625 14.769531 -10.328125 15.5 -9.921875 C 16.238281 -9.523438 16.820312 -8.984375 17.25 -8.296875 C 17.6875 -7.617188 17.90625 -6.722656 17.90625 -5.609375 C 17.90625 -3.828125 17.25 -2.382812 15.9375 -1.28125 C 14.632812 -0.1875 12.785156 0.359375 10.390625 0.359375 Z M 10.390625 0.359375 "/></g></g></g></svg>